SplineFontDB: 2.0
FontName: THNiramitAS
FullName: THNiramitAS
FamilyName: TH Niramit AS
Weight: Book
Copyright: Copyright (c) 2006 by Department of Intellectual Property (DIP), Ministry of Commerce and Software Industry Promotion Agency (Public Organization) (SIPA). All rights reserved.
Version: 1.1
ItalicAngle: 0
UnderlinePosition: -35
UnderlineWidth: 30
Ascent: 800
Descent: 200
NeedsXUIDChange: 1
XUID: [1021 375 425136265 12552537]
FSType: 0
OS2Version: 3
OS2_WeightWidthSlopeOnly: 0
OS2_UseTypoMetrics: 1
CreationTime: 1157457519
ModificationTime: 1204786679
PfmFamily: 17
TTFWeight: 400
TTFWidth: 5
LineGap: 60
VLineGap: 0
Panose: 2 0 5 6 0 0 0 2 0 4
OS2TypoAscent: 0
OS2TypoAOffset: 1
OS2TypoDescent: 0
OS2TypoDOffset: 1
OS2TypoLinegap: 0
OS2WinAscent: 17
OS2WinAOffset: 1
OS2WinDescent: 9
OS2WinDOffset: 1
HheadAscent: -39
HheadAOffset: 1
HheadDescent: 276
HheadDOffset: 1
OS2SubXSize: 700
OS2SubYSize: 650
OS2SubXOff: 0
OS2SubYOff: 140
OS2SupXSize: 700
OS2SupYSize: 650
OS2SupXOff: 0
OS2SupYOff: 477
OS2StrikeYSize: 30
OS2StrikeYPos: 250
OS2FamilyClass: 773
OS2Vendor: 'IPTH'
Lookup: 4 0 0 "'frac' Diagonal Fractions in Latin lookup 0"  {"'frac' Diagonal Fractions in Latin lookup 0 subtable"  } ['frac' ('latn' <'dflt' > ) ]
Lookup: 6 0 0 "'liga' Standard Ligatures in Latin lookup 1"  {"'liga' Standard Ligatures in Latin lookup 1 subtable"  } ['liga' ('latn' <'dflt' > ) ]
Lookup: 6 0 0 "'liga' Standard Ligatures in Latin lookup 2"  {"'liga' Standard Ligatures in Latin lookup 2 subtable"  } ['liga' ('latn' <'dflt' > ) ]
Lookup: 6 0 0 "'liga' Standard Ligatures in Latin lookup 3"  {"'liga' Standard Ligatures in Latin lookup 3 subtable"  } ['liga' ('latn' <'dflt' > ) ]
Lookup: 6 0 0 "'liga' Standard Ligatures in Latin lookup 4"  {"'liga' Standard Ligatures in Latin lookup 4 subtable"  } ['liga' ('latn' <'dflt' > ) ]
Lookup: 6 0 0 "'liga' Standard Ligatures in Latin lookup 5"  {"'liga' Standard Ligatures in Latin lookup 5 subtable"  } ['liga' ('latn' <'dflt' > ) ]

StartChar: .notdef
Encoding: 65536 -1 0
Width: 747
VWidth: 1494
Flags: W
HStem: 0 52<145 601> 987 52<145 601>
VStem: 94 51<52 987> 601 51<52 987>
Fore
601 52 m 1
 601 987 l 1
 145 987 l 1
 145 52 l 1
 601 52 l 1
652 0 m 1
 94 0 l 1
 94 1039 l 1
 652 1039 l 1
 652 0 l 1
EndSplineSet
EndChar
StartChar: numbersign
Encoding: 35 35 4
Width: 509
VWidth: 1494
Flags: MW
HStem: 0 21G<96 150.422 271 325.511> 223 46<27 123 181 299 356 459> 435 48<48 149 206 326 383 480>
VStem: 149 51<356.165 435>
Fore
155 483 m 1
 168 569 171 612 184 698 c 1
 233 698 l 1
 206 483 l 1
 332 483 l 1
 338.12 525.84 342.659 568.927 357 698 c 1
 410 698 l 1
 383 483 l 1
 480 483 l 1
 480 435 l 1
 377 435 l 1
 367 352 362 336 356 269 c 1
 459 269 l 1
 459 223 l 1
 351 223 l 1
 323 0 l 1
 271 0 l 1
 299 223 l 1
 175 223 l 1
 148 0 l 1
 96 0 l 1
 123 223 l 1
 27 223 l 1
 27 269 l 1
 129 269 l 1
 135 336 143 368 149 435 c 1
 48 435 l 1
 48 483 l 1
 155 483 l 1
305 269 m 1
 311 336 316 352 326 435 c 1
 200 435 l 1
 195 368 187 336 181 269 c 1
 305 269 l 1
EndSplineSet
EndChar
StartChar: dollar
Encoding: 36 36 5
Width: 568
VWidth: 1494
Flags: W
HStem: -18 54<221.669 256 308 389.3> 665 58<186.817 256 308 335.1>
VStem: 256 52<-90 -18 37 311 399 665 723 800> 469 60<102.338 228.118>
Fore
256 665 m 1
 156 655 124 590 124 543 c 0
 124 514 132 456 256 399 c 1
 256 665 l 1
529 176 m 0
 529 98 489 -5 308 -18 c 1
 308 -90 l 1
 256 -90 l 1
 256 -18 l 1
 227 -16 141 -14 43 75 c 1
 91 121 l 1
 162 50 216 40 256 36 c 1
 256 330 l 1
 136 374 68 445 61 532 c 0
 53 621 120 715 256 723 c 1
 256 800 l 1
 308 800 l 1
 308 723 l 1
 376 717 445 694 484 664 c 1
 454 613 l 1
 378 662 319 664 308 665 c 1
 308 377 l 1
 422 337 529 297 529 176 c 0
308 37 m 1
 392 44 469 89 469 161 c 0
 469 237 411 272 308 311 c 1
 308 37 l 1
EndSplineSet
EndChar
StartChar: percent
Encoding: 37 37 6
Width: 874
VWidth: 1494
Flags: W
HStem: 3 43<581.58 685.799> 330 45<580.477 685.799> 341 45<185.673 292.077> 668 45<187.112 291.685>
VStem: 99 49<429.057 624.493> 332 48<429.4 622.409> 493 48<92.8572 283.666> 726 48<91.8894 285.485>
Fore
640 725 m 1x9f
 269 -16 l 1
 218 -16 l 1
 587 725 l 1
 640 725 l 1x9f
493 188 m 256
 493 278 536 375 634 375 c 0xdf
 718 375 774 292 774 188 c 256
 774 87 718 3 634 3 c 0
 549 3 493 82 493 188 c 256
541 188 m 256
 541 107 575 46 634 46 c 0
 671 46 726 76 726 188 c 256
 726 302 671 330 634 330 c 0
 578 330 541 275 541 188 c 256
239 713 m 256
 324 713 380 626 380 528 c 0
 380 440 335 341 239 341 c 256xbf
 155 341 99 422 99 528 c 0
 99 629 155 713 239 713 c 256
239 668 m 0
 184 668 148 614 148 528 c 0
 148 465 168 386 239 386 c 0
 312 386 332 466 332 528 c 0
 332 613 295 668 239 668 c 0
EndSplineSet
EndChar
StartChar: ampersand
Encoding: 38 38 7
Width: 641
VWidth: 1494
Flags: W
HStem: -10 58<192.931 361.012> 668 60<201.973 323.677>
VStem: 46 63<131.916 268.344> 121 63<524.911 648.726> 342 62<532.051 648.077>
Fore
573 413 m 1
 553 243 542 206 513 151 c 1
 634 4 l 1
 550 4 l 1
 475 97 l 1
 400 0 329 -10 280 -10 c 0
 144 -10 46 74 46 199 c 0
 46 324 167 384 206 423 c 1
 127 521 121 558 121 599 c 0
 121 689 195 728 262 728 c 0
 313 728 404 703 404 602 c 0
 404 528 358 473 287 416 c 1
 474 194 l 1
 506 277 513 371 514 416 c 1
 573 413 l 1
263 668 m 0
 234 668 184 657 184 598 c 256
 184 543 227 487 253 457 c 1
 291 501 342 534 342 598 c 0
 342 654 294 668 263 668 c 0
109 212 m 0
 109 114 188 48 275 48 c 0
 317 48 377 58 441 141 c 1
 242 378 l 1
 192 341 109 271 109 212 c 0
EndSplineSet
EndChar
StartChar: quotesingle
Encoding: 39 39 8
Width: 267
VWidth: 1494
Flags: W
HStem: 459 242<114 155>
VStem: 99 70<557.133 701>
Fore
169 587 m 1
 155 459 l 1
 114 459 l 1
 99 587 l 1
 99 701 l 1
 169 701 l 1
 169 587 l 1
EndSplineSet
EndChar
StartChar: parenleft
Encoding: 40 40 9
Width: 298
VWidth: 1494
Flags: W
VStem: 55 57<145.277 472.465>
Fore
112 303 m 0
 112 133 171 -11 247 -120 c 1
 202 -120 l 1
 125 -13 55 136 55 306 c 256
 55 479 123 617 202 738 c 1
 244 738 l 1
 172 626 112 475 112 303 c 0
EndSplineSet
EndChar
StartChar: parenright
Encoding: 41 41 10
Width: 298
VWidth: 1494
Flags: W
VStem: 187 57<146.724 471.136>
Fore
244 308 m 256
 244 138 175 -11 97 -118 c 1
 52 -118 l 1
 127 -10 187 133 187 305 c 0
 187 476 128 626 55 740 c 1
 97 740 l 1
 164 637 244 492 244 308 c 256
EndSplineSet
EndChar
StartChar: asterisk
Encoding: 42 42 11
Width: 527
VWidth: 1494
Flags: W
HStem: 507 55<99.1969 111.5 111.5 136.833 390.2 429.411>
VStem: 86 355<529.644 543.232>
Fore
419 510 m 0
 416 510 l 2
 278 528 l 1
 362 417 l 2
 364 413 365 409 365 405 c 0
 365 383 345 378 335 378 c 0
 325 378 319 382 315 392 c 2
 265 519 l 1
 253 490 248 484 234 448 c 2
 218 410 l 2
 207 381 204 379 187 379 c 0
 167 379 162 395 162 403 c 0
 162 409 163 415 178 434 c 2
 230 502 l 2
 240 513 246 522 251 529 c 1
 114 508 l 2
 112 508 111 507 109 507 c 0
 100 507 86 518 86 535 c 0
 86 546 95 562 109 562 c 0
 112 562 l 2
 248 544 l 1
 166 655 l 2
 163 659 161 663 161 667 c 0
 161 687 184 695 191 695 c 0
 198 695 208 692 212 680 c 2
 263 553 l 1
 277 583 l 2
 296 623 305 655 320 685 c 0
 323 692 332 694 341 694 c 0
 361 694 366 675 366 669 c 0
 366 663 362 655 349 638 c 2
 278 544 l 1
 414 564 l 1
 422 564 441 564 441 533 c 0
 441 524 433 510 419 510 c 0
EndSplineSet
EndChar
StartChar: plus
Encoding: 43 43 12
Width: 576
VWidth: 1494
Flags: W
HStem: 0 21G<262 315> 215 59<70 262 315 507>
VStem: 262 53<0 215 274 487 0 487 1.53064e-18 1.53064e-18>
Fore
262 487 m 1
 315 487 l 1
 315 274 l 1
 507 274 l 1
 507 215 l 1
 315 215 l 1
 315 0 l 1
 262 0 l 1
 262 215 l 1
 70 215 l 1
 70 274 l 1
 262 274 l 1
 262 487 l 1
EndSplineSet
EndChar
StartChar: comma
Encoding: 44 44 13
Width: 298
VWidth: 1494
Flags: W
HStem: -3 111<103.472 158.312>
VStem: 160 52<-37.8778 1>
Fore
146 108 m 0
 199 108 212 68 212 39 c 0
 212 -36 156 -90 105 -112 c 1
 103 -109 82 -79 82 -78 c 1
 114 -65 155 -32 160 1 c 1
 154 -1 148 -3 142 -3 c 0
 118 -3 90 19 90 52 c 0
 90 68 105 108 146 108 c 0
EndSplineSet
EndChar
StartChar: hyphen
Encoding: 45 45 14
Width: 576
VWidth: 1494
Flags: MW
HStem: 215 59<70 507>
Fore
70 274 m 1
 507 274 l 1
 507 215 l 1
 70 215 l 1
 70 274 l 1
EndSplineSet
EndChar
StartChar: period
Encoding: 46 46 15
Width: 270
VWidth: 1494
Flags: W
HStem: 0 109<91.129 177.985>
VStem: 81 107<35.0627 73.5897>
Fore
188 54 m 0
 188 37 177 0 135 0 c 256
 92 0 81 35 81 54 c 0
 81 74 92 109 135 109 c 256
 177 109 188 72 188 54 c 0
EndSplineSet
EndChar
StartChar: slash
Encoding: 47 47 16
Width: 260
VWidth: 1494
Flags: MW
HStem: 723 20G<212.403 277>
Fore
46 -61 m 1
 -7 -61 l 1
 218 743 l 1
 277 743 l 1
 46 -61 l 1
EndSplineSet
EndChar
StartChar: zero
Encoding: 48 48 17
Width: 588
VWidth: 1494
Flags: W
HStem: -10 65<209.309 381.311> 670 64<212.134 376.403>
VStem: 40 62<196.867 526.317> 486 61<194.893 525.675>
Fore
547 359 m 0
 547 47 395 -10 294 -10 c 256
 192 -10 40 52 40 359 c 0
 40 659 183 734 294 734 c 0
 395 734 547 678 547 359 c 0
294 670 m 0
 217 670 102 625 102 359 c 0
 102 96 217 55 294 55 c 0
 409 55 486 139 486 359 c 0
 486 628 371 670 294 670 c 0
EndSplineSet
EndChar
StartChar: one
Encoding: 49 49 18
Width: 426
VWidth: 1494
Flags: W
HStem: -1 21G<235 297> 698 20G<281 292>
VStem: 235 62<-1 602>
Fore
329 684 m 0
 329 669 299 653 297 652 c 1
 297 -1 l 1
 235 -1 l 1
 235 602 l 1
 118 507 l 1
 72 549 l 1
 266 713 l 2
 272 717 278 718 284 718 c 0
 300 718 329 703 329 684 c 0
EndSplineSet
EndChar
StartChar: two
Encoding: 50 50 19
Width: 568
VWidth: 1494
Flags: W
HStem: 0 64<48 67.3385 67.3385 75 151 451> 655 61<205.099 357.551>
VStem: 82 59<471 482.426 482.426 486.358 484.392 590.115> 429 63<418.353 583.994>
Fore
492 497 m 0
 492 306 235 180 151 64 c 1
 451 64 l 1
 480 120 l 1
 481 120 484 119 488 116 c 1
 534 91 l 1
 490 0 l 1
 78 0 l 2
 45 0 45 5 45 18 c 0
 45 24 48 65 60 65 c 0
 63 65 65 64 75 64 c 1
 95 100 141 150 221 218 c 2
 297 284 l 2
 412 385 429 456 429 499 c 0
 429 596 360 655 283 655 c 0
 229 655 137 625 137 507 c 0
 137 493 138 482 141 471 c 1
 82 456 l 1
 79 468 77 488 77 505 c 0
 77 617 154 716 283 716 c 0
 425 716 492 609 492 497 c 0
EndSplineSet
EndChar
StartChar: three
Encoding: 51 51 20
Width: 594
VWidth: 1494
Flags: W
HStem: -9 51<206.629 377.647> 415 63<315.365 397.534> 646 63<145 389 469 491.766>
VStem: 36 57<97.2866 194> 478 58<153.089 335.933>
Fore
536 248 m 0
 536 103 428 -9 318 -9 c 0
 234 -9 93 3 36 194 c 1
 93 212 l 1
 125 85 219 42 296 42 c 0
 419 42 478 163 478 247 c 0
 478 373 380 415 326 415 c 0
 297 415 273 409 257 401 c 1
 257 401 225 359 213 359 c 0
 205 359 175 383 175 396 c 0
 175 400 177.277 403.74 181 408 c 2
 389 646 l 1
 145 646 l 1
 114 555 l 1
 60 582 l 1
 99 709 l 1
 481 709 l 2
 499 709 502 704 502 696 c 0
 502 687 495 654 492 650 c 1
 491 647 486 646 477 646 c 2
 469 646 l 1
 315 478 l 1
 396 478 536 432 536 248 c 0
EndSplineSet
EndChar
StartChar: four
Encoding: 52 52 21
Width: 541
VWidth: 1494
Flags: W
HStem: 0 21G<365 428> 160 60<102 365 428 525> 700 20G<403 411.5>
VStem: 365 63<0 160 220 573>
Fore
365 220 m 1
 365 573 l 1
 102 220 l 1
 365 220 l 1
405 720 m 0
 418 720 437 691 437 680 c 0
 437 678 429 659 428 658 c 1
 428 220 l 1
 525 220 l 1
 525 160 l 1
 428 160 l 1
 428 0 l 1
 365 0 l 1
 365 160 l 1
 40 160 l 2
 30 160 15 178 15 196 c 0
 15 201 16 207 19 211 c 2
 395 713 l 2
 398 718 401 720 405 720 c 0
EndSplineSet
EndChar
StartChar: five
Encoding: 53 53 22
Width: 594
VWidth: 1494
Flags: MW
HStem: -13 61<249.921 375.366> 446 61<214.591 392.384> 647 63<181 516>
VStem: 484 62<158.441 352.669>
Fore
121 317 m 1
 99 326 68 335 66 338 c 1
 73 365 85 434 92 476 c 2
 106 571 l 2
 112 603 115 631 118 655 c 1
 115 657 108 664 108 674 c 0
 108 678 112 705 121 708 c 0
 125 709 132 710 142 710 c 2
 516 710 l 1
 516 647 l 1
 181 647 l 1
 177 607 158 528 148 448 c 1
 199 487 253 507 309 507 c 0
 449 507 546 413 546 261 c 0
 546 69 409 -13 288 -13 c 0
 257 -13 169 -7 75 87 c 1
 117 133 l 1
 203 54 251 48 285 48 c 0
 379 48 484 113 484 259 c 0
 484 365 418 446 299 446 c 0
 228 446 158 406 121 317 c 1
EndSplineSet
EndChar
StartChar: six
Encoding: 54 54 23
Width: 605
VWidth: 1494
Flags: W
HStem: -16 56<234.991 402.85> 418 61<243.717 408.626> 532 21G<475 537> 662 56<241.988 404.688>
VStem: 52 58<242.688 482.045> 484 53<534.851 614.577> 492 60<136.741 331.19>
Fore
321 40 m 0xfa
 430 40 492 132 492 232 c 0
 492 361 408 418 328 418 c 0
 228 418 140 337 140 222 c 0
 140 159 159 120 195 89 c 0
 226 62 270 40 321 40 c 0xfa
52 331 m 0
 52 470 107 718 325 718 c 0
 406 718 506 673 537 547 c 1
 484 532 l 1xfc
 466 611 399 662 323 662 c 0
 140 662 110 410 110 350 c 0
 110 342 110 334 111 326 c 1
 159 443 256 479 325 479 c 0
 452 479 552 379 552 226 c 0
 552 95 464 -16 316 -16 c 0
 125 -16 52 159 52 331 c 0
EndSplineSet
EndChar
StartChar: seven
Encoding: 55 55 24
Width: 542
VWidth: 1494
Flags: W
HStem: -1 21G<194 260.5> 646 63<99 439 499 501.954 501.954 507.523 507.523 520.446>
VStem: 194 62<4.61322 190.983> 438 59<602.261 631.431 631.431 633.942 633.942 643>
Fore
497 620 m 2
 497 606 l 2
 497 545 420 520 326 288 c 0
 288 195 265 98 256 -1 c 1
 194 -1 l 1
 219 209 307 439 416 575 c 0
 435 599 438 604 438 624 c 0
 438 628 438 636 439 646 c 1
 99 646 l 1
 109 573 l 1
 49 553 l 1
 43 584 30 670 30 676 c 0
 30 694 44 709 61 709 c 2
 510 709 l 2
 520 709 528 702 528 690 c 0
 528 689 524 643 510 643 c 0
 509 643 507 644 505 644 c 0
 502 644 500 643 499 643 c 1
 498 634 497 626 497 620 c 2
EndSplineSet
EndChar
StartChar: eight
Encoding: 56 56 25
Width: 606
VWidth: 1494
Flags: W
HStem: -18 54<210.143 394.109> 389 62<228.586 374.578> 665 64<229.635 373.576>
VStem: 51 66<128.37 297.492> 117 64<498.071 617.09> 422 62<496.21 617.19> 483 67<123.992 295.689>
Fore
300 729 m 0xfa
 407 729 484 661 484 558 c 0xfc
 484 462 411 422 411 422 c 1
 460 400 550 338 550 215 c 0
 550 88 446 -18 300 -18 c 0
 156 -18 51 89 51 215 c 0
 51 338 141 399 191 420 c 1
 191 420 117 462 117 558 c 0
 117 644 181 729 300 729 c 0xfa
300 665 m 0
 241 665 181 620 181 558 c 0
 181 496 239 451 300 451 c 0
 377 451 422 504 422 558 c 0
 422 618 368 665 300 665 c 0
117 215 m 0
 117 108 198 36 300 36 c 0
 406 36 483 101 483 215 c 0xfa
 483 305 409 389 300 389 c 0
 208 389 117 322 117 215 c 0
EndSplineSet
EndChar
StartChar: nine
Encoding: 57 57 26
Width: 605
VWidth: 1494
Flags: W
HStem: -12 55<196.304 365.623> 235 57<209.221 385.829> 665 62<207.588 381.041>
VStem: 47 66<392.166 569.828> 60 55<77.6488 123> 471 76<290.013 553.826> 480 67<284.584 333>
Back
288 732 m 0xf2
 477 732 547 598 547 382 c 0
 547 41 391 -12 286 -12 c 0
 206 -12 89 20 60 123 c 1
 115 152 l 1xec
 128 94 206 43 287 43 c 0
 378 43 450 121 468 220 c 0
 474 254 478 292 480 333 c 1
 444 275 378 235 292 235 c 0
 145 235 47 348 47 483 c 0
 47 612 136 732 288 732 c 0xf2
297 292 m 0
 414 292 471 381 471 479 c 0
 471 571 413 670 294 670 c 0
 181 670 113 581 113 484 c 0xf4
 113 383 187 292 297 292 c 0
EndSplineSet
Fore
288 727 m 0xf2
 477 727 547 598 547 382 c 0
 547 41 391 -12 286 -12 c 0
 206 -12 89 20 60 123 c 1
 115 152 l 1xec
 128 94 206 43 287 43 c 0
 378 43 450 121 468 220 c 0
 474 254 478 292 480 333 c 1
 444 275 378 235 292 235 c 0
 145 235 47 346 47 481 c 0
 47 610 136 727 288 727 c 0xf2
297 292 m 0
 414 292 471 379 471 477 c 0
 471 569 413 665 294 665 c 0
 181 665 113 579 113 482 c 0xf4
 113 381 187 292 297 292 c 0
EndSplineSet
EndChar
StartChar: colon
Encoding: 58 58 27
Width: 297
VWidth: 1494
Flags: W
HStem: -1 109<107.056 194.944> 390 109<107.056 194.944>
VStem: 97 108<33.2261 72.5677 425.432 464.774>
Fore
205 445 m 0
 205 427.05 194.2 390 151 390 c 256
 107.8 390 97 427.05 97 445 c 0
 97 463.9 107.8 499 151 499 c 256
 194.2 499 205 463.9 205 445 c 0
205 53 m 0
 205 34.1 194.2 -0.999999 151 -1 c 256
 107.8 -1 97 34.1 97 53 c 0
 97 70.95 107.8 108 151 108 c 256
 194.2 108 205 70.95 205 53 c 0
EndSplineSet
EndChar
StartChar: semicolon
Encoding: 59 59 28
Width: 298
VWidth: 1494
Flags: W
HStem: -3 111<106.398 161.312> 390 109<109.44 192.56>
VStem: 97 108<402.528 486.902> 163 52<-37.8778 1>
Fore
205 445 m 0xe0
 205 412 175 390 151 390 c 256
 127 390 97 412 97 445 c 0
 97 478 127 499 151 499 c 256
 175 499 205 478 205 445 c 0xe0
149 108 m 0
 202 108 215 68 215 39 c 0
 215 -36 159 -90 108 -112 c 1
 106 -109 85 -79 85 -78 c 1
 117 -65 158 -32 163 1 c 1xd0
 157 -1 151 -3 145 -3 c 0
 121 -3 93 19 93 52 c 0
 93 85 125 108 149 108 c 0
EndSplineSet
EndChar
StartChar: less
Encoding: 60 60 29
Width: 615
VWidth: 1494
Flags: MW
HStem: -12 21G<508.835 549>
Fore
549 445 m 1
 124 256 l 1
 549 52 l 1
 549 -12 l 1
 63 230 l 1
 63 283 l 1
 549 510 l 1
 549 445 l 1
EndSplineSet
EndChar
StartChar: equal
Encoding: 61 61 30
Width: 636
VWidth: 1494
Flags: MW
HStem: 126 59<73 559> 329 57<73 559>
Fore
559 329 m 1
 73 329 l 1
 73 386 l 1
 559 386 l 1
 559 329 l 1
559 126 m 1
 73 126 l 1
 73 185 l 1
 559 185 l 1
 559 126 l 1
EndSplineSet
EndChar
StartChar: greater
Encoding: 62 62 31
Width: 600
VWidth: 1494
Flags: MW
HStem: -12 21G<61 101.165>
Fore
61 510 m 1
 547 283 l 1
 547 230 l 1
 61 -12 l 1
 61 52 l 1
 486 256 l 1
 61 445 l 1
 61 510 l 1
EndSplineSet
EndChar
StartChar: question
Encoding: 63 63 32
Width: 518
VWidth: 1494
Flags: W
HStem: 1 111<216.532 305.442> 681 56<185.81 339.947>
VStem: 205 112<12.6882 100.372> 232 59<154 311.989> 389 62<486.339 631.807>
Fore
69 608 m 1xd8
 107 714 201 737 268 737 c 0
 417 737 451 623 451 566 c 0
 451 420 291 362 291 239 c 2
 291 154 l 1
 232 154 l 1
 232 239 l 2
 232 392 389 442 389 560 c 0
 389 605 364 681 263 681 c 0
 179 681 139 624 123 578 c 1
 69 608 l 1xd8
263 112 m 0
 291 112 317 90 317 58 c 0
 317 22 290 1 263 1 c 0
 228 1 205 25 205 58 c 0xe8
 205 90 231 112 263 112 c 0
EndSplineSet
EndChar
StartChar: at
Encoding: 64 64 33
Width: 820
VWidth: 1494
Flags: W
HStem: -25 46<307.643 519.637> 138 38<539.865 639.749> 144 42<314.911 430.505> 537 41<365.648 481.036> 682 46<312.75 545.4>
VStem: 58 48<227.435 468.228> 234 45<225.876 426.108> 506 18<249 421> 714 42<268.928 510.554>
Fore
422 728 m 0xdf80
 557 728 756 660 756 383 c 0
 756 243 685 138 579 138 c 0xdf80
 535 138 487 160 484 221 c 1
 471 174 416 144 367 144 c 0xbf80
 287 144 234 215 234 327 c 0
 234 450 317 578 432 578 c 0
 502 578 517 531 520 517 c 1
 531 577 l 1
 578 577 l 1
 571 530 562 480 552 428 c 2
 526 277 l 2
 524 267 524 258 524 249 c 0
 524 192 560 176 585 176 c 0
 649 176 714 255 714 379 c 0
 714 621 548 682 422 682 c 0
 249 682 106 541 106 347 c 0
 106 163 244 21 413 21 c 0
 466 21 519 36 574 66 c 1
 574 21 l 1
 518 -9 462 -25 405 -25 c 0
 229 -25 58 116 58 351 c 0
 58 556 215 728 422 728 c 0xdf80
374 186 m 0xbf80
 466 186 506 332 506 421 c 0
 506 523 461 537 431 537 c 0
 339 537 279 424 279 315 c 0
 279 258 298 186 374 186 c 0xbf80
EndSplineSet
EndChar
StartChar: A
Encoding: 65 65 34
Width: 612
VWidth: 1494
Flags: W
HStem: -12 21G<9 73.5 536.788 602> 196 49<163 450>
Fore
352 700 m 0
 352 694 345 686 344 685 c 1
 602 0 l 1
 544 -12 l 1
 469 196 l 1
 144 196 l 1
 66 -12 l 1
 9 0 l 1
 272 692 l 2
 283 719 305 731 313 731 c 0
 332 731 352 705 352 700 c 0
450 245 m 1
 305 622 l 1
 163 245 l 1
 450 245 l 1
EndSplineSet
EndChar
StartChar: B
Encoding: 66 66 35
Width: 584
VWidth: 1494
Flags: W
HStem: 0 58<144 402.49> 341 55<144 283 357 357.9> 650 59<144 377.771>
VStem: 87 57<58 341 396 649.713> 420 58<455.771 611.057> 462 57<114.164 272.563>
Fore
420 531 m 0xf8
 420 622 374 650 280 650 c 2
 144 650 l 1
 144 396 l 1
 269 396 l 2
 328 396 420 423 420 531 c 0xf8
462 197 m 0xf4
 462 257 426 341 283 341 c 2
 144 341 l 1
 144 58 l 1
 305 58 l 2
 410 58 462 104 462 197 c 0xf4
519 199 m 0
 519 40 411 0 332 0 c 2
 87 0 l 1
 87 638 l 2
 87 673 61 676 61 692 c 0
 61 696 72 726 97 726 c 0
 102 726 113 721 123 709 c 1
 291 709 l 2
 398 709 478 640 478 537 c 0xf8
 478 437 414 383 357 375 c 1
 429 368 519 303 519 199 c 0
EndSplineSet
EndChar
StartChar: C
Encoding: 67 67 36
Width: 597
VWidth: 1494
Flags: W
HStem: -17 64<261.242 462.266> 654 62<257.567 447.535>
VStem: 54 63<210.377 487.565>
Fore
361 47 m 0
 419 47 476 64 514 108 c 1
 555 58 l 1
 544 48 477 -17 360 -17 c 0
 237 -17 54 67 54 350 c 0
 54 632 233 716 352 716 c 0
 445 716 506 675 537 647 c 1
 510 589 l 1
 499 600 446 654 350 654 c 0
 210 654 117 529 117 350 c 256
 117 192 189 47 361 47 c 0
EndSplineSet
EndChar
StartChar: D
Encoding: 68 68 37
Width: 674
VWidth: 1494
Flags: W
HStem: 0 58<138 383.194> 650 59<138 367.251>
VStem: 79 59<58 649.547> 556 63<228.721 477.06>
Fore
619 356 m 0
 619 124 466 0 253 0 c 2
 79 0 l 1
 79 638 l 2
 79 672 53 679 53 691 c 0
 53 695 65 726 90 726 c 0
 95 726 106 720 115 709 c 1
 253 709 l 2
 464 709 619 586 619 356 c 0
556 356 m 0
 556 558 420 650 227 650 c 2
 138 650 l 1
 138 58 l 1
 266 58 l 2
 453 58 556 182 556 356 c 0
EndSplineSet
EndChar
StartChar: E
Encoding: 69 69 38
Width: 511
VWidth: 1494
Flags: MW
HStem: 0 58<146 454> 338 58<146 423> 650 59<146 456>
VStem: 87 59<58 338 396 649.713>
Fore
97 726 m 0
 102 726 113 721 123 709 c 1
 456 709 l 1
 456 650 l 1
 146 650 l 1
 146 396 l 1
 423 396 l 1
 423 338 l 1
 146 338 l 1
 146 58 l 1
 454 58 l 1
 454 0 l 1
 87 0 l 1
 87 638 l 2
 87 673 61 676 61 692 c 0
 61 696 72 726 97 726 c 0
EndSplineSet
EndChar
StartChar: F
Encoding: 70 70 39
Width: 499
VWidth: 1494
Flags: MW
HStem: 0 21G<84 144> 338 58<144 420> 650 59<144 453>
VStem: 84 60<0 338 396 649.713>
Fore
94 726 m 0
 99 726 110 721 120 709 c 1
 453 709 l 1
 453 650 l 1
 144 650 l 1
 144 396 l 1
 420 396 l 1
 420 338 l 1
 144 338 l 1
 144 0 l 1
 84 0 l 1
 84 638 l 2
 84 673 58 676 58 692 c 0
 58 696 69 726 94 726 c 0
EndSplineSet
EndChar
StartChar: G
Encoding: 71 71 40
Width: 630
VWidth: 1494
Flags: W
HStem: -19 58<251.051 435.011> 299 58<336 499> 661 58<244.215 413.198>
VStem: 57 60<199.28 499.948> 484 62<553.451 620.955> 499 57<70 298.262>
Fore
359 39 m 0xf8
 387 39 418 42 499 70 c 1
 499 299 l 1
 336 299 l 1
 336 357 l 1
 520 357 l 1
 527 366 535 371 543 371 c 0
 569 371 579 338 579 334 c 0
 579 322 556 317 556 287 c 2
 556 24 l 1xf4
 485 -7 421 -19 327 -19 c 0
 128 -19 57 170 57 351 c 0
 57 517 132 719 327 719 c 0
 437 719 524 655 546 567 c 1
 484 544 l 1
 464 637 382 661 327 661 c 0
 197 661 117 535 117 351 c 0
 117 198 165 39 359 39 c 0xf8
EndSplineSet
EndChar
StartChar: H
Encoding: 72 72 41
Width: 630
VWidth: 1494
Flags: MW
HStem: 0 21G<84 142 84 84 490 546 490 490> 338 58<142 490> 689 20G<84 142 142 142 490 546 546 546>
VStem: 84 58<0 338 396 709> 490 56<0 338 396 709>
Fore
546 709 m 1
 546 0 l 1
 490 0 l 1
 490 338 l 1
 142 338 l 1
 142 0 l 1
 84 0 l 1
 84 709 l 1
 142 709 l 1
 142 396 l 1
 490 396 l 1
 490 709 l 1
 546 709 l 1
EndSplineSet
EndChar
StartChar: I
Encoding: 73 73 42
Width: 243
VWidth: 1494
Flags: MW
HStem: 0 21G<96 152 96 96> 689 20G<96 152 152 152>
VStem: 96 56<0 709>
Fore
152 709 m 1
 152 0 l 1
 96 0 l 1
 96 709 l 1
 152 709 l 1
EndSplineSet
EndChar
StartChar: J
Encoding: 74 74 43
Width: 373
VWidth: 1494
Flags: W
HStem: -16 50<47.9651 188.485> 689 20G<239 297>
VStem: 239 58<85.6003 709>
Fore
123 34 m 0
 192 34 239 91 239 161 c 2
 239 709 l 1
 297 709 l 1
 297 170 l 2
 297 49 214 -16 128 -16 c 0
 94 -16 51 -3 19 15 c 1
 37 64 l 1
 55 46 91 34 123 34 c 0
EndSplineSet
EndChar
StartChar: K
Encoding: 75 75 44
Width: 585
VWidth: 1494
Flags: W
HStem: -9 21G<91 148 496.054 584> 689 20G<91 148 475.224 558>
VStem: 91 57<0 360 380 709>
Fore
584 0 m 1
 516 -9 l 1
 148 360 l 1
 148 0 l 1
 91 0 l 1
 91 709 l 1
 148 709 l 1
 148 380 l 1
 496 715 l 1
 558 700 l 1
 215 371 l 1
 584 0 l 1
EndSplineSet
EndChar
StartChar: L
Encoding: 76 76 45
Width: 484
VWidth: 1494
Flags: MW
HStem: 0 52<145 451> 689 20G<87 145>
VStem: 87 58<52.7413 709>
Fore
61 16 m 0
 61 33 87 36 87 70 c 2
 87 709 l 1
 145 709 l 1
 145 52 l 1
 451 52 l 1
 451 0 l 1
 123 0 l 1
 113 -12 102 -18 97 -18 c 0
 72 -18 61 13 61 16 c 0
EndSplineSet
EndChar
StartChar: M
Encoding: 77 77 46
Width: 826
VWidth: 1494
Flags: W
HStem: -10 21G<28 87.4323 411 424 749.568 809> 706 20G<164 180 655 672.5>
Fore
664 726 m 0
 681 726 703 705 703 693 c 0
 703 690 691 674 691 674 c 1
 809 3 l 1
 753 -10 l 1
 649 596 l 1
 450 22 l 1
 455 7 455 8 455 5 c 0
 455 -8 431 -17 417 -17 c 0
 405 -17 401 -13 398 -7 c 2
 188 596 l 1
 84 -10 l 1
 28 3 l 1
 146 674 l 1
 135 689 135 688 135 692 c 0
 135 704 155 726 173 726 c 0
 187 726 210 698 215 685 c 2
 419 100 l 1
 622 685 l 2
 627 698 646 726 664 726 c 0
EndSplineSet
EndChar
StartChar: N
Encoding: 78 78 47
Width: 636
VWidth: 1494
Flags: MW
HStem: 0 21G<81 138 491.986 556> 689 20G<499 556 556 556> 705 20<82 96.5 499 556>
VStem: 81 57<0 564> 499 57<97 709>
Fore
81 640 m 2
 81 673 58 675 58 690 c 0
 58 696 70 725 94 725 c 0xb8
 99 725 111 719 120 707 c 2
 499 97 l 1
 499 709 l 1
 556 709 l 1xd8
 556 0 l 1
 505 0 l 1
 138 564 l 1
 138 0 l 1
 81 0 l 1
 81 640 l 2
EndSplineSet
EndChar
StartChar: O
Encoding: 79 79 48
Width: 686
VWidth: 1494
Flags: W
HStem: -19 55<249.5 434.02> 664 55<250.653 432.352>
VStem: 60 58<202.708 495.938> 568 60<207.965 494.563>
Fore
628 350 m 0
 628 66 471 -19 344 -19 c 0
 139 -19 60 156 60 350 c 0
 60 651 230 719 344 719 c 0
 478 719 628 625 628 350 c 0
118 350 m 256
 118 227 163 36 344 36 c 0
 510 36 568 203 568 350 c 256
 568 494 510 664 344 664 c 0
 163 664 118 471 118 350 c 256
EndSplineSet
EndChar
StartChar: P
Encoding: 80 80 49
Width: 547
VWidth: 1494
Flags: W
HStem: 0 21G<88 146> 286 55<146 368.47> 655 54<146 361.64>
VStem: 88 58<0 286 341 654.077> 451 57<413.819 574.753>
Fore
88 637 m 2
 88 669 62 680 62 691 c 0
 62 695 74 726 99 726 c 0
 104 726 115 720 124 709 c 1
 250 709 l 2
 392 709 508 649 508 496 c 256
 508 328 366 286 256 286 c 2
 146 286 l 1
 146 0 l 1
 88 0 l 1
 88 637 l 2
253 341 m 2
 422 341 451 434 451 496 c 0
 451 551 423 655 252 655 c 2
 146 655 l 1
 146 341 l 1
 253 341 l 2
EndSplineSet
EndChar
StartChar: Q
Encoding: 81 81 50
Width: 680
VWidth: 1494
Flags: W
HStem: -19 58<250.604 432.374> 661 58<246.277 427.478>
VStem: 57 60<200.708 495.604> 562 61<248.656 494.465>
Fore
339 -19 m 0
 134 -19 57 157 57 351 c 0
 57 653 226 719 339 719 c 256
 518 719 623 576 623 351 c 0
 623 246 602 161 561 97 c 1
 650 21 l 1
 611 -24 l 1
 523 52 l 1
 475 5 414 -19 339 -19 c 0
117 351 m 256
 117 122 231 39 339 39 c 0
 401 39 443 60 475 93 c 1
 398 158 l 1
 436 205 l 1
 511 139 l 1
 554 210 562 298 562 351 c 256
 562 542 473 661 339 661 c 256
 173 661 117 497 117 351 c 256
EndSplineSet
EndChar
StartChar: R
Encoding: 82 82 51
Width: 584
VWidth: 1494
Flags: W
HStem: -13 21G<88 146 456.224 529> 286 55<146 278> 655 54<146 361.64>
VStem: 88 58<0 286 341 654.488> 451 57<434.069 577.84>
Fore
88 638 m 2
 88 672 62 679 62 691 c 0
 62 695 74 726 99 726 c 0
 104 726 115 720 124 709 c 1
 250 709 l 2
 392 709 508 649 508 496 c 0
 508 460 504 333 342 294 c 1
 529 1 l 1
 469 -13 l 1
 278 286 l 1
 146 286 l 1
 146 0 l 1
 88 0 l 1
 88 638 l 2
253 341 m 2
 422 341 451 434 451 496 c 0
 451 560 416 655 251 655 c 2
 146 655 l 1
 146 341 l 1
 253 341 l 2
EndSplineSet
EndChar
StartChar: S
Encoding: 83 83 52
Width: 579
VWidth: 1494
Flags: W
HStem: -19 55<181.916 388.33> 667 58<188.414 394.759>
VStem: 60 64<477.962 609.539> 469 60<101.275 227.292>
Fore
278 667 m 0
 162 667 124 593 124 543 c 0
 124 401 359 383 466 301 c 0
 502 274 529 237 529 176 c 0
 529 98 487 -17 278 -19 c 0
 141 -19 72 54 43 75 c 1
 91 121 l 1
 142 74 192 36 286 36 c 256
 393 36 469 93 469 161 c 0
 469 313 232 294 118 414 c 0
 86 448 60 491 60 545 c 0
 60 632 134 725 280 725 c 0
 357 725 441 696 484 664 c 1
 454 613 l 1
 416 641 357 667 278 667 c 0
EndSplineSet
EndChar
StartChar: T
Encoding: 84 84 53
Width: 497
VWidth: 1494
Flags: MW
HStem: 0 21G<221 278> 655 54<20.3993 221 278 480.182>
VStem: 221 57<0 655>
Fore
463 709 m 2
 479 709 482 702 482 693 c 0
 482 691 480 655 468 655 c 2
 278 655 l 1
 278 0 l 1
 221 0 l 1
 221 655 l 1
 30 655 l 2
 22 655 16 664 16 693 c 0
 16 705 21 709 34 709 c 2
 463 709 l 2
EndSplineSet
EndChar
StartChar: U
Encoding: 85 85 54
Width: 680
VWidth: 1494
Flags: W
HStem: -16 58<233.981 445.532> 689 20G<84 141 537 592>
VStem: 84 57<126.747 217 217 709> 537 55<127.397 709>
Fore
339 42 m 0
 452 42 537 97 537 218 c 2
 537 709 l 1
 592 709 l 1
 592 217 l 2
 592 31 455 -16 339 -16 c 256
 225 -16 84 31 84 217 c 2
 84 709 l 1
 141 709 l 1
 141 218 l 2
 141 77 250 42 339 42 c 0
EndSplineSet
EndChar
StartChar: V
Encoding: 86 86 55
Width: 614
VWidth: 1494
Flags: W
HStem: -19 21G<291.5 303.5> 700 20G<9 74.4922 538.477 602>
Fore
298 -19 m 0
 285 -19 261 -0 261 13 c 0
 261 20 268 25 271 31 c 1
 9 709 l 1
 67 720 l 1
 306 82 l 1
 546 720 l 1
 602 709 l 1
 352 52 l 2
 344 34 341 23 341 22 c 1
 336 15 309 -19 298 -19 c 0
EndSplineSet
EndChar
StartChar: W
Encoding: 87 87 56
Width: 834
VWidth: 1494
Flags: W
HStem: -18 21G<163 178 657.5 674> 706 20G<28 87.4267 411.5 425 749.573 809>
Fore
415 726 m 0
 435 726 455 716 455 704 c 0
 455 702 450 686 450 686 c 1
 649 112 l 1
 753 719 l 1
 809 706 l 1
 691 34 l 1
 698 25 703 20 703 16 c 0
 703 4 682 -18 666 -18 c 0
 649 -18 622 16 622 24 c 1
 419 608 l 1
 215 24 l 1
 215 17 185 -18 171 -18 c 0
 155 -18 135 4 135 16 c 0
 135 22 146 34 146 34 c 1
 28 706 l 1
 84 719 l 1
 188 112 l 1
 398 716 l 2
 402 725 408 726 415 726 c 0
EndSplineSet
EndChar
StartChar: X
Encoding: 88 88 57
Width: 562
VWidth: 1494
Flags: W
Fore
9 37 m 1
 250 390 l 1
 34 701 l 1
 84 731 l 1
 284 432 l 1
 487 729 l 1
 535 701 l 1
 315 380 l 1
 558 33 l 1
 513 3 l 1
 284 336 l 1
 54 6 l 1
 9 37 l 1
EndSplineSet
EndChar
StartChar: Y
Encoding: 89 89 58
Width: 533
VWidth: 1494
Flags: W
HStem: 0 21G<239 291> 708 20G<462.763 522>
VStem: 239 52<0 300>
Fore
239 302 m 1
 10 710 l 1
 58 729 l 1
 265 356 l 1
 474 728 l 1
 522 709 l 1
 336.204 382.366 312.704 341.599 291 300 c 1
 291 0 l 1
 239 0 l 1
 239 302 l 1
EndSplineSet
EndChar
StartChar: Z
Encoding: 90 90 59
Width: 591
VWidth: 1494
Flags: W
HStem: 0 58<136 540> 650 59<46 451>
Fore
490 709 m 1
 507 726 510 727 515 727 c 0
 539 727 556 701 556 692 c 0
 556 688 551 680 543 671 c 2
 523 644 l 1
 136 58 l 1
 540 58 l 1
 540 0 l 1
 94 0 l 2
 82 0 76 -14 64 -14 c 0
 45 -14 27 15 27 24 c 0
 27 32 46 41 56 53 c 2
 66 64 l 1
 451 650 l 1
 46 650 l 1
 46 709 l 1
 490 709 l 1
EndSplineSet
EndChar
StartChar: bracketleft
Encoding: 91 91 60
Width: 273
VWidth: 1494
Flags: W
HStem: -136 48<135 199> 707 48<135 199>
VStem: 76 59<-88 707>
Fore
135 707 m 1
 135 -88 l 1
 199 -88 l 1
 199 -136 l 1
 76 -136 l 1
 76 755 l 1
 199 755 l 1
 199 707 l 1
 135 707 l 1
EndSplineSet
EndChar
StartChar: backslash
Encoding: 92 92 61
Width: 243
VWidth: 1494
Flags: MW
Fore
296 -27 m 1
 247 -25 l 1
 -40 729 l 1
 12 729 l 1
 296 -27 l 1
EndSplineSet
EndChar
StartChar: bracketright
Encoding: 93 93 62
Width: 270
VWidth: 1494
Flags: W
HStem: -136 48<72 136> 707 48<72 136>
VStem: 136 58<-88 707>
Fore
72 707 m 1
 72 755 l 1
 194 755 l 1
 194 -136 l 1
 72 -136 l 1
 72 -88 l 1
 136 -88 l 1
 136 707 l 1
 72 707 l 1
EndSplineSet
EndChar
StartChar: asciicircum
Encoding: 94 94 63
Width: 576
VWidth: 1494
Flags: W
HStem: 232 441<64 266 266 266>
VStem: 64 450<232 232 232 232>
Fore
64 232 m 1
 266 673 l 1
 311 673 l 1
 514 232 l 1
 463 232 l 1
 288 613 l 1
 115 232 l 1
 64 232 l 1
EndSplineSet
EndChar
StartChar: underscore
Encoding: 95 95 64
Width: 481
VWidth: 1494
Flags: W
HStem: -130 57<0 481 0 481 1.53064e-18 1.53064e-18>
Fore
481 -73 m 1
 481 -130 l 1
 0 -130 l 1
 0 -73 l 1
 481 -73 l 1
EndSplineSet
EndChar
StartChar: grave
Encoding: 96 96 65
Width: 243
VWidth: 1494
Flags: W
HStem: 549 140<21 172 21 21>
Fore
172 549 m 1
 129 549 l 1
 21 689 l 1
 91 689 l 1
 172 549 l 1
EndSplineSet
EndChar
StartChar: a
Encoding: 97 97 66
Width: 523
VWidth: 1494
Flags: W
HStem: -13 53<170.865 322.527> 468 54<167.987 322.245>
VStem: 31 51<145.194 362.794> 413 55<45.4902 82 145.639 359.568 428 522>
Fore
245 522 m 0
 326 522 379 480 411 428 c 1
 411 522 l 1
 468 522 l 1
 468 120 l 2
 468 70 472 49 490 9 c 1
 441 -10 l 1
 425 19 l 2
 418 32 414 53 414 82 c 1
 395 49 346 -13 245 -13 c 0
 97 -13 31 126 31 254 c 256
 31 408 117 522 245 522 c 0
413 284 m 1
 400 367 354 468 245 468 c 0
 124 468 82 342 82 254 c 0
 82 157 131 40 245 40 c 0
 353 40 406 142 413 226 c 2
 413 284 l 1
EndSplineSet
Substitution2: "Single Substitution lookup 22 subtable" uni0E38
Substitution2: "Single Substitution lookup 22 subtable" uni0E38
EndChar
StartChar: b
Encoding: 98 98 67
Width: 529
VWidth: 1494
Flags: W
HStem: -13 53<200.24 354.046> 466 54<201.258 353.189> 723 20G<55 111>
VStem: 55 56<46.4922 82 150.008 358.263 428 743> 441 51<144.537 362.792>
Fore
278 -13 m 0
 197 -13 142 31 109 82 c 1
 109 53 105 32 98 19 c 2
 82 -10 l 1
 33 9 l 1
 51 50 55 70 55 120 c 2
 55 743 l 1
 111 743 l 1
 111 428 l 1
 130 459 178 520 278 520 c 0
 426 520 492 382 492 254 c 256
 492 125 426 -13 278 -13 c 0
278 40 m 0
 392 40 441 155 441 254 c 0
 441 343 397 466 278 466 c 0
 170 466 121 365 111 284 c 2
 111 226 l 2
 118 143 170 40 278 40 c 0
EndSplineSet
Substitution2: "Single Substitution lookup 22 subtable" uni0E39
Substitution2: "Single Substitution lookup 22 subtable" uni0E39
EndChar
StartChar: c
Encoding: 99 99 68
Width: 440
VWidth: 1494
Flags: W
HStem: -14 54<188.531 351.824> 469 56<184.792 342.83>
VStem: 42 54<142.678 367.507>
Fore
414 45 m 1
 402 33 355 -14 267 -14 c 0
 177 -14 42 42 42 256 c 0
 42 464 173 525 261 525 c 0
 345 525 393 478 401 471 c 1
 377 417 l 1
 349 453 305 469 257 469 c 0
 170 469 96 391 96 256 c 256
 96 120 169 40 268 40 c 0
 316 40 357 56 380 87 c 1
 414 45 l 1
EndSplineSet
Substitution2: "Single Substitution lookup 22 subtable" uni0E3A
Substitution2: "Single Substitution lookup 22 subtable" uni0E3A
EndChar
StartChar: d
Encoding: 100 100 69
Width: 533
VWidth: 1494
Flags: W
HStem: -13 53<177.954 331.713> 466 54<178.996 331.628> 723 20G<422 477>
VStem: 40 51<144.755 362.792> 422 55<45.4902 82 145.639 226 226 358.263 428 743>
Fore
254 466 m 0
 135 466 91 343 91 254 c 0
 91 155 140 40 254 40 c 0
 362 40 415 142 422 226 c 2
 422 284 l 1
 410 365 362 466 254 466 c 0
254 520 m 0
 336 520 390 479 422 428 c 1
 422 743 l 1
 477 743 l 1
 477 120 l 2
 477 70 481 49 499 9 c 1
 450 -10 l 1
 434 19 l 2
 427 32 423 53 423 82 c 1
 406 55 355 -13 254 -13 c 0
 106 -13 40 126 40 254 c 256
 40 382 107 520 254 520 c 0
EndSplineSet
EndChar
StartChar: e
Encoding: 101 101 70
Width: 526
VWidth: 1494
Flags: MW
HStem: -13 49<196.252 361.035> 227 57<102 432> 471 49<190.084 347.811>
VStem: 37 65<133.656 227 284 364.701> 432 57<284 379.599>
Fore
271 520 m 0
 460 520 489 331 489 263 c 0
 489 232 480 227 447 227 c 2
 102 227 l 1
 102 107 192 36 273 36 c 0
 339 36 387 73 393 78 c 1
 428 33 l 1
 393 10 331 -13 266 -13 c 0
 146 -13 37 83 37 251 c 0
 37 355 96 520 271 520 c 0
268 471 m 0
 134 471 100 333 100 284 c 1
 432 284 l 1
 432 394 361 471 268 471 c 0
EndSplineSet
EndChar
StartChar: f
Encoding: 102 102 71
Width: 289
VWidth: 1494
Flags: W
HStem: 475 45<19 97 151 260> 693 51<170.239 258.096>
VStem: 97 54<-108.112 475 520 674.391>
Fore
49 -155 m 1
 78 -119 97 -60 97 4 c 2
 97 475 l 1
 7 475 l 1
 19 520 l 1
 97 520 l 1
 97 610 l 2
 97 713 160 744 216 744 c 0
 238 744 263 741 288 734 c 1
 281 686 l 1
 258 690 234 693 221 693 c 0
 165 693 151 652 151 590 c 2
 151 520 l 1
 272 520 l 1
 260 475 l 1
 151 475 l 1
 151 6 l 2
 151 -70 127 -124 99 -170 c 1
 49 -155 l 1
EndSplineSet
EndChar
StartChar: g
Encoding: 103 103 72
Width: 536
VWidth: 1494
Flags: W
HStem: -220 53<184 200.952 200.952 203.215 202.083 302.441> -16 53<176.156 309.28> 468 54<176.365 329.187>
VStem: 37 50<143.019 362.158> 419 55<-78.405 76 146.313 361.15 426 464.753>
Fore
251 522 m 0
 333 522 387 480 419 426 c 1
 419 455 423 476 430 491 c 2
 447 522 l 1
 496 502 l 1
 478 461 474 441 474 392 c 2
 475 9 l 2
 475 -47 464 -91 442 -124 c 0
 372 -226 259 -226 227 -226 c 0
 204 -226 183 -224 164 -220 c 1
 170 -204 184 -172 184 -167 c 1
 201 -170 219 -172 235 -172 c 0
 314 -172 419 -133 419 22 c 2
 419 76 l 1
 364 -9 287 -16 251 -16 c 0
 103 -16 37 124 37 253 c 0
 37 380 103 522 251 522 c 0
251 37 m 0
 360 37 407 140 419 221 c 1
 419 281 l 2
 411 364 360 468 251 468 c 0
 135 468 87 351 87 253 c 256
 87 144 143 37 251 37 c 0
EndSplineSet
EndChar
StartChar: h
Encoding: 104 104 73
Width: 530
VWidth: 1494
Flags: MW
HStem: 0 21G<70 124 421.5 481> 474 49<202.797 344.757> 723 20G<70 126>
VStem: 70 54<0 385.095 429 743> 407 53<44.5833 409.602>
Fore
432 -15 m 1
 411 33 407 47 407 88 c 2
 407 330 l 2
 407 438 322 474 275 474 c 0
 185 474 124 389 124 293 c 2
 124 0 l 1
 70 0 l 1
 70 743 l 1
 126 743 l 1
 126 429 l 1
 140 456 187 523 278 523 c 0
 387 523 460 437 460 330 c 2
 460 88 l 2
 460 45 477 6 481 4 c 1
 432 -15 l 1
EndSplineSet
EndChar
StartChar: i
Encoding: 105 105 74
Width: 206
VWidth: 1494
Flags: W
HStem: 0 21G<76 130> 500 20G<76 130> 616 90<64.0992 139.601>
VStem: 57 89<623.053 699.519> 76 54<0 520>
Fore
76 520 m 1xe8
 130 520 l 1
 130 0 l 1
 76 0 l 1
 76 520 l 1xe8
57 661 m 0xf0
 57 686 76 706 103 706 c 0
 127 706 146 687 146 661 c 0
 146 636 126 616 103 616 c 0
 77 616 57 637 57 661 c 0xf0
EndSplineSet
EndChar
StartChar: j
Encoding: 106 106 75
Width: 206
VWidth: 1494
Flags: W
HStem: -223 47<-54.5302 25.8187> 500 20G<76 130> 614 90<62.301 138.444>
VStem: 55 90<621.015 697.692> 76 54<-131.775 520>
Fore
55 659 m 0xf0
 55 687 76 704 100 704 c 0
 127 704 145 686 145 659 c 0
 145 639 130 614 100 614 c 0
 75 614 55 636 55 659 c 0xf0
-67 -176 m 0
 77 -166 76 -118 76 12 c 2
 76 520 l 1
 130 520 l 1
 130 -15 l 2xe8
 130 -167 87 -208 -43 -223 c 1
 -42 -223 -70 -176 -67 -176 c 0
EndSplineSet
EndChar
StartChar: k
Encoding: 107 107 76
Width: 463
VWidth: 1494
Flags: MW
HStem: 0 21G<75 130 388.092 454> 509 20G<345.683 417> 723 20G<75 130>
VStem: 75 55<0 278 324 743>
Fore
454 3 m 1
 407 -15 l 1
 130 278 l 1
 130 0 l 1
 75 0 l 1
 75 743 l 1
 130 743 l 1
 130 324 l 1
 369 529 l 1
 417 510 l 1
 179 302 l 1
 454 3 l 1
EndSplineSet
EndChar
StartChar: l
Encoding: 108 108 77
Width: 206
VWidth: 1494
Flags: W
HStem: 0 755<103 130 76 130 103 103>
VStem: 76 54<0 728>
Fore
103 755 m 1
 130 755 l 1
 130 0 l 1
 76 0 l 1
 76 728 l 1
 103 755 l 1
EndSplineSet
EndChar
StartChar: m
Encoding: 109 109 78
Width: 811
VWidth: 1494
Flags: W
HStem: -12 21G<69 123 383 436 709.5 768> 469 53<189.254 328.464 504.269 647.751>
VStem: 69 54<0 297 398 398.181> 383 53<0 391.333> 695 54<47.4021 417.785>
Fore
577 522 m 0
 680 522 749 444 749 321 c 2
 749 91 l 2
 749 48 765 9 768 7 c 1
 719 -12 l 1
 700 31 695 50 695 91 c 2
 695 333 l 2
 695 416 654 469 577 469 c 0
 481 469 436 382 436 297 c 2
 436 0 l 1
 383 0 l 1
 383 333 l 2
 383 437 308 469 254 469 c 0
 149 469 123 364 123 297 c 2
 123 0 l 1
 69 0 l 1
 69 398 l 2
 69 454 63 467 46 504 c 1
 97 523 l 1
 114 493 120 475 123 433 c 1
 148 481 201 522 268 522 c 0
 340 522 399 479 420 416 c 1
 443 476 503 522 577 522 c 0
EndSplineSet
EndChar
StartChar: n
Encoding: 110 110 79
Width: 509
VWidth: 1494
Flags: W
HStem: 0 21G<69 124 407.5 466> 468 55<192.07 340.224>
VStem: 69 55<0 391.268 429 501.195> 393 54<44.4021 413.051>
Fore
263 468 m 0
 181 468 124 395 124 299 c 2
 124 0 l 1
 69 0 l 1
 69 399 l 2
 69 466 53 484 46 504 c 1
 97 523 l 1
 120 481 123 469 123 429 c 1
 162 510 241 523 274 523 c 0
 420 523 447 388 447 332 c 2
 447 88 l 2
 447 45 463 6 466 4 c 1
 417 -15 l 1
 398 28 393 47 393 88 c 2
 393 333 l 2
 393 441 318 468 263 468 c 0
EndSplineSet
EndChar
StartChar: o
Encoding: 111 111 80
Width: 491
VWidth: 1494
Flags: W
HStem: -12 48<173.422 319.103> 472 48<173.208 316.306>
VStem: 31 53<143.373 364.626> 407 53<145.973 361.588>
Fore
31 254 m 256
 31 379 97 520 245 520 c 256
 393 520 460 380 460 254 c 256
 460 128 393 -12 245 -12 c 256
 97 -12 31 130 31 254 c 256
84 254 m 256
 84 150 138 36 245 36 c 256
 359 36 407 161 407 254 c 0
 407 345 359 472 245 472 c 256
 137 472 84 357 84 254 c 256
EndSplineSet
EndChar
StartChar: p
Encoding: 112 112 81
Width: 533
VWidth: 1494
Flags: W
HStem: -235 21G<40 101> -13 53<224.063 355.921> 471 54<203.896 355.921>
VStem: 60 55<-174.402 79 148.669 366.022 428 500.304> 445 51<144.831 369.645>
Fore
115 226 m 1
 120 193 149 40 283 40 c 0
 380 40 445 133 445 256 c 256
 445 380 380 471 283 471 c 0
 149 471 119 327 115 284 c 2
 115 226 l 1
40 -215 m 1
 45 -213 60 -170 60 -132 c 2
 60 393 l 2
 60 443 56 464 37 504 c 1
 87 523 l 1
 103 487 114 485 114 428 c 1
 133 461 182 525 283 525 c 0
 411 525 496 411 496 256 c 0
 496 98 411 -13 283 -13 c 0
 245 -13 168 -6 115 79 c 1
 115 -132 l 2
 115 -162 111 -198 91 -235 c 1
 40 -215 l 1
EndSplineSet
EndChar
StartChar: q
Encoding: 113 113 82
Width: 541
VWidth: 1494
Flags: W
HStem: -235 21G<439.5 499> -13 53<182.654 315.501> 471 54<182.654 333.852>
VStem: 43 51<146.467 364.939> 425 55<-175.63 79 148.669 226 226 365.404 426 465.895>
Fore
94 256 m 256
 94 159 142 40 257 40 c 0
 391 40 420 193 425 226 c 1
 425 284 l 2
 418 361 370 471 257 471 c 0
 142 471 94 353 94 256 c 256
502 504 m 1
 485 462 480 448 480 393 c 2
 480 -132 l 2
 480 -169 495 -214 499 -215 c 1
 448 -235 l 1
 431 -197 425 -173 425 -132 c 2
 425 79 l 1
 372 -6 293 -13 257 -13 c 0
 109 -13 43 127 43 256 c 0
 43 383 109 525 257 525 c 0
 358 525 408 456 426 426 c 1
 426 455 430 476 436 492 c 2
 451 523 l 1
 502 504 l 1
EndSplineSet
EndChar
StartChar: r
Encoding: 114 114 83
Width: 331
VWidth: 1494
Flags: W
HStem: 0 21G<70 126> 469 59<191.679 285.299>
VStem: 70 56<0 391.248 410.282 446.561>
Fore
253 469 m 0
 202 469 132 427 126 287 c 2
 126 0 l 1
 70 0 l 1
 70 393 l 2
 70 443 66 461 48 504 c 1
 97 523 l 1
 104 508 l 2
 114 488 122 451 122 429 c 0
 122 423 122 416 121 410 c 1
 131 475 177 528 255 528 c 0
 278 528 304 523 333 510 c 1
 305 457 l 1
 290 465 273 469 253 469 c 0
EndSplineSet
EndChar
StartChar: s
Encoding: 115 115 84
Width: 424
VWidth: 1494
Flags: W
HStem: -13 49<138.142 300.248> 477 52<131.942 273.211>
VStem: 40 59<342.594 446.003> 341 57<73.4594 175.937>
Fore
209 477 m 0
 123 477 99 426 99 392 c 0
 99 267 398 299 398 133 c 0
 398 75 367 -11 209 -13 c 0
 95 -13 44 34 19 55 c 1
 58 96 l 1
 121 36 182 36 201 36 c 0
 314 36 341 88 341 123 c 0
 341 228 179 214 80 300 c 0
 54 324 40 352 40 384 c 0
 40 442 86 529 211 529 c 0
 242 529 304 518 365 483 c 1
 341 433 l 1
 335 438 277 477 209 477 c 0
EndSplineSet
EndChar
StartChar: t
Encoding: 116 116 85
Width: 298
VWidth: 1494
Flags: W
HStem: -13 52<158.998 237.779> 475 45<22 93 146 256>
VStem: 93 53<51.6562 475 520 649>
Fore
146 114 m 2
 146 72 156 39 217 39 c 0
 235 39 241 44 263 51 c 1
 280 0 l 1
 237 -9 230 -13 208 -13 c 0
 96 -13 93 58 93 136 c 2
 93 475 l 1
 10 475 l 1
 22 520 l 1
 93 520 l 1
 93 649 l 1
 127 676 l 1
 146 676 l 1
 146 520 l 1
 268 520 l 1
 256 475 l 1
 146 475 l 1
 146 114 l 2
EndSplineSet
EndChar
StartChar: u
Encoding: 117 117 86
Width: 530
VWidth: 1494
Flags: W
HStem: -13 49<179.942 303.988> 500 20G<66 120 401 456>
VStem: 66 54<97.8287 520> 401 55<2.99753 75 121.831 520>
Fore
256 36 m 0
 345 36 401 126 401 211 c 2
 401 520 l 1
 456 520 l 1
 456 112 l 2
 456 62 460 44 478 1 c 1
 429 -18 l 1
 415 13 402 15 402 75 c 1
 365 -4 275 -13 245 -13 c 0
 102 -13 66 115 66 178 c 2
 66 520 l 1
 120 520 l 1
 120 176 l 2
 120 82 186 36 256 36 c 0
EndSplineSet
EndChar
StartChar: v
Encoding: 118 118 87
Width: 500
VWidth: 1494
Flags: W
HStem: -15 21G<243 258> 508 20G<28 91.4775 406.613 471>
VStem: 28 443<517 517 517 517>
Fore
213 9 m 0
 213 14 216 18 218 22 c 1
 28 517 l 1
 84 528 l 1
 250 84 l 1
 414 528 l 1
 471 517 l 1
 277 12 274 3 274 0 c 1
 271 -10 264 -15 252 -15 c 0
 234 -15 213 -2 213 9 c 0
EndSplineSet
EndChar
StartChar: w
Encoding: 119 119 88
Width: 777
VWidth: 1494
Flags: W
HStem: -8 21G<211 224.5 548.5 562> 512 20<30 91.1778 384.5 406 682.85 744>
Fore
217 -8 m 0
 205 -8 180 -4 180 10 c 0
 180 14 185 28 185 30 c 1
 30 519 l 1
 85 532 l 1
 224 82 l 1
 369 516 l 1
 374 525 382 526 387 526 c 1
 406 522 l 2
 417 519 425 511 425 504 c 0
 425 501 425 499 423 496 c 1
 419 477 l 1
 550 82 l 1
 689 534 l 1
 744 520 l 1
 587 30 l 1
 590 22 593 12 593 10 c 0
 593 -4 568 -8 556 -8 c 0
 541 -8 525 -3 525 12 c 1
 387 413 l 1
 248 12 l 1
 248 -3 232 -8 217 -8 c 0
EndSplineSet
EndChar
StartChar: x
Encoding: 120 120 89
Width: 496
VWidth: 1494
Flags: W
HStem: -9 21G<50.3529 92.8899 402.022 443.471> 517 20G<47.875 90.3698 402.714 445.125>
VStem: 31 431<25 25 25 25>
Fore
278 259 m 1
 462 25 l 1
 417 -9 l 1
 247 218 l 1
 78 -9 l 1
 31 25 l 1
 214 259 l 1
 31 505 l 1
 76 537 l 1
 247 299 l 1
 417 537 l 1
 462 505 l 1
 278 259 l 1
EndSplineSet
EndChar
StartChar: y
Encoding: 121 121 90
Width: 517
VWidth: 1494
Flags: W
HStem: -235 21G<84.3333 100> 515 20G<40 93.0617 428.599 477.667>
VStem: 31 455<511 511 511 511>
Fore
75 -187 m 1
 183 -141 193 -134 236 15 c 1
 31 511 l 1
 85 535 l 1
 268 81 l 1
 436 535 l 1
 486 511 l 1
 235 -147 248 -118 224 -152 c 0
 179 -214 109 -224 91 -235 c 1
 75 -187 l 1
EndSplineSet
EndChar
StartChar: z
Encoding: 122 122 91
Width: 464
VWidth: 1494
Flags: MW
HStem: 0 52<28.2812 46 114 432> 466 54<48 350 419 435.694>
Fore
436 494 m 0
 436 482 433 466 419 466 c 1
 114 52 l 1
 432 52 l 1
 432 0 l 1
 46 0 l 2
 32 0 28 17 28 26 c 0
 28 38 34 52 46 52 c 1
 350 466 l 1
 48 466 l 1
 48 520 l 1
 419 520 l 2
 433 520 436 504 436 494 c 0
EndSplineSet
EndChar
StartChar: braceleft
Encoding: 123 123 92
Width: 273
VWidth: 1494
Flags: MW
HStem: -152 19<173 208> 753 20<173 208>
VStem: 82 51<-104.416 288.34 357.219 724.531>
Fore
85 309 m 1
 101 309 133 265 133 232 c 2
 133 -84 l 2
 133 -104 139 -122 173 -130 c 1
 208 -133 l 1
 223 -152 l 1
 151 -152 l 2
 108 -152 82 -115 82 -82 c 2
 82 239 l 2
 82 287 58 295 48 299 c 1
 49 321 l 1
 79 335 82 369 82 381 c 2
 82 703 l 2
 82 734 107 773 151 773 c 2
 223 773 l 1
 208 753 l 1
 173 750 l 1
 138 741 133 723 133 704 c 2
 133 389 l 2
 133 359 106 316 85 309 c 1
EndSplineSet
EndChar
StartChar: bar
Encoding: 124 124 93
Width: 194
VWidth: 1494
Flags: W
HStem: 0 709<82 124 82 124 82 82>
VStem: 82 42<0 709>
Fore
124 709 m 1
 124 0 l 1
 82 0 l 1
 82 709 l 1
 124 709 l 1
EndSplineSet
EndChar
StartChar: braceright
Encoding: 125 125 94
Width: 281
VWidth: 1494
Flags: W
HStem: -152 19<69 103> 753 20<69 103>
VStem: 144 50<-103.726 -84 -84 288.156 332.362 723.726>
Fore
194 -82 m 2
 194 -115 169 -152 126 -152 c 2
 54 -152 l 1
 69 -133 l 1
 103 -130 l 1
 138 -121 144 -103 144 -84 c 2
 144 232 l 2
 144 269 179 309 191 309 c 1
 173 315 144 357 144 389 c 2
 144 704 l 2
 144 723 138 741 103 750 c 1
 69 753 l 1
 54 773 l 1
 126 773 l 2
 174 773 194 729 194 703 c 2
 194 381 l 2
 194 354 208 331 227 321 c 1
 229 299 l 1
 220 296 194 287 194 239 c 2
 194 -82 l 2
EndSplineSet
EndChar
StartChar: asciitilde
Encoding: 126 126 95
Width: 606
VWidth: 1494
Flags: MW
HStem: 197 57<338.637 465.671> 265 58<148.158 279.309>
Fore
416 254 m 0
 456 254 495 300 514 338 c 1
 550 297 l 1
 506 218 464 197 413 197 c 0
 340 197 270 265 205 265 c 0
 177 265 141 257 96 176 c 1
 64 227 l 1
 77 246 120 323 203 323 c 0
 266 323 355 254 416 254 c 0
EndSplineSet
EndChar
StartChar: uni0E33.alt1
Encoding: 65539 -1 96
Width: 521
VWidth: 1494
Flags: W
HStem: 0 21<378 436> 504 20<423.5 434> 556 54<162.862 327.449> 732 53<-344.032 -249.971> 900 52<-344.34 -249.521>
VStem: -410 52<799.033 886.146> -237 53<798.4 886.779> 39 55<395.485 490.125> 378 58<0 463.893>
Back
-410 803 m 0
 -410 833 -399.167 858.667 -377.5 880 c 128
 -355.833 901.333 -329.667 912 -299 912 c 0
 -269 912 -243.333 901.333 -222 880 c 128
 -200.667 858.667 -190 833 -190 803 c 0
 -190 771.667 -200.667 745.333 -222 724 c 128
 -243.333 702.667 -269 692 -299 692 c 0
 -329.667 692 -355.833 702.667 -377.5 724 c 128
 -399.167 745.333 -410 771.667 -410 803 c 0
-299 744 m 0
 -283 744 -269.5 749.5 -258.5 760.5 c 128
 -247.5 771.5 -242 785.667 -242 803 c 0
 -242 819 -247.5 832.5 -258.5 843.5 c 128
 -269.5 854.5 -283 860 -299 860 c 0
 -315.667 860 -329.5 854.5 -340.5 843.5 c 128
 -351.5 832.5 -357 819 -357 803 c 0
 -357 785.667 -351.5 771.5 -340.5 760.5 c 128
 -329.5 749.5 -315.667 744 -299 744 c 0
436 0 m 1
 378 0 l 1
 378 447 l 2
 378 459.667 380.667 470 386 478 c 1
 382 485.333 376 493.5 368 502.5 c 128
 360 511.5 350 520 338 528 c 128
 326 536 311.5 542.667 294.5 548 c 128
 277.5 553.333 258.667 556 238 556 c 0
 192 556 157.833 540.5 135.5 509.5 c 128
 113.167 478.5 99.3333 439.333 94 392 c 1
 39 392 l 1
 41 422.667 46.6667 451.167 56 477.5 c 128
 65.3333 503.833 78.3333 526.667 95 546 c 128
 111.667 565.333 131.833 580.833 155.5 592.5 c 128
 179.167 604.167 206.667 610 238 610 c 0
 262.667 610 285 607.167 305 601.5 c 128
 325 595.833 342.5 588.833 357.5 580.5 c 128
 372.5 572.167 385.167 562.833 395.5 552.5 c 128
 405.833 542.167 413.667 532 419 522 c 1
 421 524 424.667 524.5 430 523.5 c 128
 435.333 522.5 442 518 450 510 c 0
 458.667 498.667 462 490.5 460 485.5 c 128
 458 480.5 453.667 474.667 447 468 c 256
 439.667 460.667 436 450 436 436 c 2
 436 0 l 1
EndSplineSet
Refer: 261 3634 N 1 0 0 1 0 0 2
Refer: 284 3661 N 1 0 0 1 -150 0 2
EndChar
StartChar: quotedbl
Encoding: 34 34 97
Width: 300
VWidth: 1494
Flags: W
HStem: 460 241<66 106 196 236>
VStem: 66 40<462.485 488.008> 196 40<462.485 488.008>
Fore
236 460 m 1
 196 460 l 1
 181 701 l 1
 251 701 l 1
 236 460 l 1
106 460 m 1
 66 460 l 1
 51 701 l 1
 121 701 l 1
 106 460 l 1
EndSplineSet
EndChar
StartChar: exclam
Encoding: 33 33 98
Width: 340
VWidth: 1494
Flags: W
HStem: 0 99<132.122 215.932> 689 20G<138 211>
VStem: 124 100<8.61883 90.8389> 138 73<563.615 709> 151 48<169 314.385>
Fore
151 169 m 1xc8
 138 709 l 1
 211 709 l 1xd0
 199 169 l 1
 151 169 l 1xc8
176 99 m 0
 202 99 224 80 224 51 c 0
 224 20 203 0 176 0 c 0
 147 0 124 19 124 51 c 0xe0
 124 80 147 99 176 99 c 0
EndSplineSet
EndChar
StartChar: uni0E4E.alt1
Encoding: 65540 -1 99
Width: 0
VWidth: 1494
Flags: W
HStem: 659 35<-308.766 -234.288 -239.494 -229.082 -229.082 -218> 981 13<-184.511 -148 -148 -136>
VStem: -378 61<705.176 784.401> -291 55<863.018 939.525>
Back
-100 988 m 1
 -130.667 987.333 -159.833 979 -187.5 963 c 128
 -215.167 947 -228.667 926.667 -228 902 c 128
 -227.333 877.333 -211.667 861.667 -181 855 c 1
 -191 821 l 1
 -267 821 -309 799 -317 755 c 1
 -317 727 -303.5 711.5 -276.5 708.5 c 128
 -249.5 705.5 -226 709.333 -206 720 c 1
 -218 665 l 1
 -254 652.333 -289.5 652 -324.5 664 c 128
 -359.5 676 -377.333 704.333 -378 749 c 1
 -370 807.667 -327.333 841.667 -250 851 c 1
 -277.333 879.667 -287.833 906.167 -281.5 930.5 c 128
 -275.167 954.833 -258.5 973 -231.5 985 c 128
 -204.5 997 -170.333 1002.67 -129 1002 c 1
 -100 988 l 1
EndSplineSet
Refer: 285 3662 N 1 0 0 1 -57 0 2
EndChar
StartChar: exclamdown
Encoding: 161 161 100
Width: 231
VWidth: 1494
Flags: W
HStem: 419 98<72.332 156.358>
VStem: 64 100<427.559 508.56> 78 73<-197 -51.8846> 91 48<196.885 342>
Fore
139 342 m 1x90
 151 -197 l 1
 78 -197 l 1xa0
 91 342 l 1
 139 342 l 1x90
117 517 m 0
 142 517 164 498 164 469 c 0
 164 439 143 419 117 419 c 0
 86 419 64 439 64 469 c 0xc0
 64 497 85 517 117 517 c 0
EndSplineSet
EndChar
StartChar: cent
Encoding: 162 162 101
Width: 494
VWidth: 1494
Flags: W
HStem: 0 21G<262 293> 87 54<242.73 262 293 371.329> 559 54<298.168 378.445>
VStem: 66 54<236.138 460.057> 262 31<0 85 141 558 613 689>
Fore
66 350 m 256
 66 579 230 610 262 611 c 1
 262 689 l 1
 293 689 l 1
 293 613 l 1
 345 608 387 591 419 561 c 1
 395 507 l 1
 387 517 357 552 293 559 c 1
 293 139 l 1
 337 139 371 153 396 184 c 1
 429 148 l 1
 413 127 378 89 293 85 c 1
 293 0 l 1
 262 0 l 1
 262 87 l 1
 251 89 66 103 66 350 c 256
262 558 m 1
 169 543 120 462 120 350 c 0
 120 149 262 141 262 141 c 1
 262 558 l 1
EndSplineSet
EndChar
StartChar: sterling
Encoding: 163 163 102
Width: 571
VWidth: 1494
Flags: W
HStem: 0 51<155 516> 333 45<76 187 247 396> 607 21G<473.5 490.13> 664 48<271.45 435.288>
VStem: 157 54<409.208 600.969> 200 52<153.749 298.219 278.642 317.797 317.797 333>
Fore
157 510 m 0xf8
 157 672 271 712 356 712 c 0
 429 712 485 671 502 653 c 1
 481 607 l 1
 466 626 417 664 354 664 c 0
 261 664 211 603 211 521 c 0xf8
 211 462 230 428 241 378 c 1
 408 378 l 1
 396 333 l 1
 247 333 l 1
 251 314 252 295 252 274 c 0
 252 183 216 94 155 51 c 1
 516 51 l 1
 516 0 l 1
 63 0 l 1
 63 37 l 1
 136 78 200 138 200 251 c 0xf4
 200 277 197 304 193 333 c 1
 64 333 l 1
 76 378 l 1
 187 378 l 1
 175 431 157 457 157 510 c 0xf8
EndSplineSet
EndChar
StartChar: currency
Encoding: 164 164 103
Width: 657
VWidth: 1494
Flags: W
HStem: 154 48<254.602 406.777> 490 48<253.805 407.425>
VStem: 139 48<269.979 422.832> 474 48<289.006 401.096>
Fore
480 466 m 1
 523 406 522 357 522 345 c 256
 522 333 523 281 477 224 c 1
 567 136 l 1
 538 108 l 1
 448 194 l 1
 419 172 379 154 330 154 c 256
 281 154 240 174 211 197 c 1
 118 108 l 1
 91 136 l 1
 181 226 l 1
 159 255 139 297 139 345 c 0
 139 391 152 430 179 463 c 1
 91 552 l 1
 118 580 l 1
 208 493 l 1
 238 519 281 538 330 538 c 256
 378 538 419 519 450 495 c 1
 538 580 l 1
 567 552 l 1
 480 466 l 1
187 345 m 0
 187 266 250 202 330 202 c 256
 413 202 474 268 474 345 c 0
 474 430 409 490 330 490 c 256
 252 490 187 430 187 345 c 0
EndSplineSet
EndChar
StartChar: yen
Encoding: 165 165 104
Width: 571
VWidth: 1494
Flags: W
HStem: -4 21G<254 312> 200 47<76 254 312 495> 339 42<76 218 348 495> 698 20G<50 94.1791 486.5 522>
VStem: 254 58<-4 200 247 320>
Fore
348 381 m 1
 495 381 l 1
 495 339 l 1
 323 339 l 1
 312 320 l 1
 312 247 l 1
 495 247 l 1
 495 200 l 1
 312 200 l 1
 312 -4 l 1
 254 -4 l 1
 254 200 l 1
 76 200 l 1
 76 247 l 1
 254 247 l 1
 254 320 l 1
 244 339 l 1
 76 339 l 1
 76 381 l 1
 218 381 l 1
 32 687 35 687 34 688 c 1
 82 718 l 1
 286 383 l 1
 486 720 483 705 490 718 c 1
 538 688 l 1
 348 381 l 1
EndSplineSet
EndChar
StartChar: brokenbar
Encoding: 166 166 105
Width: 261
VWidth: 1494
Flags: W
HStem: 695 20G<106 158>
VStem: 106 52<-190 178 347 715>
Fore
158 347 m 1
 106 347 l 1
 106 715 l 1
 158 715 l 1
 158 347 l 1
158 -190 m 1
 106 -190 l 1
 106 178 l 1
 158 178 l 1
 158 -190 l 1
EndSplineSet
EndChar
StartChar: section
Encoding: 167 167 106
Width: 571
VWidth: 1494
Flags: W
HStem: -60 47<169.382 359.679> 688 43<215.117 390.47>
VStem: 84 48<333.285 443.05> 118 54<537.506 647.366> 407 52<32.0253 154.904> 436 50<267.844 367.31>
Fore
407 91 m 0xc8
 407 260 84 191 84 381 c 0xe8
 84 440 124 479 152 502 c 1
 133 520 118 550 118 584 c 0
 118 678 198 731 300 731 c 0
 362 731 412 714 450 692 c 1
 423 647 l 1
 392 670 347 688 293 688 c 0
 226 688 172 650 172 593 c 0
 172 448 486 503 486 321 c 0xd4
 486 292 482 248 423 191 c 1
 439 176 459 141 459 99 c 0
 459 -7 368 -60 268 -60 c 0
 200 -60 145 -42 111 -10 c 1
 135 33 l 1
 152 15 196 -13 271 -13 c 0
 355 -13 407 29 407 91 c 0xc8
390 220 m 1
 412 243 436 276 436 314 c 0xe4
 436 414 272 426 187 477 c 1
 150 447 132 416 132 384 c 0
 132 278 343 256 390 220 c 1
EndSplineSet
EndChar
StartChar: dieresis
Encoding: 168 168 107
Width: 346
VWidth: 1494
Flags: W
HStem: 601 94<39.6028 120.056 224.897 305.103>
VStem: 33 94<628.355 687.808> 218 94<606.823 688.63>
Fore
79 601 m 256
 42 601 33 629 33 647 c 256
 33 676 51 695 79 695 c 256
 108 695 127 675 127 647 c 256
 127 619 108 601 79 601 c 256
265 601 m 256
 237 601 218 618 218 647 c 256
 218 676 237 695 265 695 c 256
 293 695 312 676 312 647 c 256
 312 618 293 601 265 601 c 256
EndSplineSet
EndChar
StartChar: copyright
Encoding: 169 169 108
Width: 801
VWidth: 1494
Flags: W
HStem: -22 44<295.639 508.792> 110 48<333.642 493.411> 534 48<336.218 489.102> 683 43<293.68 511.967>
VStem: 42 45<234.753 472.078> 208 49<243.943 447.258> 718 43<235.554 470.186>
Fore
42 353 m 0
 42 555 203 726 402 726 c 0
 599 726 761 558 761 353 c 0
 761 144 597 -22 402 -22 c 0
 206 -22 42 144 42 353 c 0
87 353 m 256
 87 166 232 22 402 22 c 256
 575 22 718 170 718 353 c 256
 718 521 589 683 402 683 c 256
 225 683 87 533 87 353 c 256
416 158 m 0
 478 158 512 193 519 200 c 1
 552 161 l 1
 514 124 457 110 415 110 c 0
 349 110 208 148 208 347 c 0
 208 537 341 582 409 582 c 0
 475 582 518 552 540 532 c 1
 517 489 l 1
 494 514 460 534 412 534 c 0
 329 534 257 470 257 347 c 256
 257 247 306 158 416 158 c 0
EndSplineSet
EndChar
StartChar: ordfeminine
Encoding: 170 170 109
Width: 376
VWidth: 1494
Flags: W
HStem: 280 47<119.266 232.49> 573 47<120.121 217.977>
VStem: 36 45<367.605 530.953> 278 40<290 339 385.344 522.156 561 620>
Fore
278 339 m 1
 258 305 224 280 172 280 c 0
 63 280 36 386 36 450 c 256
 36 533 77 620 172 620 c 0
 198 620 242 615 277 561 c 1
 277 620 l 1
 318 620 l 1
 318 338 l 1
 321 290 l 1
 278 290 l 1
 278 339 l 1
271 456 m 0
 271 517 239 573 175 573 c 0
 108 573 81 505 81 450 c 0
 81 393 108 327 175 327 c 0
 252 327 269 406 271 456 c 0
EndSplineSet
EndChar
StartChar: guillemotleft
Encoding: 171 171 110
Width: 448
VWidth: 1494
Flags: MW
Fore
178 462 m 1
 238 462 l 1
 103 253 l 1
 238 43 l 1
 178 43 l 1
 55 239 l 2
 52 244 52 248 52 253 c 0
 52 257 53 262 55 266 c 2
 178 462 l 1
338 462 m 1
 398 462 l 1
 263 253 l 1
 398 43 l 1
 338 43 l 1
 215 239 l 2
 212 244 212 248 212 253 c 0
 212 257 213 262 215 266 c 2
 338 462 l 1
EndSplineSet
EndChar
StartChar: logicalnot
Encoding: 172 172 111
Width: 611
VWidth: 1494
Flags: MW
HStem: 368 54<42 507>
VStem: 507 58<139 368>
Fore
507 139 m 1
 507 368 l 1
 42 368 l 1
 42 422 l 1
 565 422 l 1
 565 139 l 1
 507 139 l 1
EndSplineSet
EndChar
StartChar: registered
Encoding: 174 174 112
Width: 804
VWidth: 1494
Flags: W
HStem: -21 43<292.909 508.472> 302 34<318 399> 538 36<318 470.117> 685 43<293.764 508.528>
VStem: 42 43<236.968 468.831> 281 36<120 302 336 537.501> 513 37<377.52 499.038> 716 43<237.264 468.741>
Fore
42 353 m 256
 42 564 209 728 401 728 c 0
 583 728 759 574 759 353 c 256
 759 139 592 -21 401 -21 c 0
 199 -21 42 150 42 353 c 256
85 353 m 256
 85 171 228 22 401 22 c 256
 564 22 716 161 716 353 c 256
 716 538 570 685 401 685 c 256
 223 685 85 529 85 353 c 256
383 574 m 2
 461 574 550 547 550 438 c 0
 550 359 500 322 445 306 c 1
 565 121 l 1
 523 112 l 1
 399 302 l 1
 317 302 l 1
 317 120 l 1
 281 120 l 1
 281 535 l 2
 281 549 265 552 265 564 c 0
 265 571 277 580 288 580 c 0
 292 580 298 578 305 574 c 1
 383 574 l 2
384 336 m 2
 491 336 513 400 513 439 c 0
 513 479 490 538 383 538 c 2
 318 538 l 1
 318 336 l 1
 384 336 l 2
EndSplineSet
EndChar
StartChar: macron
Encoding: 175 175 113
Width: 322
VWidth: 1494
Flags: W
HStem: 631 48<42 280 42 280 42 42>
Fore
42 631 m 1
 42 679 l 1
 280 679 l 1
 280 631 l 1
 42 631 l 1
EndSplineSet
EndChar
StartChar: degree
Encoding: 176 176 114
Width: 322
VWidth: 1494
Flags: W
HStem: 463 41<104.039 217.89> 676 39<106.279 215.539>
VStem: 36 40<532.131 646.287> 247 40<532.234 645.776>
Fore
36 589 m 0
 36 659 91 715 161 715 c 256
 235 715 287 657 287 589 c 256
 287 521 235 463 161 463 c 256
 91 463 37 519 36 589 c 0
76 589 m 0
 76 539 115 504 161 504 c 0
 207 504 247 539 247 589 c 0
 247 633 210 676 161 676 c 0
 113 676 75 634 76 589 c 0
EndSplineSet
EndChar
StartChar: plusminus
Encoding: 177 177 115
Width: 605
VWidth: 1494
Flags: MW
HStem: 0 52<64 543> 336 57<64 275 333 543> 584 20G<275 333>
VStem: 275 58<124 336 393 604>
Fore
543 336 m 1
 333 336 l 1
 333 124 l 1
 275 124 l 1
 275 336 l 1
 64 336 l 1
 64 393 l 1
 275 393 l 1
 275 604 l 1
 333 604 l 1
 333 393 l 1
 543 393 l 1
 543 336 l 1
543 0 m 1
 64 0 l 1
 64 52 l 1
 543 52 l 1
 543 0 l 1
EndSplineSet
EndChar
StartChar: twosuperior
Encoding: 178 178 116
Width: 387
VWidth: 1494
Flags: W
HStem: 284 52<65.4844 78 138 294> 662 50<147.574 254.334>
VStem: 81 48<558 561.835 561.835 567.965 564.9 639.503> 278 52<517.3 638.461>
Fore
77 584 m 0
 77 660 131 712 199 712 c 0
 259 712 330 672 330 577 c 0
 330 515 276 453 238 422 c 2
 159 357 l 2
 152 351 145 344 138 336 c 1
 294 336 l 1
 308 363 l 1
 313 363 327 355 356 347 c 1
 326 284 l 1
 82 284 l 2
 66 284 58 291 58 305 c 0
 58 312 62 325 64 330 c 0
 65 334 70 336 78 336 c 1
 133 424 278 486 278 578 c 0
 278 628 247 662 201 662 c 0
 154 662 125 625 125 587 c 0
 125 578 126 568 129 558 c 1
 81 544 l 1
 78 558 77 571 77 584 c 0
EndSplineSet
EndChar
StartChar: threesuperior
Encoding: 179 179 117
Width: 388
VWidth: 1494
Flags: W
HStem: 276 47<138.194 254.74> 530 41<223 264.578> 602 21G<78 106.5> 658 51<118 236 303.094 318.908>
VStem: 40 48<337.322 410> 296 47<363.184 497.928>
Fore
99 602 m 1
 57 622 57 622 57 623 c 2
 81 709 l 1
 309 709 l 2
 317 709 326 702 326 692 c 0
 326 687 324 657 309 657 c 0
 307 657 305 657 303 658 c 1
 223 571 l 1
 324 571 343 485 343 438 c 0
 343 354 292 276 200 276 c 0
 128 276 59 328 40 410 c 1
 88 425 l 1
 107 356 153 323 196 323 c 0
 254 323 296 373 296 432 c 0
 296 477 265 530 217 530 c 0
 178 530 167 493 152 493 c 0
 141 493 122 515 122 522 c 0
 122 526 125 529 129 534 c 2
 236 658 l 1
 118 658 l 1
 116 652 113 642 108 626 c 2
 99 602 l 1
EndSplineSet
EndChar
StartChar: acute
Encoding: 180 180 118
Width: 322
VWidth: 1494
Flags: W
HStem: 577 155<167 221 221 221>
Fore
167 577 m 1
 121 577 l 1
 221 732 l 1
 309 732 l 1
 167 577 l 1
EndSplineSet
EndChar
StartChar: mu
Encoding: 181 181 119
Width: 575
VWidth: 1494
Flags: W
HStem: -13 49<201.602 325.595> 503 20G<87 142 423 478>
VStem: 87 55<-247 36 95.9969 523> 423 55<48.2453 75 120.912 523>
Fore
278 36 m 0
 373 36 423 132 423 211 c 2
 423 523 l 1
 478 523 l 1
 478 112 l 2
 478 67 480 33 495 1 c 1
 445 -18 l 1
 434 8 425 24 425 75 c 1
 386 -5 296 -13 268 -13 c 0
 210 -13 170 8 142 36 c 1
 141 -247 l 1
 87 -247 l 1
 87 523 l 1
 142 523 l 1
 142 176 l 2
 142 82 208 36 278 36 c 0
EndSplineSet
EndChar
StartChar: paragraph
Encoding: 182 182 120
Width: 571
VWidth: 1494
Flags: W
HStem: 673 37<321 399 444 498>
VStem: 34 287<429.987 613.812> 278 43<-182 338> 399 45<-182 673>
Fore
34 520 m 256xd0
 34 672 151 710 245 710 c 2
 498 710 l 1
 498 673 l 1
 444 673 l 1
 444 -182 l 1
 399 -184 l 1
 399 673 l 1
 321 673 l 1
 321 -182 l 1
 278 -182 l 1
 278 338 l 1xb0
 245 338 l 2
 133 338 34 394 34 520 c 256xd0
EndSplineSet
EndChar
StartChar: periodcentered
Encoding: 183 183 121
Width: 343
VWidth: 1494
Flags: W
HStem: 248 200<114.942 241.058>
VStem: 78 200<284.942 411.058>
Fore
178 248 m 256
 119.653 248 78 293.432 78 348 c 256
 78 406.347 123.432 448 178 448 c 256
 236.347 448 278 402.568 278 348 c 256
 278 289.653 232.568 248 178 248 c 256
EndSplineSet
EndChar
StartChar: cedilla
Encoding: 184 184 122
Width: 322
VWidth: 1494
Flags: W
HStem: -212 46<92.5217 168.597>
VStem: 185 54<-159.646 -101.773>
Fore
160 -52 m 1
 188 -58 239 -77 239 -124 c 0
 239 -196 167 -212 121 -212 c 0
 113 -212 71 -210 48 -194 c 1
 67 -151 l 1
 86 -161 104 -166 129 -166 c 0
 148 -166 185 -161 185 -133 c 0
 185 -105 160 -92 90 -87 c 1
 145 6 l 1
 202 6 l 1
 160 -52 l 1
EndSplineSet
EndChar
StartChar: onesuperior
Encoding: 185 185 123
Width: 322
VWidth: 1494
Flags: MW
VStem: 160 49<284 626>
Fore
194 713 m 0
 198 713 229 706 229 686 c 0
 229 680 222 673 209 664 c 1
 209 284 l 1
 160 284 l 1
 160 626 l 1
 100 581 l 1
 67 616 l 1
 181 707 l 2
 184 710 186 713 194 713 c 0
EndSplineSet
EndChar
StartChar: ordmasculine
Encoding: 186 186 124
Width: 376
VWidth: 1494
Flags: W
HStem: 280 44<117.241 262.812> 592 45<115.647 263.06>
VStem: 7 51<382.781 532.61> 320 49<378.719 533.235>
Fore
187 637 m 0
 290 637 369 566 369 460 c 0
 369 335 271 280 187 280 c 0
 78 280 7 359 7 454 c 0
 7 564 94 637 187 637 c 0
188 324 m 0
 233 324 320 349 320 457 c 0
 320 523 276 592 188 592 c 0
 105 592 58 525 58 456 c 0
 58 366 133 324 188 324 c 0
EndSplineSet
EndChar
StartChar: guillemotright
Encoding: 187 187 125
Width: 451
VWidth: 1494
Flags: MW
Fore
393 266 m 2
 396 262 397 257 397 253 c 0
 397 248 396 244 393 239 c 2
 271 43 l 1
 211 43 l 1
 345 253 l 1
 211 462 l 1
 271 462 l 1
 393 266 l 2
233 266 m 2
 236 262 237 257 237 253 c 0
 237 248 236 244 233 239 c 2
 111 43 l 1
 51 43 l 1
 185 253 l 1
 51 462 l 1
 111 462 l 1
 233 266 l 2
EndSplineSet
EndChar
StartChar: onequarter
Encoding: 188 188 126
Width: 828
VWidth: 1494
Flags: W
HStem: -13 21G<160 221 664 715> 91 53<517 664 715 770> 693 20G<181 187 581.055 644>
VStem: 151 49<284 626> 664 51<0 91 144 320>
Fore
185 713 m 0
 189 713 220 706 220 686 c 0
 220 680 213 673 200 664 c 1
 200 284 l 1
 151 284 l 1
 151 626 l 1
 91 581 l 1
 58 616 l 1
 172 707 l 2
 175 710 177 713 185 713 c 0
209 -13 m 1
 160 -13 l 1
 593 712 l 1
 644 712 l 1
 209 -13 l 1
465 91 m 2
 454 91 442 105 442 120 c 0
 442 124 442 130 445 133 c 2
 680 422 l 2
 684 427 688 430 692 430 c 0
 703 430 719 418 719 397 c 0
 719 389 715 394 715 384 c 2
 715 144 l 1
 770 144 l 1
 770 91 l 1
 715 91 l 1
 715 0 l 1
 664 0 l 1
 664 91 l 1
 465 91 l 2
664 320 m 1
 517 144 l 1
 664 144 l 1
 664 320 l 1
EndSplineSet
LCarets2: 2 0 0 
Ligature2: "'frac' Diagonal Fractions in Latin lookup 0 subtable" one fraction four
Ligature2: "'frac' Diagonal Fractions in Latin lookup 0 subtable" one slash four
EndChar
StartChar: onehalf
Encoding: 189 189 127
Width: 846
VWidth: 1494
Flags: W
HStem: -0 52<501.392 514 574 731> 378 49<583.943 691.832> 693 20G<181 187 562.055 625>
VStem: 151 49<284 626> 517 48<274 277.725 277.725 287.546 282.635 356.163> 715 52<232.367 354.24>
Fore
185 713 m 0
 189 713 220 706 220 686 c 0
 220 680 213 673 200 664 c 1
 200 284 l 1
 151 284 l 1
 151 626 l 1
 91 581 l 1
 58 616 l 1
 172 707 l 2
 175 710 177 713 185 713 c 0
191 -13 m 1
 141 -13 l 1
 574 712 l 1
 625 712 l 1
 191 -13 l 1
513 299 m 0
 513 367 559 427 636 427 c 0
 705 427 767 380 767 293 c 0
 767 222 700 158 675 138 c 2
 628 99 l 1
 604 85 592 74 574 52 c 1
 731 52 l 1
 744 79 l 1
 749 79 763 72 792 63 c 1
 762 0 l 1
 518 -0 l 2
 502 -0 494 7 494 20 c 0
 494 26 499 42 500 46 c 0
 501 51 509 52 514 52 c 1
 549 108 605 137 680 216 c 0
 703 240 715 267 715 294 c 0
 715 344 684 378 637 378 c 0
 598 378 562 349 562 301 c 0
 562 293 563 284 565 274 c 1
 517 260 l 1
 514 274 513 286 513 299 c 0
EndSplineSet
LCarets2: 2 0 0 
Ligature2: "'frac' Diagonal Fractions in Latin lookup 0 subtable" one fraction two
Ligature2: "'frac' Diagonal Fractions in Latin lookup 0 subtable" one slash two
EndChar
StartChar: threequarters
Encoding: 190 190 128
Width: 874
VWidth: 1494
Flags: W
HStem: 0 21G<230 294.945 713 764> 91 53<566 713 764 819> 276 47<151.194 267.74> 530 41<236 277.578> 602 21G<91 119.5> 658 51<131 249 316.094 331.908>
VStem: 53 48<337.322 410> 309 47<363.184 497.928> 713 51<0 91 144 320>
Fore
514 91 m 2
 503 91 491 105 491 120 c 0
 491 124 491 130 494 133 c 2
 729 422 l 2
 733 427 737 430 741 430 c 0
 752 430 768 418 768 397 c 0
 768 389 764 394 764 384 c 2
 764 144 l 1
 819 144 l 1
 819 91 l 1
 764 91 l 1
 764 0 l 1
 713 0 l 1
 713 91 l 1
 514 91 l 2
713 320 m 1
 566 144 l 1
 713 144 l 1
 713 320 l 1
112 602 m 1
 70 622 70 622 70 623 c 2
 94 709 l 1
 322 709 l 2
 330 709 339 702 339 692 c 0
 339 687 337 657 322 657 c 0
 320 657 318 657 316 658 c 1
 236 571 l 1
 337 571 356 485 356 438 c 0
 356 354 305 276 213 276 c 0
 141 276 72 328 53 410 c 1
 101 425 l 1
 120 356 166 323 209 323 c 0
 267 323 309 373 309 432 c 0
 309 477 278 530 230 530 c 0
 191 530 180 493 165 493 c 0
 154 493 135 515 135 522 c 0
 135 526 138 529 142 534 c 2
 249 658 l 1
 131 658 l 1
 129 652 126 642 121 626 c 2
 112 602 l 1
283 -13 m 1
 230 -13 l 1
 665 712 l 1
 716 712 l 1
 283 -13 l 1
EndSplineSet
LCarets2: 2 0 0 
Ligature2: "'frac' Diagonal Fractions in Latin lookup 0 subtable" three fraction four
Ligature2: "'frac' Diagonal Fractions in Latin lookup 0 subtable" three slash four
EndChar
StartChar: questiondown
Encoding: 191 191 129
Width: 515
VWidth: 1494
Flags: W
HStem: -220 56<191.242 345.432> 408 111<224.944 314.442>
VStem: 79 63<-114.382 31.0091> 214 112<419.38 507.537> 239 60<205.375 363>
Fore
272 519 m 0xf0
 299 519 326 496 326 465 c 0
 326 428 299 408 272 408 c 0
 237 408 214 431 214 465 c 0
 214 495 238 519 272 519 c 0xf0
462 -91 m 1
 439 -156 382 -220 261 -220 c 0
 131 -220 79 -124 79 -47 c 0
 79 94.2924 239 156.615 239 278 c 2
 239 363 l 1
 299 363 l 1
 299 278 l 2xe8
 299 123 142 77 142 -43 c 0
 142 -85.857 164.822 -164 271 -164 c 0
 353 -164 393 -106 408 -61 c 1
 462 -91 l 1
EndSplineSet
EndChar
StartChar: Aring
Encoding: 197 197 134
Width: 617
VWidth: 1494
Flags: W
HStem: -12 21<9 73.5 536.788 602> 196 49<163 450> 764 45<261.543 349.555> 916 47<261.046 348.237>
VStem: 205 46<818.633 906.122> 359 44<819.366 906.122>
Back
303 764 m 256
 246 764 205 809 205 862 c 256
 205 920 249 963 303 963 c 256
 361 963 404 917 404 862 c 256
 404 808 361 764 303 764 c 256
305 919 m 256
 271 919 248 893 248 862 c 256
 248 832 271 806 305 806 c 256
 339 806 362 833 362 862 c 256
 362 896 336 919 305 919 c 256
352 700 m 0
 352 694 345 686 344 685 c 1
 602 0 l 1
 544 -12 l 1
 469 196 l 1
 144 196 l 1
 66 -12 l 1
 9 0 l 1
 272 692 l 2
 283 719 305 731 313 731 c 0
 332 731 352 705 352 700 c 0
450 245 m 1
 305 622 l 1
 163 245 l 1
 450 245 l 1
EndSplineSet
Refer: 207 730 N 1 0 0 1 97 160 2
Refer: 34 65 N 1 0 0 1 0 0 2
EndChar
StartChar: AE
Encoding: 198 198 135
Width: 841
VWidth: 1494
Flags: W
HStem: 1 59<514 807> 190 54<203 454> 339 59<514 774> 653 59<428 454 514 807>
VStem: 454 60<60 190 244 339 398 652>
Fore
508 1 m 2
 464 1 453 40 453 57 c 2
 454 190 l 1
 175 190 l 1
 54 -10 l 1
 3 16 l 1
 377 664 l 2
 382 674 401 712 438 712 c 2
 809 712 l 1
 807 653 l 1
 514 653 l 1
 514 398 l 1
 774 398 l 1
 776 339 l 1
 514 339 l 1
 514 60 l 1
 807 60 l 1
 807 1 l 1
 508 1 l 2
454 244 m 1
 454 652 l 1
 428 650 l 1
 203 244 l 1
 454 244 l 1
EndSplineSet
EndChar
StartChar: Eth
Encoding: 208 208 145
Width: 711
VWidth: 1494
Flags: W
HStem: 0 58<157 402.194> 332 57<3 99 157 318> 650 59<157 384.5>
VStem: 99 58<58 332 389 650> 575 63<233.37 476.191>
Fore
638 356 m 0
 638 124 485 0 272 0 c 2
 99 0 l 1
 99 332 l 1
 3 332 l 1
 3 389 l 1
 99 389 l 1
 99 650 l 1
 96 669 75 674 75 692 c 0
 75 701 88 722 112 722 c 0
 118 722 126 718 135 709 c 1
 272 709 l 2
 484 709 638 586 638 356 c 0
575 356 m 0
 575 591 396 650 247 650 c 2
 157 650 l 1
 157 389 l 1
 318 389 l 1
 318 332 l 1
 157 332 l 1
 157 58 l 1
 286 58 l 2
 472 58 575 183 575 356 c 0
EndSplineSet
EndChar
StartChar: multiply
Encoding: 215 215 152
Width: 597
VWidth: 1494
Flags: MW
Fore
525 61 m 1
 486 24 l 1
 300 209 l 1
 123 30 l 1
 85 67 l 1
 263 245 l 1
 84 425 l 1
 123 463 l 1
 302 284 l 1
 477 463 l 1
 514 425 l 1
 339 247 l 1
 525 61 l 1
EndSplineSet
EndChar
StartChar: Oslash
Encoding: 216 216 153
Width: 696
VWidth: 1494
Flags: W
HStem: -6 55<257.527 441.1> 677 55<253.549 440.984>
VStem: 64 59<214.407 509.379> 573 59<218.675 512.993>
Fore
64 365 m 0
 64 554 144 732 348 732 c 0
 406 732 456 718 499 689 c 1
 550 783 l 2
 557 794 564 789 578 780 c 2
 596 770 l 2
 600 768 600 764 596 758 c 2
 540 653 l 1
 570 620 632 538 632 365 c 0
 632 64 462 -6 348 -6 c 0
 289 -6 240 8 199 37 c 1
 138 -72 l 2
 130 -84 126 -78 109 -70 c 1
 93 -59 83 -57 91 -46 c 2
 157 72 l 1
 95 139 64 237 64 365 c 0
348 677 m 0
 181 677 123 511 123 365 c 0
 123 301 133 201 188 129 c 1
 469 637 l 1
 436 664 396 677 348 677 c 0
227 90 m 1
 257 67 294 49 348 49 c 0
 528 49 573 244 573 365 c 0
 573 428 562 526 508 598 c 1
 227 90 l 1
EndSplineSet
EndChar
StartChar: Thorn
Encoding: 222 222 159
Width: 588
VWidth: 1494
Flags: W
HStem: 0 21G<81 129> 173 51<129 375.401> 547 46<129 377.375> 706 20G<81 129>
VStem: 81 48<0 173 224 547 593 726> 468 51<300.412 465.41>
Fore
265 593 m 2
 401 593 519 537 519 392 c 0
 519 229 401 173 238 173 c 2
 129 173 l 1
 129 0 l 1
 81 0 l 1
 81 726 l 1
 129 726 l 1
 129 593 l 1
 265 593 l 2
241 224 m 2
 411 224 468 288 468 384 c 0
 468 501 374 547 266 547 c 2
 129 547 l 1
 129 224 l 1
 241 224 l 2
EndSplineSet
EndChar
StartChar: uni00DF
Encoding: 223 223 160
Width: 618
VWidth: 1494
Flags: W
HStem: -13 49<191 391.706> 472 50<179 376.839> 746 37<203.135 366.798>
VStem: 91 48<-238 676.593> 420 49<554.152 694.297> 505 47<153.249 341.897>
Fore
283 783 m 0
 426 783 469 687 469 620 c 0
 469 558 427 499 392 493 c 1
 526 432 552 332 552 251 c 0
 552 117 467 -12 312 -12 c 2
 191 -13 l 1
 191 36 l 1
 299 36 l 2
 426 36 505 137 505 245 c 0
 505 388 390 472 283 472 c 2
 179 472 l 1
 179 522 l 1
 288 522 l 2
 357 522 418 534 420 613 c 0
 425 717 345 746 287 746 c 0
 199 747 139 699 139 573 c 2
 139 -238 l 1
 91 -238 l 1
 91 581 l 2
 91 691 154 783 283 783 c 0
EndSplineSet
EndChar
StartChar: ae
Encoding: 230 230 167
Width: 941
VWidth: 1494
Flags: W
HStem: -19 55<184.399 341.779> 241 56<501 839> 474 55<185.421 320.569> 490 51<608.045 748.65>
VStem: 43 51<145.546 364.697> 435 66<143.382 226 226 241> 435 58<-3 35 35 78 297 366.382 453 531> 839 58<297 391.169>
Fore
493 453 m 1xeb
 556 538 638 541 671 541 c 0
 853 541 897 371 897 278 c 0
 897 244 882 241 854 241 c 2
 501 241 l 1xdd
 501 86 618 49 675 47 c 0
 729 45 758 60 798 87 c 1
 834 39 l 1
 800 16 608 -73 493 78 c 1
 493 73 l 1
 498 -3 l 1
 436 -3 l 1
 435 78 l 1
 414 42 366 -19 262 -19 c 0
 109 -19 43 126 43 256 c 256
 43 385 111 529 262 529 c 0
 301 529 380 522 435 435 c 1
 435 531 l 1
 493 531 l 1
 493 453 l 1xeb
94 256 m 0
 94 182 129 36 262 36 c 0
 374 36 428 139 435 226 c 2xed
 435 286 l 2
 427 369 372 474 262 474 c 0xeb
 142 474 94 346 94 256 c 0
839 297 m 1
 842 388 781 490 668 490 c 0xd9
 532 490 498 353 498 297 c 1
 839 297 l 1
EndSplineSet
EndChar
StartChar: eth
Encoding: 240 240 177
Width: 621
VWidth: 1494
Flags: W
HStem: -13 49<215.509 397.229> 481 50<213.366 374.52>
VStem: 46 56<151.921 356.155> 511 60<154.327 376.814>
Fore
167 783 m 1
 223 759 276 733 324 700 c 1
 466 768 l 1
 487 722 l 1
 368 668 l 1
 435 617 484 555 525 481 c 0
 550 423 571 356 571 272 c 0
 571 82 444 -13 303 -13 c 0
 149 -13 46 104 46 251 c 0
 46 425 180 531 308 531 c 0
 384 531 431 509 477 469 c 1
 440 528 390 585 317 643 c 1
 146 564 l 1
 129 607 l 1
 271 674 l 1
 236 697 188 719 144 734 c 1
 167 783 l 1
302 36 m 0
 415 36 511 113 511 265 c 256
 511 320 501 378 460 422 c 1
 387 480 333 481 308 481 c 0
 172 481 102 369 102 253 c 0
 102 113 201 36 302 36 c 0
EndSplineSet
EndChar
StartChar: divide
Encoding: 247 247 184
Width: 690
VWidth: 1494
Flags: MW
HStem: 37 95<305.596 384.512> 215 59<96 586> 354 94<305.719 384.512>
VStem: 96 490<215 274> 297 95<44.4883 123.281 362.596 440.828>
Fore
586 215 m 1
 96 215 l 1
 96 274 l 1
 586 274 l 1
 586 215 l 1
345 448 m 256
 371 448 392 430 392 402 c 256
 392 377 373 354 345 354 c 256
 318 354 297 378 297 402 c 256
 297 430 320 448 345 448 c 256
345 132 m 256
 373 132 392 109 392 84 c 256
 392 56 371 37 345 37 c 256
 320 37 297 56 297 84 c 256
 297 111 321 132 345 132 c 256
EndSplineSet
EndChar
StartChar: oslash
Encoding: 248 248 185
Width: 524
VWidth: 1494
Flags: W
HStem: 1 54<230.223 333.318> 469 54<193.369 319.599>
VStem: 58 57<185.097 373.506> 414 57<151.242 373.698>
Fore
265 523 m 0
 297 523 337 516 371 492 c 1
 413 565 l 2
 418 575 420 570 435 564 c 1
 447 555 454 554 450 544 c 1
 404 462 l 1
 456 405 471 322 471 263 c 0
 471 144 411 1 265 1 c 0
 227 1 193 10 164 28 c 1
 121 -49 l 1
 117 -59 113 -56 97 -48 c 257
 87 -41 80 -39 85 -28 c 2
 130 55 l 1
 75 113 58 195 58 263 c 0
 58 391 120 523 265 523 c 0
265 469 m 0
 145 469 115 335 115 263 c 0
 115 221 124 157 160 109 c 1
 344 441 l 1
 322 460 296 469 265 469 c 0
265 55 m 0
 373 55 414 172 414 263 c 0
 414 321 398 372 374 408 c 1
 191 79 l 1
 212 63 237 55 265 55 c 0
EndSplineSet
EndChar
StartChar: thorn
Encoding: 254 254 191
Width: 677
VWidth: 1494
Flags: W
HStem: -13 47<256.42 429.217> 483 48<256.589 432.266> 699 20G<82 133>
VStem: 82 51<-212 102 161.361 355.176 414 719> 553 51<163.307 356.245>
Fore
344 -13 m 0
 217 -13 153 71 133 102 c 1
 133 -212 l 1
 82 -212 l 1
 82 719 l 1
 133 719 l 1
 133 414 l 1
 174 477 247 531 344 531 c 0
 487 531 604 412 604 259 c 256
 604 105 489 -13 344 -13 c 0
344 483 m 256
 236 483 135 392 135 259 c 256
 135 123 237 34 344 34 c 256
 450 34 553 126 553 259 c 256
 553 389 452 483 344 483 c 256
EndSplineSet
EndChar
StartChar: Lslash
Encoding: 321 321 193
Width: 475
VWidth: 1494
Flags: MW
HStem: 0 52<149 456> 689 20G<91 149>
VStem: 91 58<52.9393 312 408 709>
Fore
65 17 m 0
 65 31 91 37 91 70 c 2
 91 312 l 1
 -7 247 l 1
 -7 303 l 1
 91 369 l 1
 91 709 l 1
 149 709 l 1
 149 408 l 1
 305 511 l 1
 305 454 l 1
 149 351 l 1
 149 52 l 1
 456 52 l 1
 456 0 l 1
 127 0 l 1
 118 -11 107 -18 102 -18 c 0
 77 -18 65 14 65 17 c 0
EndSplineSet
EndChar
StartChar: lslash
Encoding: 322 322 194
Width: 242
VWidth: 1494
Flags: W
HStem: 0 21G<91 145>
VStem: 91 54<0 350 450 741>
Fore
145 390 m 1
 145 0 l 1
 91 0 l 1
 91 350 l 1
 30 299 31 298 15 286 c 1
 15 342 l 1
 91 404 l 1
 91 741 l 1
 118 770 l 1
 145 770 l 1
 145 450 l 1
 182 481 193 484 221 511 c 1
 221 454 l 1
 145 390 l 1
EndSplineSet
EndChar
StartChar: OE
Encoding: 338 338 195
Width: 958
VWidth: 1494
Flags: W
HStem: -19 55<234.5 419.921> 0 58<616 924> 338 58<616 892> 650 59<616 925> 664 55<235.653 417.627>
VStem: 45 58<202.708 495.938> 556 60<58 108 212.035 338 396 486.636 590 650>
Fore
103 350 m 256xae
 103 227 148 36 329 36 c 0
 495 36 553 203 553 350 c 256
 553 494 495 664 329 664 c 0
 148 664 103 471 103 350 c 256xae
329 -19 m 0
 124 -19 45 156 45 350 c 0
 45 651 215 719 329 719 c 0xae
 465 719 529 636 556 590 c 1
 556 650 l 2
 554 672 533 671 533 692 c 0
 533 701 546 722 570 722 c 0
 575 722 583 718 592 709 c 1
 925 709 l 1
 925 650 l 1
 616 650 l 1
 616 396 l 1
 892 396 l 1
 892 338 l 1
 616 338 l 1
 616 58 l 1
 924 58 l 1
 924 0 l 1
 556 0 l 1x76
 556 108 l 1
 528 59 465 -19 329 -19 c 0
EndSplineSet
EndChar
StartChar: oe
Encoding: 339 339 196
Width: 896
VWidth: 1494
Flags: W
HStem: -1 55<193.883 317.557 557.811 727.033> 233 55<471 791> 468 54<188.073 326.719 550.098 713.976>
VStem: 49 59<150.465 371.315> 407 64<152.169 233 288 366.729> 791 57<288 381.634>
Fore
625 -2 m 0
 511 -2 454 84 435 121 c 1
 405 55 351 -1 257 -1 c 0
 104 -1 49 148 49 260 c 256
 49 377 108 522 257 522 c 0
 364 522 414 447 436 395 c 1
 460 444 514 520 632 520 c 0
 792 520 848 375 848 269 c 0
 848 241 841 236 806 233 c 2
 471 233 l 1
 471 75 600 49 636 49 c 0
 694 49 740 76 753 87 c 1
 786 43 l 1
 757 21 690 -2 625 -2 c 0
108 260 m 256
 108 170 149 54 257 54 c 0
 347 54 407 151 407 257 c 256
 407 345 366 468 257 468 c 256
 149 468 108 351 108 260 c 256
791 288 m 1
 791 403 720 472 631 472 c 256
 508 472 466 351 466 288 c 1
 791 288 l 1
EndSplineSet
EndChar
StartChar: florin
Encoding: 402 402 202
Width: 503
VWidth: 1494
Flags: W
HStem: -84 42<24 25.9829 25.9829 38.0231 32.003 105.244> 387 36<103 205 262 360> 669 43<320.754 417.777>
VStem: 211 51<362.033 387 423 450.263>
Fore
425 649 m 1
 404 662 386 669 368 669 c 0
 333 669 297 638 281 571 c 2
 262 423 l 1
 369 423 l 1
 360 387 l 1
 257 387 l 1
 252 344 245 286 238 239 c 2
 217 91 l 2
 192 -86 91 -89 58 -89 c 0
 42 -89 25 -87 7 -84 c 1
 24 -42 l 1
 34 -44 43 -44 52 -44 c 0
 117 -44 148 -4 160 66 c 2
 205 387 l 1
 94 387 l 1
 103 423 l 1
 211 423 l 1
 211 430 224 528 230 573 c 0
 249 666 299 712 378 712 c 0
 421 712 457 682 457 682 c 1
 425 649 l 1
EndSplineSet
EndChar
StartChar: circumflex
Encoding: 710 710 203
Width: 436
VWidth: 1494
Flags: W
HStem: 709 130<197 302 197 197>
VStem: 72 293<709 709 709 709>
Fore
302 709 m 1
 217 788 l 1
 138 709 l 1
 72 709 l 1
 197 839 l 1
 238 839 l 1
 365 709 l 1
 302 709 l 1
EndSplineSet
EndChar
StartChar: caron
Encoding: 711 711 204
Width: 506
VWidth: 1494
Flags: W
HStem: 709 130<265 392 392 392>
VStem: 105 287<839 839 839 839>
Fore
392 839 m 1
 265 709 l 1
 226 709 l 1
 105 839 l 1
 164 839 l 1
 244 753 l 1
 329 839 l 1
 392 839 l 1
EndSplineSet
EndChar
StartChar: breve
Encoding: 728 728 205
Width: 448
VWidth: 1494
Flags: W
HStem: 577 49<156.952 290.855>
VStem: 64 54<666.254 738> 330 54<664.49 738>
Fore
224 626 m 256
 290 626 330 670 330 738 c 1
 384 738 l 1
 384 664 328 577 224 577 c 0
 127 577 64 660 64 738 c 1
 118 738 l 1
 118 670 159 626 224 626 c 256
EndSplineSet
EndChar
StartChar: dotaccent
Encoding: 729 729 206
Width: 236
VWidth: 1494
Flags: W
HStem: 637 107<74.6589 161.341>
VStem: 64 108<646.176 733.822>
Fore
118 637 m 256
 84 637 64 661 64 691 c 0
 64 716 83 744 118 744 c 256
 153 744 172 716 172 691 c 0
 172 661 152 637 118 637 c 256
EndSplineSet
EndChar
StartChar: ring
Encoding: 730 730 207
Width: 415
VWidth: 1494
Flags: W
HStem: 604 45<164.543 252.555> 756 47<164.046 251.237>
VStem: 108 46<658.633 746.122> 262 44<659.366 746.122>
Fore
206 604 m 256
 151 604 108 645 108 703 c 256
 108 757 148 803 206 803 c 256
 264 803 306 757 306 703 c 256
 306 648 264 604 206 604 c 256
208 756 m 256
 176 756 154 733 154 703 c 256
 154 672 175 649 208 649 c 256
 239 649 262 670 262 703 c 256
 262 733 240 756 208 756 c 256
EndSplineSet
EndChar
StartChar: tilde
Encoding: 732 732 209
Width: 331
VWidth: 1494
Flags: W
HStem: 611 50<172.149 246.413> 655 48<82.8735 160.622>
VStem: 34 44<605 630.631> 254 42<662.276 706>
Fore
232 661 m 0xb0
 241 661 254 669 254 706 c 1
 296 706 l 1
 296 666 281 611 223 611 c 0xb0
 193 611 129 655 105 655 c 0
 83 655 79 625 78 605 c 1
 34 605 l 1
 34 609 l 2
 34 657 58 703 103 703 c 0x70
 155 703 197 661 232 661 c 0xb0
EndSplineSet
EndChar
StartChar: uni0E01
Encoding: 3585 3585 212
Width: 636
VWidth: 1494
Flags: W
HStem: 0 21G<135 193 490 549> 559 51<208.456 414.902>
VStem: 135 58<0 329.908> 490 59<0 455.861>
Fore
573 479 m 0
 573 464 549 463 549 428 c 2
 549 0 l 1
 490 0 l 1
 490 436 l 2
 490 449 493 460 498 468 c 1
 480 490 l 2
 469 504 415 559 317 559 c 0
 180 559 129 479 114 445 c 1
 172 408 l 1
 179 417 208 446 236 451 c 0
 237 451 250 435 266 411 c 1
 236 397 216 380 207 360 c 0
 198 339 193 321 193 306 c 2
 193 0 l 1
 135 0 l 1
 135 308 l 2
 135 330 143 353 148 363 c 1
 45 425 l 1
 45 425 96 610 315 610 c 0
 409 610 481 579 531 513 c 1
 532 514 534 515 537 515 c 0
 556 515 573 489 573 479 c 0
EndSplineSet
EndChar
StartChar: uni0E02
Encoding: 3586 3586 213
Width: 562
VWidth: 1494
Flags: W
HStem: 0 57<239 415.971> 360 53<87.2758 170.691> 558 51<175.538 267.317>
VStem: 28 51<421.015 501.599> 179 51<422.294 502.328> 194 59<70.4064 315.81> 296 54<393.871 528.342> 416 58<57.1404 598>
Fore
474 58 m 2xf7
 474 40 458 0 401 0 c 2
 211 0 l 2
 196 0 201 -9 179 -9 c 0xfb
 163 -9 151 19 151 24 c 0
 151 39 194 44 194 84 c 2
 194 269 l 2xf7
 194 356 296 357 296 469 c 0
 296 526 254 558 204 558 c 0
 193 558 182 556 172 553 c 1
 189 545 230 517 230 462 c 0xfb
 230 402 185 360 129 360 c 0
 74 360 28 403 28 462 c 0
 28 537 93 609 197 609 c 0
 291 609 350 542 350 469 c 0
 350 345 253 332 253 269 c 2
 253 91 l 2
 253 74 248 63 239 57 c 1
 416 57 l 1
 416 598 l 1
 474 598 l 1
 474 58 l 2xf7
79 462 m 256
 79 433 101 413 129 413 c 256
 155 413 179 433 179 462 c 256
 179 491 155 511 129 511 c 256
 101 511 79 491 79 462 c 256
EndSplineSet
EndChar
StartChar: uni0E03
Encoding: 3587 3587 214
Width: 615
VWidth: 1494
Flags: W
HStem: 0 57<300 471.996> 323 48<104.563 186.452> 466 50<104.678 187.096> 561 50<111.473 203.092> 590 20<348 369 474 531>
VStem: 32 65<378.759 498.474> 194 50<378.862 458.425> 256 58<70.4064 344.737> 380 57<436.836 514.138> 474 57<57.0495 598>
Fore
531 58 m 2xefc0
 531 38 514 0 457 0 c 2
 272 0 l 2
 260 0 261 -9 240 -9 c 0
 225 -9 213 19 213 25 c 0
 213 39 256 45 256 85 c 2
 256 287 l 2
 256 398 380 421 380 474 c 0
 380 483 367 540 341 558 c 1
 297 522 l 1
 303 513 306 506 306 500 c 0
 306 488 287 480 277 480 c 0
 250 480 255 529 200 552 c 0
 186 558 174 561 162 561 c 0
 117 561 91 522 87 493 c 1
 101 504 123 516 146 516 c 0
 202 516 244 471 244 419 c 256
 244 361 199 323 146 323 c 0
 70 323 32 388 32 457 c 0
 32 554 103 611 174 611 c 0xf7c0
 223 611 253 589 277 559 c 1
 310 591 340 610 356 610 c 0
 382 610 437 525 437 471 c 0
 437 390 314 382 314 287 c 2
 314 91 l 2
 314 74 309 63 300 57 c 1
 474 57 l 1
 474 598 l 1
 531 598 l 1
 531 58 l 2xefc0
194 419 m 256
 194 445 175 466 146 466 c 256
 118 466 97 445 97 419 c 256
 97 390 119 371 146 371 c 256
 175 371 194 391 194 419 c 256
EndSplineSet
EndChar
StartChar: uni0E04
Encoding: 3588 3588 215
Width: 650
VWidth: 1494
Flags: W
HStem: 0 21G<119.5 133.5 505 564> 275 49<291.242 372.969> 420 51<298.104 372.2> 559 51<228.899 433.196>
VStem: 86 57<177.798 466.846> 380 51<331.759 412.286> 505 59<0 455.729>
Fore
588 480 m 0
 588 465 564 462 564 428 c 2
 564 0 l 1
 505 0 l 1
 505 442 l 2
 505 455 508 466 513 474 c 1
 513 478 457 559 329 559 c 0
 171 559 143 448 143 345 c 0
 143 257 166 148 166 126 c 1
 221 303 222 379 238 410 c 0
 263 462 306 471 332 471 c 0
 384 471 431 429 431 372 c 256
 431 319 387 275 332 275 c 256
 305 275 282 284 263 303 c 1
 248 240 l 2
 212 95 170 38 148 9 c 0
 143 2 137 -1 130 -1 c 0
 109 -1 97 18 96 22 c 0
 92 36 123 50 118 102 c 0
 110 191 86 260 86 355 c 0
 86 557 209 610 327 610 c 0
 423 610 501 571 546 513 c 1
 547 514 549 515 552 515 c 0
 570 515 588 489 588 480 c 0
332 324 m 256
 361 324 380 344 380 372 c 256
 380 401 360 420 332 420 c 256
 303 420 284 400 284 372 c 256
 284 343 304 324 332 324 c 256
EndSplineSet
EndChar
StartChar: uni0E05
Encoding: 3589 3589 216
Width: 650
VWidth: 1494
Flags: W
HStem: 0 21G<120 133.5 505 564> 256 50<294.724 376.286> 402 51<295.094 376.162> 584 20G<237.5 257.5 414.5 435.5>
VStem: 82 51<217.167 493.751> 119 48<78.4351 253.007> 384 51<313.887 394.539> 505 59<0 455.86>
Fore
588 480 m 0xfb
 588 465 564 462 564 428 c 2
 564 0 l 1
 505 0 l 1
 505 439 l 2
 505 452 508 463 513 471 c 1
 498 501 468 540 422 555 c 1
 410 551 382 524 360 499 c 1
 356 488 345 478 337 478 c 0
 317 478 279 554 236 558 c 1
 208 551 133 527 133 384 c 0xfb
 133 291 167 171 167 137 c 0
 167 133 167 129 166 126 c 1
 185 178 203 230 219 302 c 2
 230 354 l 2
 235 375 252 453 336 453 c 0
 393 453 435 407 435 354 c 256
 435 302 393 256 336 256 c 0
 308 256 285 266 268 286 c 1
 251 224 l 2
 236 167 204 84 148 9 c 0
 143 2 137 -1 130 -1 c 0
 110 -1 96 17 96 24 c 0
 96 41 119 48 119 99 c 0xf7
 119 180 82 282 82 399 c 0
 82 588 237 604 238 604 c 0
 277 604 324 556 335 543 c 1
 379 592 406 603 423 603 c 0
 448 603 514 566 549 514 c 1
 550 515 552 515 553 515 c 0
 569 515 588 491 588 480 c 0xfb
336 306 m 256
 365 306 384 326 384 354 c 256
 384 383 364 402 336 402 c 256
 309 402 287 383 287 354 c 256
 287 325 309 306 336 306 c 256
EndSplineSet
EndChar
StartChar: uni0E06
Encoding: 3590 3590 217
Width: 717
VWidth: 1494
Flags: W
HStem: -7 47<200.984 267.197> 209 51<189.572 258.893> 320 48<108.799 187.811> 465 46<115.826 188.162> 560 49<125.406 229.332> 590 20<357.5 381.5 573 631>
VStem: 43 57<376.193 495.115> 131 51<75.5577 158.105> 196 51<376.344 458.141> 268 58<40.3756 209 260 314 314 342.985> 397 51<457.935 550.886> 573 58<0 51 141 598>
Fore
290 480 m 0xf7f0
 261 480 261 560 181 560 c 0
 132 560 107 523 103 496 c 1
 110 502 125 511 148 511 c 0
 205 511 247 470 247 417 c 0
 247 358 199 320 148 320 c 0
 64 320 43 395 43 449 c 0
 43 531 94 609 188 609 c 0xfbf0
 208 609 252 608 291 561 c 1
 332 595 350 610 365 610 c 0
 398 610 448 551 448 493 c 0
 448 467 434 445 420 433 c 2
 390 407 l 2
 339 366 326 349 326 314 c 2
 326 260 l 1
 369 260 486 237 573 141 c 1
 573 598 l 1
 631 598 l 1
 631 0 l 1
 573 0 l 1
 573 51 l 1
 498 192 345 207 326 211 c 1
 326 84 l 2
 326 46 310 -7 248 -7 c 0
 188 -7 131 42 131 117 c 0
 131 205 203 248 269 260 c 1
 269 314 l 2
 269 338 274 381 329 421 c 2
 357 442 l 2
 378 459 397 476 397 499 c 0
 397 532 371 557 363 562 c 1
 349 548 341 547 312 522 c 1
 316 513 319 506 319 501 c 0
 319 488 296 480 290 480 c 0xf7f0
196 417 m 256
 196 446 176 465 148 465 c 256
 119 465 100 445 100 417 c 256
 100 390 119 368 148 368 c 256
 177 368 196 390 196 417 c 256
244 40 m 0
 264 40 268 48 268 72 c 2
 268 209 l 1
 189 192 182 139 182 117 c 0
 182 97 194 40 244 40 c 0
EndSplineSet
EndChar
StartChar: uni0E07
Encoding: 3591 3591 218
Width: 485
VWidth: 1494
Flags: MW
HStem: -11 21G<334.5 339> 410 50<261.416 335.169> 556 51<261.503 341.624>
VStem: 203 51<466.909 548.63> 345 54<81.8551 96 96 420 467.882 548.118>
Fore
302 11 m 0
 302 14 306 21 309 28 c 1
 6 330 l 1
 42 369 l 1
 336 72 l 1
 338 74 345 86 345 96 c 2
 345 420 l 1
 331 413 317 410 302 410 c 0
 243 410 203 457 203 508 c 256
 203 562 244 607 302 607 c 0
 358 607 399 562 399 510 c 2
 399 115 l 2
 399 43 383 38 353 0 c 0
 346 -7 341 -11 337 -11 c 0
 332 -11 302 2 302 11 c 0
254 508 m 256
 254 479 274 460 302 460 c 0
 326 460 350 478 350 508 c 256
 350 538 326 556 302 556 c 0
 273 556 254 536 254 508 c 256
EndSplineSet
EndChar
StartChar: uni0E08
Encoding: 3592 3592 219
Width: 597
VWidth: 1494
Flags: W
HStem: -8 21G<383.5 399> 254 49<222.934 297.24> 401 49<223.319 304.172> 558 50<190.679 386.425>
VStem: 37 50<312 446.91> 166 49<311.02 392.624>
Fore
361 15 m 0
 361 28 379 37 381 43 c 1
 324 275 l 1
 307 261 287 254 263 254 c 0
 210 254 166 296 166 353 c 0
 166 409 211 450 263 450 c 0
 322 450 353 404 362 363 c 2
 414 91 l 1
 460 445 l 2
 461 449 467 468 474 475 c 1
 442 514 368 558 287 558 c 0
 135 558 87 443 87 329 c 2
 87 312 l 1
 37 312 l 1
 37 331 l 2
 37 536 162 608 287 608 c 0
 381 608 450 572 507 513 c 1
 509 515 511 516 513 516 c 0
 527 516 547 491 547 478 c 0
 547 462 521 457 514 429 c 2
 454 61 l 2
 450 31 407 -8 391 -8 c 0
 376 -8 361 8 361 15 c 0
215 353 m 0
 215 325 234 303 263 303 c 256
 292 303 312 325 312 353 c 0
 312 378 292 401 263 401 c 256
 233 401 215 377 215 353 c 0
EndSplineSet
EndChar
StartChar: uni0E09
Encoding: 3593 3593 220
Width: 636
VWidth: 1494
Flags: W
HStem: -1 50<451.789 541.929> 167 67<403.595 504.134 477.269 487> 227 45<123.364 190.311> 369 47<123.149 202.851> 558 52<195.342 405.491>
VStem: 39 49<436 499.506> 66 49<279.711 360.578> 191 59<132 172.815 172.815 231.843> 211 49<286.22 360.578> 384 54<62.0858 140.728> 487 57<232 454.921> 555 52<62.6556 144.368>
Fore
248 132 m 1xb970
 295 191 373 234 456 234 c 0
 467 234 477 233 487 232 c 1
 487 441 l 2
 487 454 490 464 495 472 c 1
 490 475 431 558 296 558 c 0
 238 558 126 533 88 422 c 1
 78 424 44 434 39 436 c 1
 58 521 158 610 296 610 c 0
 434 610 503 541 526 513 c 1
 527 514 529 515 532 515 c 0
 551 515 569 490 569 480 c 0
 569 465 544 461 544 428 c 2
 544 208 l 1
 598 182 607 131 607 108 c 0
 607 43 557 -1 496 -1 c 0
 451 -1 384 26 384 108 c 0
 384 126 397 169 433 188 c 1
 396 184 364 171 338 150 c 0
 241 69 234 -4 206 -4 c 0
 193 -4 172 8 172 24 c 0
 172 41 191 39 191 63 c 2xdd70
 193 232 l 1
 184 229 174 227 163 227 c 0
 112 227 66 264 66 320 c 0
 66 379 111 416 163 416 c 256
 215 416 260 379 260 320 c 0xbaf0
 260 304 257 290 251 277 c 1
 251 264 250 246 250 214 c 0
 250 173 248 165 248 132 c 1xb970
163 369 m 256
 134 369 115 347 115 320 c 0
 115 294 134 272 163 272 c 256
 192 272 211 294 211 320 c 0xbaf0
 211 347 192 369 163 369 c 256
438 108 m 0
 438 78 461 49 496 49 c 256
 531 49 555 76 555 108 c 256
 555 140 531 167 496 167 c 0xd870
 468 167 438 143 438 108 c 0
EndSplineSet
EndChar
StartChar: uni0E0A
Encoding: 3594 3594 221
Width: 566
VWidth: 1494
Flags: W
HStem: 0 57<239 421.971> 348 50<74.9945 156.012> 495 40<132 154.473> 547 50<145.539 258.1>
VStem: 18 49<406.46 486.826> 164 50<406.399 486.497> 194 59<70.4064 316.337> 288 54<399.463 517.81> 422 58<57.1404 371>
Fore
480 58 m 2xfb80
 480 40 464 0 407 0 c 2
 211 0 l 2
 196 0 201 -9 179 -9 c 0
 163 -9 151 19 151 24 c 0
 151 39 194 44 194 84 c 2
 194 262 l 2xfb80
 194 333 288 393 288 459 c 0
 288 517 245 547 190 547 c 0
 167 547 148 542 132 535 c 1
 198 535 214 468 214 447 c 0xfd80
 214 389 170 348 115 348 c 0
 61 348 19 389 18 447 c 0
 18 517 77 597 191 597 c 0
 271 597 342 552 342 463 c 0
 342 368 253 327 253 256 c 2
 253 91 l 2
 253 74 248 63 239 57 c 1
 422 57 l 1
 422 371 l 1
 411 400 363 420 348 426 c 1
 355 436 355 533 526 659 c 1
 526 659 560 616 561 616 c 1
 516 586 435 529 407 451 c 1
 416 449 480 435 480 342 c 2
 480 58 l 2xfb80
115 398 m 0
 144 398 164 420 164 447 c 0xfd80
 164 472 144 495 115 495 c 0
 88 495 67 471 67 447 c 0
 67 418 90 398 115 398 c 0
EndSplineSet
EndChar
StartChar: uni0E0B
Encoding: 3595 3595 222
Width: 635
VWidth: 1494
Flags: W
HStem: 0 57<308 489.996> 312 50<98.1676 177.25> 459 49<105.203 177.116> 553 53<113.093 221.324 336 353.844>
VStem: 23 67<370.674 488.628> 185 51<369.874 451.216> 263 58<69.3517 313.581> 372 48<448.639 531.744> 490 59<57.0495 398.547>
Fore
549 58 m 2
 549 38 532 0 475 0 c 2
 280 0 l 2
 265 0 270 -9 248 -9 c 0
 232 -9 220 19 220 24 c 0
 220 39 263 44 263 84 c 2
 263 281 l 2
 263 323 281 353 309 387 c 2
 354 440 l 2
 366 454 372 465 372 473 c 0
 372 495 347 547 336 547 c 1
 294 511 l 1
 296 506 297 502 297 499 c 0
 297 487 277 478 269 478 c 0
 259 478 252 485 247 498 c 1
 224 532 198 553 166 553 c 0
 117 553 89 499 84 490 c 1
 101 502 118 508 136 508 c 0
 190 508 236 469 236 411 c 0
 236 352 189 312 138 312 c 0
 61 312 23 384 23 449 c 0
 23 533 91 606 171 606 c 0
 218 606 245 585 269 555 c 1
 321 604 337 604 347 604 c 0
 375 604 420 525 420 481 c 0
 420 446 412 427 382 392 c 2
 348 353 l 2
 324 325 321 312 321 278 c 2
 321 91 l 2
 321 74 317 63 308 57 c 1
 490 57 l 1
 490 368 l 1
 485 393 460 413 419 420 c 1
 421 427 431 539 595 659 c 1
 611 638 l 2
 616 632 627 616 629 616 c 1
 520 542 489 490 475 451 c 1
 482 450 549 436 549 342 c 2
 549 58 l 2
185 411 m 0
 185 439 164 459 138 459 c 256
 109 459 90 437 90 411 c 0
 90 384 109 362 138 362 c 256
 166 362 185 384 185 411 c 0
EndSplineSet
EndChar
StartChar: uni0E0C
Encoding: 3596 3596 223
Width: 917
VWidth: 1494
Flags: W
HStem: -7 50<192.243 272.734 444.063 493.859> 139 51<200.96 272.734> 212 56<456.492 495 553 627.843> 559 51<208.456 416.668>
VStem: 135 49<51.5822 131.459> 135 58<181 329.908> 281 49<51.2765 131.025> 371 53<62.5223 181.602> 495 58<54.0878 212 269 454.875> 773 58<0 90.5039 148 598>
Fore
371 126 m 0xf7c0
 371 240 473 264 495 268 c 1
 495 436 l 2
 495 449 497 460 502 468 c 1
 487 490 428 559 317 559 c 0
 180 559 129 479 114 445 c 1
 172 408 l 1
 179 417 208 446 236 451 c 0
 237 451 250 435 266 411 c 1
 236 397 216 380 207 360 c 0
 198 339 193 321 193 306 c 2
 193 181 l 1xf7c0
 206 187 219 190 232 190 c 0
 291 190 330 143 330 91 c 256
 330 40 291 -7 232 -7 c 0
 175 -7 135 39 135 91 c 2xfbc0
 135 308 l 2
 135 330 143 353 148 363 c 1
 45 425 l 1
 45 425 96 610 315 610 c 0
 409 610 485 580 535 513 c 1
 536 514 538 515 541 515 c 0
 560 515 578 490 578 480 c 0
 578 465 553 461 553 428 c 2
 553 269 l 1
 611 266 710 232 773 148 c 1
 773 598 l 1
 831 598 l 1
 831 0 l 1
 773 0 l 1
 773 46 l 1
 731 176 583 213 553 215 c 1
 553 85 l 2
 553 14 499 -1 476 -1 c 0
 429 -1 371 45 371 126 c 0xf7c0
281 91 m 256
 281 120 259 139 232 139 c 0
 206 139 184 120 184 91 c 256xfbc0
 184 62 206 43 232 43 c 0
 259 43 281 62 281 91 c 256
477 46 m 0
 494 46 495 62 495 75 c 2
 495 212 l 1
 438 197 424 153 424 121 c 0
 424 95 442 46 477 46 c 0
EndSplineSet
EndChar
StartChar: uni0E0D
Encoding: 3597 3597 224
Width: 919
VWidth: 1494
Flags: W
HStem: -246 47<614 698.404> -94 48<517.016 583.223> -7 50<192.243 272.734> 4 53<535 774> 139 51<200.96 272.734> 559 51<208.642 415.448>
VStem: 135 49<51.5822 131.459> 135 58<181 329.908> 281 49<51.2765 131.025> 463 48<-175.678 -99.6533> 490 59<70.4064 455.861> 599 47<-176.285 -99.0814> 774 59<-107.312 4 57 598>
Fore
555 -94 m 0xccd8
 529 -94 511 -113 511 -139 c 256
 511 -162 530 -182 555 -182 c 0
 579 -182 599 -165 599 -139 c 0
 599 -103 573 -94 555 -94 c 0xccd8
614 -199 m 1
 666 -198 776 -185 776 4 c 1
 507 4 l 2
 492 4 497 -5 475 -5 c 0
 459 -5 447 24 447 28 c 0
 447 42 490 50 490 88 c 2
 490 436 l 2
 490 449 493 460 498 468 c 1
 491 476 440 559 317 559 c 0
 180 559 129 479 114 445 c 1
 172 408 l 1
 179 417 208 446 236 451 c 0
 237 451 250 435 266 411 c 1
 236 397 216 380 207 360 c 0
 198 339 193 321 193 306 c 2
 193 181 l 1xddb8
 206 187 219 190 232 190 c 0
 291 190 330 143 330 91 c 256
 330 40 291 -7 232 -7 c 0
 175 -7 135 39 135 91 c 2xee98
 135 308 l 2
 135 330 143 353 148 363 c 1
 45 425 l 1
 45 425 97 610 315 610 c 0
 409 610 481 579 531 513 c 1
 532 514 534 515 537 515 c 0
 556 515 573 489 573 479 c 0
 573 464 549 463 549 428 c 2
 549 91 l 2
 549 74 544 63 535 57 c 1
 774 57 l 1xddb8
 774 598 l 1
 833 598 l 1
 833 36 l 2
 833 -205 701 -246 613 -246 c 0
 524 -246 463 -203 463 -139 c 0
 463 -85 504 -46 555 -46 c 0
 612 -46 646 -90 646 -132 c 0
 646 -164 630 -185 614 -199 c 1
281 91 m 256
 281 120 259 139 232 139 c 0
 206 139 184 120 184 91 c 256
 184 62 206 43 232 43 c 0xee98
 259 43 281 62 281 91 c 256
EndSplineSet
Substitution2: "Single Substitution lookup 22 subtable" uni0E0D.alt1
Substitution2: "Single Substitution lookup 22 subtable" uni0E0D.alt1
EndChar
StartChar: uni0E0E
Encoding: 3598 3598 225
Width: 653
VWidth: 1494
Flags: W
HStem: -345 52<137.173 224.375> -194 45<295.589 354.604> -184 50<138.993 220.923 213.222 228.624> -6 49<80.46 160.756> 141 49<80.6709 149.661> 559 51<228.474 434.038>
VStem: 22 50<51.45 132.868> 76 53<-271.987 -195.515> 154 58<184 329.908> 169 49<51.2685 125.253 117.442 133.063> 229 58<-269.423 -199.037 -204 -194.074 -136 -60> 508 59<-239.652 455.861>
Fore
591 480 m 0xdfb0
 591 465 567 462 567 428 c 2
 567 -202 l 2
 567 -257 503 -308 476 -327 c 0
 439 -353 436 -355 427 -355 c 0
 413 -355 396 -343 396 -326 c 0
 396 -312 406 -305 410 -302 c 1
 384 -264 332 -207 287 -194 c 1xdfb0
 287 -201 288 -207 288 -214 c 0
 288 -264 275 -295 248 -322 c 0
 234 -337 211 -345 181 -345 c 0
 97 -345 76 -273 76 -241 c 0
 76 -169 138 -134 203 -134 c 0xbfb0
 212 -134 221 -135 229 -136 c 1
 229 -60 l 1
 287 -60 l 1
 287 -149 l 1
 323 -156 409 -209 450 -274 c 1
 479 -250 508 -222 508 -202 c 2
 508 436 l 2
 508 449 511 460 516 468 c 1
 501 486 454 559 336 559 c 0
 199 559 148 479 133 445 c 1
 191 408 l 1
 204 425 234 447 256 451 c 0
 257 451 282 416 286 411 c 1
 256 397 236 380 226 360 c 0
 217 339 212 321 212 306 c 2
 212 126 l 1xdfb0
 216 117 218 106 218 93 c 0xdf70
 218 36 174 -6 121 -6 c 0
 63 -6 22 38 22 93 c 0
 22 146 64 190 121 190 c 0
 134 190 145 187 154 184 c 1
 154 308 l 2
 154 330 162 353 167 363 c 1
 64 425 l 1
 85 506 179 610 335 610 c 0
 428 610 499 579 549 513 c 1
 550 514 552 515 555 515 c 0
 573 515 591 489 591 480 c 0xdfb0
72 93 m 0
 72 65 92 43 121 43 c 0
 150 43 169 67 169 93 c 0x9f70
 169 118 149 141 121 141 c 0
 92 141 72 118 72 93 c 0
181 -293 m 0
 228 -293 235 -251 235 -232 c 0
 235 -222 234 -198 232 -185 c 1
 221 -184 209 -184 197 -184 c 0xbf30
 146 -184 129 -207 129 -241 c 0
 129 -255 135 -293 181 -293 c 0
EndSplineSet
Substitution2: "Single Substitution lookup 22 subtable" uni0E0E.alt1
Substitution2: "Single Substitution lookup 22 subtable" uni0E0E.alt1
EndChar
StartChar: uni0E0F
Encoding: 3599 3599 226
Width: 653
VWidth: 1494
Flags: W
HStem: -348 54<86.7843 174.611> -299 49<413.582 455.095 448.431 457> -185 48<106.857 162.984 162.249 163.719 163.719 181> -6 49<80.46 160.756> 141 49<80.6709 149.661> 559 51<228.685 435.368>
VStem: 27 52<-285.552 -198.284 49.2844 134.986> 154 58<184 329.908> 169 49<51.2685 125.253 117.442 133.063> 181 57<-282.512 -209.563 -141 -63> 510 58<-246.852 455.861>
Fore
593 479 m 0x7f20
 593 465 568 463 568 428 c 2
 568 -203 l 2
 568 -314 503 -336 487 -336 c 0
 461 -336 456 -308 456 -306 c 0
 456 -304 456 -302 457 -300 c 1
 450 -300 444 -299 440 -299 c 0x7f20
 423 -299 388 -308 366 -351 c 0
 362 -358 355 -364 344 -364 c 0
 328 -364 317 -348 317 -337 c 0
 317 -327 325 -322 326 -320 c 1
 289 -252 260 -225 238 -209 c 1
 238 -289 217 -348 132 -348 c 0
 58 -348 27 -288 27 -242 c 0
 27 -179 80 -137 147 -137 c 0
 154 -137 181 -141 181 -141 c 1
 181 -63 l 1
 238 -63 l 1
 238 -160 l 1xbe60
 296 -192 337 -246 360 -281 c 1
 378 -259 409 -250 436 -250 c 0
 459 -250 487 -257 499 -265 c 1
 509 -249 510 -232 510 -203 c 2
 510 436 l 2
 510 449 512 460 517 468 c 1
 499 494 445 559 336 559 c 0
 199 559 148 479 133 445 c 1
 191 408 l 1
 204 425 234 447 256 451 c 0
 257 451 260 446 268 436 c 2
 286 411 l 1
 256 397 236 380 226 360 c 0
 217 339 212 321 212 306 c 2
 212 126 l 1x7f20
 216 117 218 106 218 93 c 0x7ea0
 218 36 174 -6 121 -6 c 0
 63 -6 22 38 22 93 c 0
 22 146 64 190 121 190 c 0
 134 190 145 187 154 184 c 1
 154 308 l 2
 154 330 162 353 167 363 c 1
 64 425 l 1
 85 506 180 610 335 610 c 0
 428 610 500 579 550 513 c 1
 551 514 553 515 556 515 c 0
 575 515 593 488 593 479 c 0x7f20
72 93 m 0
 72 65 92 43 121 43 c 0
 150 43 169 67 169 93 c 0x3ea0
 169 118 149 141 121 141 c 0
 92 141 72 118 72 93 c 0
79 -242 m 0
 79 -264 89 -294 132 -294 c 0xbe20
 161 -294 185 -273 185 -242 c 0
 185 -196 182 -196 182 -185 c 1
 170 -184 158 -184 146 -184 c 0
 123 -184 79 -194 79 -242 c 0
EndSplineSet
Substitution2: "Single Substitution lookup 22 subtable" uni0E0F.alt1
Substitution2: "Single Substitution lookup 22 subtable" uni0E0F.alt1
EndChar
StartChar: uni0E10
Encoding: 3600 3600 227
Width: 571
VWidth: 1494
Flags: W
HStem: -347 53<39.5328 126.531> -303 46<337.064 418.193> -223 51<344.717 415.502> -181 47<47.7885 125.067> -79 51<344.26 423.132> -2 21G<397 406> 197 51<183.444 264.928> 344 49<182.86 263.939> 432 44<148.886 391.635> 513 45<501.591 526.535> 559 50<235.213 392.329>
VStem: -21 52<-285.558 -199.037> 126 49<256.013 335.653> 133 58<-284.2 -215.84 -220 -211.68 -139 -49> 287 49<-163.882 -86.665> 428 52<-266 -211 -164.063 -86.7033>
Fore
226 476 m 0x0ffb
 317 476 413 463 469 428 c 1
 470 429 472 430 475 430 c 0
 494 430 510 402 510 393 c 0
 510 388 506 382 495 371 c 1
 485 365 480 356 477 344 c 2
 425 27 l 2
 423 20 414 -2 398 -2 c 0
 396 -2 364 1 364 16 c 0
 364 20 365 26 368 33 c 1
 367 42 361 68 343 118 c 2
 299 232 l 1
 281 209 254 197 224 197 c 0
 171 197 126 239 126 296 c 0
 126 348 168 393 224 393 c 0
 288 393 317 347 352 246 c 2
 374 182 l 2
 380 160 386 142 390 127 c 1
 428 365 l 2
 429 376 432 384 439 389 c 1
 425 400 357 432 226 432 c 0
 190 432 151 429 108 423 c 1
 97 400 89 399 84 399 c 0
 82 399 56 400 56 422 c 0
 56 452 112 534 168 571 c 0
 213 601 264 609 305 609 c 0
 339 609 362 607 443 584 c 2
 497 568 l 2
 514 563 527 560 537 558 c 1
 520 513 l 1
 513 514 502 516 486 522 c 2
 434 538 l 2
 422 541 360 559 311 559 c 0
 229 559 169 524 135 472 c 1
 168 475 198 476 226 476 c 0x0ffb
-21 -241 m 0
 -21 -177 32 -134 97 -134 c 0x9ff7
 109 -134 121 -136 133 -139 c 1
 133 -49 l 1
 191 -49 l 1
 191 -158 l 1
 240 -187 282 -230 312 -280 c 1
 331 -265 354 -257 380 -257 c 0
 399 -257 417 -262 428 -266 c 1
 428 -211 l 1
 414 -219 399 -223 384 -223 c 0
 328 -223 287 -175 287 -126 c 0
 287 -70 332 -28 384 -28 c 0
 439 -28 480 -76 480 -126 c 2
 480 -291 l 1
 481 -296 482 -300 482 -303 c 0
 482 -322 469 -327 454 -327 c 0
 426 -327 437 -303 390 -303 c 0x6ff7
 325 -303 328 -360 306 -360 c 0
 297 -360 269 -352 269 -340 c 0
 269 -326 280 -319 280 -317 c 1
 265 -287 235 -241 191 -211 c 1
 191 -217 192 -223 192 -229 c 0
 192 -294 160 -347 85 -347 c 0x8ff7
 -2 -347 -21 -275 -21 -241 c 0
31 -241 m 0
 31 -266 42 -294 85 -294 c 0
 112 -294 138 -272 138 -241 c 0
 138 -205 138 -200 136 -190 c 1
 126 -184 115 -181 104 -181 c 0
 69 -181 31 -202 31 -241 c 0
336 -125 m 0
 336 -145 353 -172 384 -172 c 0x2ff3
 411 -172 431 -149 431 -124 c 0
 431 -97 407 -79 382 -79 c 0
 354 -79 336 -105 336 -125 c 0
175 296 m 0x0ffb
 175 267 197 248 224 248 c 256
 253 248 272 268 272 296 c 0
 272 320 254 344 224 344 c 256
 195 344 175 321 175 296 c 0x0ffb
EndSplineSet
Substitution2: "Single Substitution lookup 22 subtable" uni0E10.alt1
Substitution2: "Single Substitution lookup 22 subtable" uni0E10.alt1
EndChar
StartChar: uni0E11
Encoding: 3601 3601 228
Width: 754
VWidth: 1494
Flags: W
HStem: 0 21G<288.5 300.5 610 668> 309 50<104.626 182.85> 456 49<112.523 182.803> 544 57<534 572.868> 557 51<112.907 205.534>
VStem: 31 65<366.504 490.177> 191 51<366.476 448.514> 275 58<164 378.223> 352 63<485.239 538.813> 610 58<0 507.299>
Fore
31 445 m 0xefc0
 31 503 66 608 166 608 c 0
 198 608 225 591 250 564 c 1
 280 584 294 608 322 608 c 0xefc0
 352 608 415 535 415 507 c 0
 415 473 349 439 338 392 c 0
 334 381 333 364 333 341 c 2
 333 164 l 1
 464 517 495 601 499 601 c 0
 562 598 611 589 650 565 c 1
 651 566 653 567 656 567 c 0
 675 567 693 543 693 533 c 0
 693 518 668 513 668 480 c 2
 668 0 l 1
 610 0 l 1
 610 490 l 2
 610 507 610 512 616 522 c 1
 592 542 556 544 534 544 c 1xf7c0
 531 539 524 523 512 496 c 2
 374 148 l 1
 332 50 l 2
 328 41 308 -8 293 -8 c 0
 284 -8 255 7 255 24 c 0
 255 45 272 35 275 76 c 2
 275 303 l 2
 275 366 277 416 309 453 c 2
 339 484 l 2
 347 492 352 500 352 506 c 0
 352 523 325 543 315 553 c 1
 304 544 291 537 277 523 c 1
 279 515 281 507 281 503 c 0
 281 492 259 484 252 484 c 0
 232 484 215 557 157 557 c 0
 119 557 92 515 85 478 c 1
 99 496 124 505 145 505 c 0
 197 505 242 463 242 407 c 0
 242 352 198 312 144 309 c 0
 83 309 31 370 31 445 c 0xefc0
191 407 m 0
 191 434 172 456 144 456 c 256
 115 456 96 434 96 407 c 0
 96 381 115 359 144 359 c 256
 170 359 191 379 191 407 c 0
EndSplineSet
EndChar
StartChar: uni0E12
Encoding: 3602 3602 229
Width: 922
VWidth: 1494
Flags: W
HStem: -6 46<444.453 496.803> 206 48<458.201 502 561 635.077> 401 50<290.403 369.817> 578 20<215.422 252.5 414.5 438 779 836>
VStem: 76 54<263.425 496.042> 232 51<310.25 393.918> 380 49<54.0968 178.563 311.946 391.195> 502 59<40.6962 206 257 455.861> 510 75<468 509.622> 779 57<0 83.466 142 598>
Fore
484 40 m 0xff40
 491 40 502 45 502 73 c 2
 502 206 l 1
 484 204 429 188 429 114 c 0
 429 72 450 40 484 40 c 0xff40
585 480 m 0xfec0
 585 465 561 462 561 428 c 2
 561 257 l 1
 695 249 763 163 779 142 c 1
 779 598 l 1
 836 598 l 1
 836 0 l 1
 779 0 l 1
 779 40 l 1
 744 151 621 205 561 209 c 1
 561 84 l 2
 561 29 529 -6 478 -6 c 0
 426 -6 380 47 380 117 c 0
 380 190 430 242 502 254 c 1
 502 436 l 2xff40
 502 449 505 460 510 468 c 1
 510 482 481 537 423 553 c 1
 395 541 379 521 368 504 c 1
 368 475 341 474 340 474 c 0
 322 474 316 497 300 512 c 0
 265 544 249 553 235 558 c 1
 185 543 130 502 130 419 c 0
 130 286 178 197 187 123 c 1
 231 186 287 239 305 257 c 1
 267 268 232 302 232 353 c 0
 232 409 278 451 330 451 c 256
 387 451 429 405 429 353 c 0
 429 309 408 279 366 243 c 2
 336 218 l 1
 292 174 l 2
 159 35 171 -4 148 -4 c 0
 137 -4 113 8 113 17 c 0
 113 35 141 49 141 86 c 0
 141 157 76 269 76 410 c 0
 76 587 231 609 231 609 c 1
 274 609 330 554 339 544 c 1
 381 594 406 604 423 604 c 0
 453 604 525 565 544 513 c 1
 545 514 547 515 550 515 c 0
 566 515 585 491 585 480 c 0xfec0
330 401 m 256
 301 401 283 378 283 353 c 0
 283 325 302 303 330 303 c 256
 359 303 378 325 378 353 c 0
 378 377 360 401 330 401 c 256
EndSplineSet
EndChar
StartChar: uni0E13
Encoding: 3603 3603 230
Width: 932
VWidth: 1494
Flags: W
HStem: -7 50<192.243 272.734 753.728 833.894> 139 51<200.96 272.734> 167 67<699.373 801.836 774.672 785> 559 51<209.199 413.787>
VStem: 135 49<51.5822 131.459> 135 58<181 329.908> 281 49<51.2765 131.025> 487 59<132 455.861> 682 53<61.8358 153.088> 785 57<232 598> 852 52<62.599 143.994>
Fore
470 25 m 0xd7e0
 470 45 487 41 487 64 c 2
 487 436 l 2
 487 449 490 460 495 468 c 1
 487 478 437 559 317 559 c 0
 180 559 129 479 114 445 c 1
 172 408 l 1
 179 417 208 446 236 451 c 0
 237 451 250 435 266 411 c 1
 236 397 216 380 207 360 c 0
 198 339 193 321 193 306 c 2
 193 181 l 1xd7e0
 206 187 219 190 232 190 c 0
 291 190 330 143 330 91 c 256
 330 40 291 -7 232 -7 c 0
 175 -7 135 39 135 91 c 2xdbe0
 135 308 l 2
 135 330 143 353 148 363 c 1
 45 425 l 1
 45 425 100 610 315 610 c 0
 409 610 478 580 528 513 c 1
 529 514 531 515 534 515 c 0
 552 515 571 489 571 479 c 0
 571 465 546 463 546 428 c 2
 546 132 l 1
 596 198 678 234 753 234 c 0xb7e0
 764 234 775 233 785 232 c 1
 785 598 l 1
 842 598 l 1
 842 208 l 1
 896 182 904 130 904 108 c 0
 904 42 853 -1 794 -1 c 0
 746 -1 682 27 682 108 c 0
 682 132 701 176 728 190 c 1
 584 169 531 -4 506 -4 c 0
 484 -4 470 15 470 25 c 0xd7e0
281 91 m 256
 281 120 259 139 232 139 c 0
 206 139 184 120 184 91 c 256xdbe0
 184 62 206 43 232 43 c 0
 259 43 281 62 281 91 c 256
735 108 m 0
 735 78 757 49 794 49 c 256
 829 49 852 77 852 108 c 256
 852 139 829 167 794 167 c 0xb3e0
 764 167 735 143 735 108 c 0
EndSplineSet
EndChar
StartChar: uni0E14
Encoding: 3604 3604 231
Width: 639
VWidth: 1494
Flags: W
HStem: 0 21G<126 136.5 495 553> 426 51<275.927 357.07> 559 51<217.917 418.183>
VStem: 72 53<205.23 462.261> 218 50<338.185 418.198> 365 49<339.557 417.817> 495 58<0 455.113>
Fore
578 480 m 0
 578 465 553 461 553 428 c 2
 553 0 l 1
 495 0 l 1
 495 439 l 2
 495 451 498 462 504 471 c 1
 483 496 425 559 320 559 c 0
 236 559 125 525 125 355 c 0
 125 252 147 218 160 127 c 1
 171 144 203 197 287 284 c 1
 248 297 218 332 218 378 c 0
 218 436 262 477 317 477 c 0
 370 477 414 435 414 378 c 0
 414 307 335 262 335 262 c 1
 212 134 181 75 157 22 c 0
 150 6 142 -2 131 -2 c 0
 121 -2 97 9 97 18 c 0
 97 34 118 45 118 87 c 0
 118 142 72 241 72 366 c 0
 72 561 222 610 318 610 c 0
 448 610 515 540 535 513 c 1
 536 514 538 515 541 515 c 0
 560 515 578 490 578 480 c 0
317 426 m 0
 290 426 268 407 268 378 c 0
 268 353 288 330 317 330 c 0
 344 330 365 354 365 378 c 0
 365 408 341 426 317 426 c 0
EndSplineSet
EndChar
StartChar: uni0E15
Encoding: 3605 3605 232
Width: 641
VWidth: 1494
Flags: W
HStem: 0 21G<136.5 153.5 496 555> 401 50<284.403 363.817> 589 20G<224 246.5 408.5 432>
VStem: 70 54<263.448 498.391> 226 51<310.25 393.918> 372 51<311.278 392.942> 496 59<0 455.861> 504 75<468 509.622>
Fore
579 480 m 0xfd
 579 465 555 462 555 428 c 2
 555 0 l 1
 496 0 l 1
 496 436 l 2xfe
 496 449 499 460 504 468 c 1
 504 482 475 537 417 553 c 1
 389 541 373 521 362 504 c 1
 362 475 335 474 334 474 c 0
 314 474 320 492 271 533 c 0
 256 545 238 555 229 558 c 1
 177 543 124 502 124 418 c 0
 124 289 173 194 181 123 c 1
 225 186 281 239 299 257 c 1
 261 268 226 302 226 353 c 0
 226 409 272 451 324 451 c 256
 381 451 423 405 423 353 c 0
 423 309 402 279 360 243 c 2
 330 218 l 1
 286 174 l 2
 153 35 165 -4 142 -4 c 0
 131 -4 107 8 107 17 c 0
 107 35 135 49 135 86 c 0
 135 157 70 269 70 410 c 0
 70 585 223 609 225 609 c 0
 268 609 324 554 333 544 c 1
 375 594 400 604 417 604 c 0
 447 604 519 565 538 513 c 1
 539 514 541 515 544 515 c 0
 560 515 579 491 579 480 c 0xfd
324 401 m 256
 295 401 277 378 277 353 c 0
 277 325 296 303 324 303 c 256
 353 303 372 325 372 353 c 0
 372 377 354 401 324 401 c 256
EndSplineSet
EndChar
StartChar: uni0E16
Encoding: 3606 3606 233
Width: 636
VWidth: 1494
Flags: W
HStem: -7 50<192.243 272.734> 139 51<200.96 272.734> 559 51<208.642 415.448>
VStem: 135 49<51.5822 131.459> 135 58<181 329.908> 281 49<51.2765 131.025> 490 59<0 455.861>
Fore
172 408 m 1xee
 179 417 208 446 236 451 c 0
 237 451 250 435 266 411 c 1
 236 397 216 380 207 360 c 0
 198 339 193 321 193 306 c 2
 193 181 l 1xee
 206 187 219 190 232 190 c 0
 291 190 330 143 330 91 c 256
 330 40 291 -7 232 -7 c 0
 175 -7 135 39 135 91 c 2xf6
 135 308 l 2
 135 330 143 353 148 363 c 1
 45 425 l 1
 45 425 97 610 315 610 c 0
 409 610 481 579 531 513 c 1
 532 514 534 515 537 515 c 0
 556 515 573 489 573 479 c 0
 573 464 549 463 549 428 c 2
 549 0 l 1
 490 0 l 1
 490 436 l 2
 490 449 493 460 498 468 c 1
 491 476 440 559 317 559 c 0
 180 559 129 479 114 445 c 1
 172 408 l 1xee
281 91 m 256
 281 120 259 139 232 139 c 0
 206 139 184 120 184 91 c 256xf6
 184 62 206 43 232 43 c 0
 259 43 281 62 281 91 c 256
EndSplineSet
EndChar
StartChar: uni0E17
Encoding: 3607 3607 234
Width: 669
VWidth: 1494
Flags: W
HStem: -8 21G<178 187.5 522 580> 407 50<83.1646 155.672> 544 54<439 471.268> 553 51<82.9205 163.556>
VStem: 25 50<465.062 544.987> 164 57<167 417> 172 49<464.541 544.516> 522 58<-1 508.189>
Fore
522 490 m 2xed
 522 507 522 512 528 522 c 1
 500 542 472 544 439 544 c 1
 436 539 429 523 417 496 c 2
 268 148 l 1
 222 50 l 2
 206 16 193 -8 182 -8 c 0
 174 -8 145 6 145 24 c 0
 145 47 161 33 164 79 c 2
 164 417 l 1xed
 151 410 137 407 123 407 c 0
 66 407 25 453 25 505 c 256
 25 562 70 604 123 604 c 0
 176 604 221 562 221 505 c 2xdb
 221 167 l 1
 364 511 l 2
 378 544 403 598 405 598 c 0
 408 598 518 601 562 565 c 1
 563 566 565 567 568 567 c 0
 584 567 605 543 605 532 c 0
 605 518 580 515 580 480 c 2
 580 -1 l 1
 522 -1 l 1
 522 490 l 2xed
75 505 m 256
 75 476 97 457 123 457 c 0
 150 457 172 476 172 505 c 256
 172 534 150 553 123 553 c 0xdb
 97 553 75 534 75 505 c 256
EndSplineSet
EndChar
StartChar: uni0E18
Encoding: 3608 3608 235
Width: 579
VWidth: 1494
Flags: W
HStem: 0 57<220 416.509> 405 53<160.616 175 233 379.957> 556 52<203.138 424.42>
VStem: 175 58<69.3517 405> 417 58<57 350.369>
Fore
417 333 m 2
 417 346 420 357 425 365 c 1
 380 390 316 403 233 405 c 1
 233 91 l 2
 233 74 229 63 220 57 c 1
 417 57 l 1
 417 333 l 2
500 376 m 0
 500 361 475 356 475 323 c 2
 475 58 l 2
 475 35 457 0 402 0 c 2
 191 0 l 2
 179 0 180 -9 159 -9 c 0
 144 -9 132 18 132 24 c 0
 132 39 175 45 175 85 c 2
 175 405 l 1
 151 405 112 399 96 396 c 1
 84 380 84 375 70 375 c 0
 53 375 38 382 38 393 c 0
 38 407 87 608 302 608 c 0
 390 608 437 576 528 558 c 1
 511 510 l 1
 489 512 382 556 308 556 c 0
 254 556 159 545 115 448 c 1
 153 455 190 458 223 458 c 0
 328 458 419 432 457 408 c 1
 458 409 460 410 463 410 c 0
 482 410 500 386 500 376 c 0
EndSplineSet
EndChar
StartChar: uni0E19
Encoding: 3609 3609 236
Width: 641
VWidth: 1494
Flags: W
HStem: -1 50<464.506 554.686> 167 66<399.033 517.863 490.725 501> 408 51<84.1447 156.681> 555 50<84.1447 164.91>
VStem: 27 49<467.183 546.528> 164 59<133 417> 173 50<466.541 547.254> 398 53<61.8358 153.608> 501 57<230 598> 568 52<62.599 143.994>
Fore
141 26 m 0xfdc0
 141 45 164 48 164 72 c 2
 164 417 l 1xfdc0
 152 411 139 408 124 408 c 0
 72 408 27 450 27 507 c 256
 27 563 72 605 124 605 c 0
 189 605 223 556 223 507 c 2xfbc0
 223 133 l 1
 269 196 363 233 457 233 c 0
 473 233 487 232 501 230 c 1
 501 598 l 1
 558 598 l 1
 558 208 l 1
 612 182 620 130 620 108 c 0
 620 42 569 -1 510 -1 c 0
 462 -1 398 27 398 108 c 0
 398 129 415 175 448 187 c 1
 397 182 355 168 322 147 c 0
 204 69 200 -4 177 -4 c 2
 175 -4 l 2
 158 -4 141 15 141 26 c 0xfdc0
76 507 m 256
 76 477 100 459 124 459 c 0
 151 459 173 478 173 507 c 256xfbc0
 173 536 151 555 124 555 c 0
 100 555 76 537 76 507 c 256
451 108 m 0
 451 78 473 49 510 49 c 256
 545 49 568 77 568 108 c 256
 568 139 545 167 510 167 c 0
 480 167 451 143 451 108 c 0
EndSplineSet
EndChar
StartChar: uni0E1A
Encoding: 3610 3610 237
Width: 669
VWidth: 1494
Flags: W
HStem: 1 56<215 522.82> 407 50<90.0337 161.178> 555 50<89.3755 169.679>
VStem: 31 50<464.966 546.938> 170 59<70.4064 85 85 417> 178 51<465.838 545.954> 525 58<57.9831 598>
Fore
81 507 m 256xf6
 81 481 100 457 129 457 c 0
 155 457 178 478 178 507 c 256
 178 536 156 555 129 555 c 0
 103 555 81 536 81 507 c 256xf6
129 605 m 0
 187 605 229 557 229 508 c 2xf6
 229 91 l 2
 229 74 224 63 215 57 c 1
 525 57 l 1
 525 598 l 1
 583 598 l 1
 583 60 l 2
 583 39 568 1 510 1 c 2
 187 1 l 2
 172 1 177 -8 155 -8 c 0
 140 -8 128 21 128 26 c 0
 128 40 170 47 170 85 c 2
 170 417 l 1xfa
 156 410 142 407 129 407 c 0
 75 407 31 449 31 507 c 0
 31 559 73 605 129 605 c 0
EndSplineSet
EndChar
StartChar: uni0E1B
Encoding: 3611 3611 238
Width: 669
VWidth: 1494
Flags: W
HStem: 1 56<215 522.82> 407 50<90.0337 161.178> 555 50<89.3755 169.679>
VStem: 31 50<464.966 546.938> 170 59<70.4064 85 85 417> 178 51<465.838 545.954> 525 58<57.9831 824>
Fore
81 507 m 256xf6
 81 481 100 457 129 457 c 0
 155 457 178 478 178 507 c 256
 178 536 156 555 129 555 c 0
 103 555 81 536 81 507 c 256xf6
129 605 m 0
 187 605 229 557 229 508 c 2xf6
 229 91 l 2
 229 74 224 63 215 57 c 1
 525 57 l 1
 525 824 l 1
 583 824 l 1
 583 60 l 2
 583 39 568 1 510 1 c 2
 187 1 l 2
 172 1 177 -8 155 -8 c 0
 140 -8 128 21 128 26 c 0
 128 40 170 47 170 85 c 2
 170 417 l 1xfa
 156 410 142 407 129 407 c 0
 75 407 31 449 31 507 c 0
 31 559 73 605 129 605 c 0
EndSplineSet
EndChar
StartChar: uni0E1C
Encoding: 3612 3612 239
Width: 633
VWidth: 1494
Flags: W
HStem: -2 21G<104.5 111.5 514 533.5> 410 49<155.09 227.938> 556 49<148.854 227.938>
VStem: 90 56<117 419 466.068 548.892> 236 50<467.032 547.734> 490 57<120 598>
Fore
286 507 m 0
 286 449 240 410 188 410 c 0
 173 410 159 413 146 419 c 1
 146 117 l 1
 299 342 l 1
 300 348 310 363 326 363 c 256
 341 363 350 347 351 342 c 1
 490 120 l 1
 490 598 l 1
 547 598 l 1
 547 40 l 2
 547 24 551 -2 516 -2 c 0
 512 -2 507 -1 499 7 c 1
 326 288 l 1
 166 61 l 2
 143 28 116 -7 107 -7 c 0
 102 -7 70 6 70 25 c 0
 70 38 90 52 90 82 c 2
 90 507 l 2
 90 565 133 605 188 605 c 0
 240 605 286 566 286 507 c 0
236 507 m 0
 236 534 217 556 188 556 c 256
 159 556 141 534 141 507 c 0
 141 481 160 459 188 459 c 256
 217 459 236 481 236 507 c 0
EndSplineSet
EndChar
StartChar: uni0E1D
Encoding: 3613 3613 240
Width: 633
VWidth: 1494
Flags: W
HStem: -2 21G<104.5 111.5 514 533.5> 410 49<155.09 227.938> 556 49<148.854 227.938>
VStem: 90 56<117 419 466.068 548.892> 236 50<467.032 547.734> 490 57<120 828>
Fore
286 507 m 0
 286 449 240 410 188 410 c 0
 173 410 159 413 146 419 c 1
 146 117 l 1
 299 342 l 1
 300 348 310 363 326 363 c 256
 341 363 350 347 351 342 c 1
 490 120 l 1
 490 828 l 1
 547 828 l 1
 547 40 l 2
 547 24 551 -2 516 -2 c 0
 512 -2 507 -1 499 7 c 1
 326 288 l 1
 166 61 l 2
 143 28 116 -7 107 -7 c 0
 102 -7 70 6 70 25 c 0
 70 38 90 52 90 82 c 2
 90 507 l 2
 90 565 133 605 188 605 c 0
 240 605 286 566 286 507 c 0
236 507 m 0
 236 534 217 556 188 556 c 256
 159 556 141 534 141 507 c 0
 141 481 160 459 188 459 c 256
 217 459 236 481 236 507 c 0
EndSplineSet
EndChar
StartChar: uni0E1E
Encoding: 3614 3614 241
Width: 717
VWidth: 1494
Flags: W
HStem: -4 21G<178.5 187.5 581.5 611> 410 49<86.46 159.412> 556 49<86.46 166.868>
VStem: 28 50<466.793 547.986> 167 57<135 419> 175 49<466.805 546.359> 573 58<136 598>
Fore
127 605 m 0xfa
 180 605 224 564 224 507 c 2xf6
 224 135 l 1
 366 570 l 1
 377 585 384 592 396 592 c 256
 414 592 420 578 426 570 c 1
 573 136 l 1
 573 598 l 1
 631 598 l 1
 631 33 l 2
 631 7 631 -4 591 -4 c 0
 572 -4 572 2 560 36 c 2
 515 154 l 1
 395 490 l 1
 239 45 l 2
 226 17 193 -7 182 -7 c 0
 175 -7 147 9 147 23 c 0
 147 43 167 26 167 90 c 2
 167 419 l 1
 155 413 142 410 127 410 c 0
 69 410 28 453 28 507 c 0
 28 562 69 605 127 605 c 0xfa
78 507 m 0
 78 481 98 459 127 459 c 0
 152 459 175 479 175 507 c 0
 175 536 152 556 127 556 c 0
 98 556 78 534 78 507 c 0
EndSplineSet
EndChar
StartChar: uni0E1F
Encoding: 3615 3615 242
Width: 717
VWidth: 1494
Flags: W
HStem: -4 21G<178.5 187.5 581.5 611> 410 49<86.46 159.412> 556 49<86.46 166.868>
VStem: 28 50<466.793 547.986> 167 57<136 419> 175 49<466.805 546.359> 573 58<136 828>
Fore
127 605 m 0xfa
 180 605 224 564 224 507 c 2xf6
 224 136 l 1
 366 570 l 1
 377 585 384 592 396 592 c 256
 414 592 420 578 426 570 c 1
 573 136 l 1
 573 828 l 1
 631 828 l 1
 631 33 l 2
 631 7 631 -4 591 -4 c 0
 572 -4 572 2 560 36 c 2
 515 154 l 1
 395 490 l 1
 239 45 l 2
 226 17 193 -7 182 -7 c 0
 175 -7 147 9 147 23 c 0
 147 43 167 26 167 90 c 2
 167 419 l 1
 155 413 142 410 127 410 c 0
 69 410 28 453 28 507 c 0
 28 562 69 605 127 605 c 0xfa
78 507 m 0
 78 481 98 459 127 459 c 0
 152 459 175 479 175 507 c 0
 175 536 152 556 127 556 c 0
 98 556 78 534 78 507 c 0
EndSplineSet
EndChar
StartChar: uni0E20
Encoding: 3616 3616 243
Width: 654
VWidth: 1494
Flags: W
HStem: -6 49<80.46 160.756> 141 49<80.6709 149.661> 559 51<229.107 435.368>
VStem: 22 50<51.45 132.868> 154 58<184 329.908> 169 49<51.2685 125.253 117.442 133.063> 510 58<0 455.861>
Fore
121 190 m 0xf6
 134 190 145 187 154 184 c 1
 154 308 l 2
 154 330 162 353 167 363 c 1
 64 425 l 1
 85 506 182 610 335 610 c 0
 428 610 500 579 550 513 c 1
 551 514 553 515 556 515 c 0
 575 515 593 488 593 479 c 0
 593 465 568 463 568 428 c 2
 568 0 l 1
 510 0 l 1
 510 436 l 2
 510 449 512 460 517 468 c 1
 499 494 445 559 336 559 c 0
 199 559 148 479 133 445 c 1
 191 408 l 1
 204 425 234 447 256 451 c 0
 257 451 282 416 286 411 c 1
 256 397 236 380 226 360 c 0
 217 339 212 321 212 306 c 2
 212 126 l 1xfa
 216 117 218 106 218 93 c 0
 218 36 174 -6 121 -6 c 0
 63 -6 22 38 22 93 c 0
 22 146 64 190 121 190 c 0xf6
72 93 m 0
 72 65 92 43 121 43 c 0
 150 43 169 67 169 93 c 0xf6
 169 118 149 141 121 141 c 0
 92 141 72 118 72 93 c 0
EndSplineSet
EndChar
StartChar: uni0E21
Encoding: 3617 3617 244
Width: 653
VWidth: 1494
Flags: W
HStem: -3 48<129.562 194.096> 212 50<150.32 196 256 286.656> 405 49<115.775 188.1> 552 49<116.014 195.198>
VStem: 59 53<62.8152 160.997 460.966 545.636> 197 59<46.818 212 265 414 461.533 544.219> 508 57<0 55 145 598>
Fore
254 265 m 1
 271 265 407 254 508 145 c 1
 508 598 l 1
 565 598 l 1
 565 0 l 1
 508 0 l 1
 508 55 l 1
 444 177 298 214 256 214 c 1
 256 88 l 2
 256 47 239 -3 173 -3 c 0
 113 -3 59 56 59 122 c 0
 59 234 171 258 196 262 c 1
 196 414 l 1
 184 408 170 405 155 405 c 0
 99 405 57 450 57 502 c 0
 57 561 104 601 155 601 c 0
 213 601 254 557 254 502 c 2
 254 265 l 1
108 502 m 0
 108 477 127 454 155 454 c 256
 185 454 203 478 203 502 c 0
 203 530 184 552 155 552 c 256
 129 552 108 531 108 502 c 0
169 45 m 0
 186 45 197 50 197 88 c 2
 197 212 l 1
 117 193 112 140 112 123 c 0
 112 77 139 45 169 45 c 0
EndSplineSet
EndChar
StartChar: uni0E22
Encoding: 3618 3618 245
Width: 603
VWidth: 1494
Flags: W
HStem: 1 56<182 459.202> 268 48<196.478 310.686> 408 51<173.394 254.237> 555 50<174.897 254.313>
VStem: 51 56<378.146 474.894> 138 58<70.4064 271> 262 50<466.838 547.736> 460 57<57.9831 598>
Fore
365 294 m 1
 320 273 277 268 240 268 c 0
 224 268 210 269 196 271 c 1
 196 91 l 2
 196 74 191 63 182 57 c 1
 460 57 l 1
 460 598 l 1
 517 598 l 1
 517 60 l 2
 517 39 502 1 444 1 c 2
 154 1 l 2
 141 1 144 -8 122 -8 c 0
 107 -8 95 21 95 26 c 0
 95 41 138 47 138 85 c 2
 138 284 l 1
 62 322 51 396 51 428 c 0
 51 506 109 605 214 605 c 0
 262 605 312 572 312 507 c 0
 312 450 266 408 214 408 c 0
 156 408 126 452 118 486 c 1
 111 472 107 455 107 434 c 0
 107 369 146 316 234 316 c 0
 279 316 319 330 350 347 c 1
 365 294 l 1
166 507 m 256
 166 478 186 459 214 459 c 256
 243 459 262 479 262 507 c 256
 262 536 242 555 214 555 c 256
 185 555 166 535 166 507 c 256
EndSplineSet
EndChar
StartChar: uni0E23
Encoding: 3619 3619 246
Width: 529
VWidth: 1494
Flags: W
HStem: -7 50<288.838 369.286> 139 51<288.461 361.49> 410 50<127.246 337.106> 519 21G<432.5 474.25> 558 50<184.636 402.336>
VStem: 230 51<50.763 131.162> 369 59<181 355.854> 377 51<51.1524 132.056>
Fore
281 91 m 256xfd
 281 62 301 43 329 43 c 256
 358 43 377 63 377 91 c 256
 377 120 357 139 329 139 c 256
 300 139 281 119 281 91 c 256xfd
452 380 m 0
 452 365 428 363 428 327 c 2xfe
 428 91 l 2xfd
 428 38 386 -7 329 -7 c 0
 272 -7 230 39 230 91 c 256
 230 148 276 190 329 190 c 0
 344 190 357 187 369 181 c 1
 369 338 l 2xfe
 369 351 372 361 377 369 c 1
 349 391 269 410 182 410 c 0
 151 410 121 407 90 402 c 1
 82 391 81 382 60 382 c 0
 46 382 33 388 33 398 c 0
 33 406 69 608 281 608 c 0
 360 608 427 577 483 567 c 1
 468 519 l 1
 397 531 370 558 290 558 c 0
 192 558 140 522 108 453 c 1
 136 458 163 460 188 460 c 0
 282 460 371 432 410 411 c 1
 412 413 415 414 419 414 c 0
 435 414 452 390 452 380 c 0
EndSplineSet
EndChar
StartChar: uni0E24
Encoding: 3620 3620 247
Width: 636
VWidth: 1494
Flags: W
HStem: -7 50<192.243 272.734> 139 51<200.96 272.734> 559 51<208.642 415.448>
VStem: 135 49<51.5822 131.459> 135 58<181 329.908> 281 49<51.2765 131.025> 490 59<-363 455.861>
Fore
172 408 m 1xee
 179 417 208 446 236 451 c 0
 237 451 250 435 266 411 c 1
 236 397 216 380 207 360 c 0
 198 339 193 321 193 306 c 2
 193 181 l 1xee
 206 187 219 190 232 190 c 0
 291 190 330 143 330 91 c 256
 330 40 291 -7 232 -7 c 0
 175 -7 135 39 135 91 c 2xf6
 135 308 l 2
 135 330 143 353 148 363 c 1
 45 425 l 1
 45 425 97 610 315 610 c 0
 409 610 481 579 531 513 c 1
 532 514 534 515 537 515 c 0
 556 515 573 489 573 479 c 0
 573 464 549 463 549 428 c 2
 549 -363 l 1
 490 -363 l 1
 490 436 l 2
 490 449 493 460 498 468 c 1
 491 476 440 559 317 559 c 0
 180 559 129 479 114 445 c 1
 172 408 l 1xee
281 91 m 256
 281 120 259 139 232 139 c 0
 206 139 184 120 184 91 c 256xf6
 184 62 206 43 232 43 c 0
 259 43 281 62 281 91 c 256
EndSplineSet
EndChar
StartChar: uni0E25
Encoding: 3621 3621 248
Width: 639
VWidth: 1494
Flags: W
HStem: -6 49<179.725 259.724> 141 49<190.647 259.528> 555 50<222.543 416.416>
VStem: 55 57<344 353.523 353.523 354 353.762 448.395> 121 51<50.5961 132.302> 268 50<50.5905 132.855> 496 59<0 18.7538 18.7538 88.7722 155 455.729>
Fore
579 480 m 0
 579 465 555 462 555 428 c 2
 555 0 l 1
 496 0 l 1
 496 15 495 33 495 37 c 0
 495 72 366 298 308 380 c 1
 218 284 198 221 187 184 c 1
 196 188 207 190 220 190 c 0
 276 190 318 145 318 93 c 0
 318 34 271 -6 220 -6 c 0
 186 -6 121 10 121 105 c 0
 121 244 244 392 275 423 c 1
 274 426 274 429 274 431 c 0
 274 444 285 457 300 457 c 0
 339 457 457 254 496 155 c 1
 496 442 l 2
 496 455 499 466 504 474 c 1
 472 510 399 555 312 555 c 0
 215 555 111 484 111 364 c 0
 111 357 111 351 112 344 c 1
 55 344 l 1
 55 351 54 357 54 363 c 0
 54 501 168 605 312 605 c 0
 391 605 477 578 537 513 c 1
 538 514 540 515 543 515 c 0
 561 515 579 489 579 480 c 0
220 43 m 256
 249 43 268 65 268 93 c 0
 268 117 250 141 220 141 c 256
 190 141 172 117 172 93 c 0
 172 65 191 43 220 43 c 256
EndSplineSet
EndChar
StartChar: uni0E26
Encoding: 3622 3622 249
Width: 657
VWidth: 1494
Flags: W
HStem: -6 49<80.46 160.756> 141 49<80.6709 149.661> 559 51<229.141 435.5>
VStem: 22 50<51.45 132.868> 154 58<184 329.908> 169 49<51.2685 125.253 117.442 133.063> 510 58<-363 455.861>
Fore
121 190 m 0xf6
 134 190 145 187 154 184 c 1
 154 308 l 2
 154 330 162 353 167 363 c 1
 64 425 l 1
 85.4763 505.939 182 610 335 610 c 0
 428.34 610 500.416 579.112 550 513 c 1
 551 514 553 515 556 515 c 0
 575 515 593 488 593 479 c 0
 593 465 568 463 568 428 c 2
 568 -363 l 1
 510 -363 l 1
 510 436 l 2
 510 449 512 460 517 468 c 1
 499 494 445 559 336 559 c 0
 199 559 148 479 133 445 c 1
 191 408 l 1
 204 425 234 447 256 451 c 0
 257 451 260 446 268 436 c 2
 286 411 l 1
 256 397 236 380 226 360 c 0
 217 339 212 321 212 306 c 2
 212 126 l 1xfa
 216 117 218 106 218 93 c 0
 218 36 174 -6 121 -6 c 0
 63 -6 22 38 22 93 c 0
 22 146 64 190 121 190 c 0xf6
72 93 m 0
 72 65 92 43 121 43 c 0
 150 43 169 67 169 93 c 0xf6
 169 118 149 141 121 141 c 0
 92 141 72 118 72 93 c 0
EndSplineSet
EndChar
StartChar: uni0E27
Encoding: 3623 3623 250
Width: 538
VWidth: 1494
Flags: W
HStem: -7 49<314.276 394.281> 139 49<314.062 386.794> 502 20G<437.5 448.5> 553 55<172.482 341.378>
VStem: 49 53<323 340.02 340.02 351.99 346.005 471.961> 256 50<50.2659 130.757> 393 58<181 462.369> 402 49<51.2188 131.312>
Fore
306 91 m 0xfd
 306 64 325 42 354 42 c 256
 383 42 402 64 402 91 c 0
 402 117 383 139 354 139 c 256
 325 139 306 117 306 91 c 0xfd
476 488 m 0
 476 473 451 468 451 435 c 2xfe
 451 91 l 2xfd
 451 33 408 -7 354 -7 c 256
 303 -7 256 32 256 91 c 0
 256 148 302 188 354 188 c 0
 370 188 383 186 393 181 c 1
 393 445 l 2xfe
 393 458 396 469 401 477 c 1
 387 500 342 553 253 553 c 0
 129 553 98 445 98 373 c 0
 98 357 99 340 102 323 c 1
 49 308 l 1
 44 332 42 355 42 377 c 0
 42 503 116 608 253 608 c 0
 366 608 420 549 433 520 c 1
 434 521 436 522 439 522 c 0
 458 522 476 498 476 488 c 0
EndSplineSet
EndChar
StartChar: uni0E28
Encoding: 3624 3624 251
Width: 642
VWidth: 1494
Flags: W
HStem: 0 21G<113.5 127.5 499 558> 275 49<285.242 366.969> 420 51<292.104 367.059> 559 51<222.975 427.108>
VStem: 80 57<173.914 467.376> 112 48<154.415 194.836> 374 51<331.759 412.539> 499 59<0 455.729>
Fore
326 324 m 256xf3
 355 324 374 344 374 372 c 256
 374 401 354 420 326 420 c 256
 297 420 278 400 278 372 c 256
 278 343 298 324 326 324 c 256xf3
321 610 m 0
 391 610 443 592 483 564 c 1
 525 608 591 651 604 659 c 1
 632 617 l 1
 542 552 542 551 523 531 c 1
 540 513 l 1
 541 514 543 515 546 515 c 0
 564 515 582 489 582 480 c 0
 582 465 558 462 558 428 c 2
 558 0 l 1
 499 0 l 1
 499 442 l 2
 499 455 502 466 507 474 c 1
 507 478 451 559 323 559 c 0
 165 559 137 448 137 345 c 0xfb
 137 257 160 148 160 126 c 1
 215 303 216 379 232 410 c 0
 257 462 300 471 326 471 c 0
 382 471 425 425 425 372 c 256
 425 319 381 275 326 275 c 256
 299 275 276 284 257 303 c 1
 242 240 l 2
 206 95 164 38 142 9 c 0
 137 2 131 -1 124 -1 c 0
 103 -1 89 19 89 23 c 0
 89 39 112 49 112 91 c 0xf7
 112 145 80 258 80 355 c 0xfb
 80 439 95 500 148 550 c 0
 191 590 248 610 321 610 c 0
EndSplineSet
EndChar
StartChar: uni0E29
Encoding: 3625 3625 252
Width: 669
VWidth: 1494
Flags: W
HStem: 1 56<215 522.82> 214 49<319.886 433.772> 382 46<316.603 377.667> 407 50<90.0337 161.178> 555 50<89.3755 169.468>
VStem: 31 50<464.966 546.938> 170 59<70.4064 417> 178 51<465.838 546.418> 258 48<278.072 372.133> 382 54<339.383 348.046 343.714 380.552> 525 58<57.9831 291 339.764 598>
Fore
81 507 m 256xdde0
 81 481 100 457 129 457 c 0
 155 457 178 478 178 507 c 256
 178 536 156 555 129 555 c 0
 103 555 81 536 81 507 c 256xdde0
128 26 m 0
 128 40 170 47 170 85 c 2
 170 417 l 1xeee0
 156 410 142 407 129 407 c 0
 75 407 31 449 31 507 c 0
 31 559 73 605 129 605 c 0
 186 605 229 559 229 507 c 2xdde0
 229 91 l 2
 229 74 224 63 215 57 c 1
 525 57 l 1
 525 291 l 1
 476 220 409 214 383 214 c 0
 318 214 258 260 258 320 c 0
 258 381 297 428 354 428 c 0
 416 428 436 388 436 361 c 0
 436 348 431 319 412 319 c 0
 406 319 382 322 382 337 c 0
 382 341 385 357 385 359 c 0
 385 377 365 382 355 382 c 0xeee0
 329 382 306 359 306 325 c 0
 306 275 347 263 384 263 c 0
 424 263 525 296 525 431 c 2
 525 598 l 1
 583 598 l 1
 583 60 l 2
 583 39 568 1 510 1 c 2
 187 1 l 2
 172 1 177 -8 155 -8 c 0
 140 -8 128 21 128 26 c 0
EndSplineSet
EndChar
StartChar: uni0E2A
Encoding: 3626 3626 253
Width: 639
VWidth: 1494
Flags: W
HStem: -6 49<179.725 259.724> 141 49<190.647 259.528> 555 50<221.236 388.711>
VStem: 55 57<344 354 354 354 354 450.035> 121 51<50.5961 132.302> 268 50<50.5905 132.855> 496 59<0 18.7538 18.7538 88.7722 155 455.729>
Fore
632 617 m 1
 600 595 555 562 522 528 c 1
 526 521 531 519 537 513 c 1
 538 514 540 515 543 515 c 0
 561 515 579 489 579 480 c 0
 579 465 555 462 555 428 c 2
 555 0 l 1
 496 0 l 1
 496 15 495 33 495 37 c 0
 495 72 366 298 308 380 c 1
 218 284 198 220 187 184 c 1
 196 188 207 190 220 190 c 0
 276 190 318 145 318 93 c 0
 318 34 271 -6 220 -6 c 0
 186 -6 121 10 121 105 c 0
 121 244 244 392 275 423 c 1
 274 426 274 429 274 431 c 0
 274 444 285 457 300 457 c 0
 339 457 457 254 496 155 c 1
 496 442 l 2
 496 455 499 466 504 474 c 1
 472 510 399 555 312 555 c 0
 215 555 111 484 111 364 c 0
 111 357 111 351 112 344 c 1
 55 344 l 1
 55 351 54 357 54 364 c 0
 54 508 176 605 312 605 c 0
 346 605 409 602 483 558 c 1
 515 601 560 627 604 659 c 1
 632 617 l 1
220 43 m 256
 249 43 268 65 268 93 c 0
 268 117 250 141 220 141 c 256
 190 141 172 117 172 93 c 0
 172 65 191 43 220 43 c 256
EndSplineSet
EndChar
StartChar: uni0E2B
Encoding: 3627 3627 254
Width: 665
VWidth: 1494
Flags: W
HStem: 0 21G<170 181.5 522 578> 408 49<87.0337 159.217> 555 50<86.4336 166.119> 564 44<442.469 527.516>
VStem: 28 50<465.054 546.741> 167 57<130 417> 175 49<465.838 546.404> 363 51<476.823 550.948> 522 56<0 350.725> 540 47<485.377 537.508>
Fore
589 378 m 0xdd40
 589 359 578 349 578 339 c 2
 578 0 l 1
 522 0 l 1
 522 339 l 2
 522 348 523 370 532 374 c 1
 528 383 498 398 474 401 c 1
 471 396 462 382 447 362 c 2
 214 34 l 2
 191 1 187 -6 176 -6 c 0
 164 -6 137 5 137 21 c 0
 137 45 167 48 167 105 c 2
 167 417 l 1xdd80
 155 411 141 408 126 408 c 0
 72 408 28 449 28 507 c 0
 28 559 70 605 126 605 c 0
 183 605 224 559 224 507 c 2xeb
 224 130 l 1
 422 417 l 1
 389 428 363 462 363 507 c 0
 363 568 415 608 478 608 c 0
 533 608 587 572 587 507 c 0
 587 483 578 446 544 423 c 1
 558 416 563 409 577 402 c 0
 589 394 589 385 589 378 c 0xdd40
78 507 m 0
 78 481 97 457 126 457 c 0
 152 457 175 478 175 507 c 0
 175 532 154 555 126 555 c 0xeb
 98 555 78 532 78 507 c 0
540 507 m 256xd940
 540 520 532 564 477 564 c 0
 458 564 414 553 414 507 c 0
 414 494 425 450 477 450 c 0
 527 450 540 492 540 507 c 256xd940
EndSplineSet
EndChar
StartChar: uni0E2C
Encoding: 3628 3628 255
Width: 717
VWidth: 1494
Flags: W
HStem: -4 21G<178.5 187.5 586 611> 410 49<86.46 159.412> 506 20G<386 401> 556 49<86.46 166.868> 604 51<490.81 563.848> 749 51<491.269 570.408>
VStem: 28 50<466.793 547.986> 167 57<144 419> 175 49<466.805 546.359> 433 51<661.755 742.692> 573 58<136 613>
Fore
484 701 m 0xee60
 484 676 503 655 531 655 c 0
 559 655 578 676 578 701 c 256
 578 726 560 749 531 749 c 256
 503 749 484 730 484 701 c 0xee60
531 800 m 0
 587 800 616 756 625 731 c 1
 683 797 l 1
 726 758 l 1
 631 649 l 1
 631 33 l 2
 631 7 631 -4 591 -4 c 0
 581 -4 572 -3 565 21 c 0
 564 25 536 94 521 131 c 2
 408 410 l 2
 399 431 395 441 395 442 c 1
 239 45 l 2
 226 17 193 -7 182 -7 c 0
 175 -7 147 9 147 23 c 0
 147 43 167 26 167 90 c 2
 167 419 l 1xef60
 155 413 142 410 127 410 c 0
 69 410 28 453 28 507 c 0
 28 562 69 605 127 605 c 0
 180 605 224 564 224 507 c 2xf6e0
 224 144 l 1xf760
 365 504 l 1
 371 512 377 526 395 526 c 256
 407 526 414 519 425 504 c 1
 573 136 l 1
 573 613 l 1
 559 607 545 604 531 604 c 0
 477 604 433 649 433 701 c 0
 433 753 474 800 531 800 c 0
78 507 m 0
 78 481 98 459 127 459 c 0
 152 459 175 479 175 507 c 0
 175 536 152 556 127 556 c 0xf6e0
 98 556 78 534 78 507 c 0
EndSplineSet
Substitution2: "Single Substitution lookup 22 subtable" uni0E2C.alt1
Substitution2: "Single Substitution lookup 22 subtable" uni0E2C.alt1
EndChar
StartChar: uni0E2D
Encoding: 3629 3629 256
Width: 629
VWidth: 1494
Flags: W
HStem: 1 56<199 483.765> 254 51<219.555 292.545> 401 50<212.714 292.52> 555 50<200.602 404.605>
VStem: 39 52<330 348 348 444.899> 154 58<69.3517 263 311.944 393.808> 300 51<312.005 394.596> 484 59<57.6786 455.926>
Fore
351 353 m 0
 351 294 304 254 253 254 c 0
 238 254 224 257 212 263 c 1
 212 91 l 2
 212 74 208 63 199 57 c 1
 484 57 l 1
 484 441 l 2
 484 454 487 464 492 472 c 1
 457 512 391 555 305 555 c 0
 180 555 91 483 91 343 c 2
 91 330 l 1
 39 330 l 1
 38 342 37 354 37 366 c 0
 37 522 174 605 303 605 c 0
 435 605 501 542 525 513 c 1
 526 514 528 515 531 515 c 0
 549 515 568 489 568 479 c 0
 568 465 543 463 543 428 c 2
 543 61 l 2
 543 38 525 1 469 1 c 2
 170 1 l 2
 158 1 159 -8 139 -8 c 0
 123 -8 111 21 111 25 c 0
 111 39 154 47 154 85 c 2
 154 353 l 2
 154 405 196 451 253 451 c 256
 309 451 351 405 351 353 c 0
300 353 m 256
 300 382 281 401 253 401 c 256
 224 401 205 381 205 353 c 256
 205 324 225 305 253 305 c 256
 281 305 300 324 300 353 c 256
EndSplineSet
EndChar
StartChar: uni0E2E
Encoding: 3630 3630 257
Width: 571
VWidth: 1494
Flags: W
HStem: 1 56<146 423.82> 172 51<168.847 239.523> 318 51<158.348 240.047> 408 57<130.726 292.672> 552 58<144.994 349.098>
VStem: 64 59<484.476 529.913> 102 49<230.541 310.033> 102 58<70.4064 85 85 181> 248 49<230.545 310.465> 426 58<57.9831 467.034>
Fore
199 172 m 0xfac0
 183 172 179 175 160 181 c 1
 160 91 l 2xf9c0
 160 74 155 63 146 57 c 1
 426 57 l 1
 426 439 l 2
 426 452 428 463 433 471 c 1
 430 475 431 473 420 480 c 1
 357 433 300 408 220 408 c 0
 86 408 64 471 64 499 c 0xfcc0
 64 554 143 610 245 610 c 0
 324 610 380 587 417 556 c 1
 444 583 479 626 508 680 c 1
 538 664 554 655 558 655 c 1
 534 603 483 540 457 514 c 1
 466 510 l 1
 467 511 469 512 471 512 c 0
 488 512 509 487 509 476 c 0
 509 461 484 456 484 423 c 2
 484 60 l 2
 484 39 469 1 411 1 c 2
 118 1 l 2
 106 1 107 -8 86 -8 c 0
 71 -8 59 21 59 26 c 0
 59 41 102 47 102 85 c 2xf9c0
 102 280 l 2
 102 333 149 369 199 369 c 0
 258 369 297 323 297 271 c 0
 297 217 257 172 199 172 c 0xfac0
248 271 m 256
 248 299 226 318 199 318 c 0
 171 318 151 297 151 271 c 256xfac0
 151 242 173 223 199 223 c 0
 226 223 248 242 248 271 c 256
245 552 m 0
 150 552 123 520 123 498 c 0xfcc0
 123 491 140 465 215 465 c 0
 262 465 291 465 372 517 c 1
 342 538 299 552 245 552 c 0
EndSplineSet
EndChar
StartChar: uni0E2F
Encoding: 3631 3631 258
Width: 536
VWidth: 1494
Flags: W
HStem: -9 21G<370.5 388.5> 356 51<164.27 280.463> 556 51<97.7877 180.51>
VStem: 42 49<468.275 548.162> 188 50<467.745 547.987> 392 58<74.7784 453>
Fore
204 407 m 0
 281 407 380 478 408 605 c 1
 460 592 l 1
 458 589 452 562 450 555 c 1
 450 82 l 2
 450 19 397 -9 380 -9 c 0
 361 -9 349 17 349 26 c 0
 349 41 367 36 383 63 c 0
 389 73 392 83 392 94 c 2
 392 453 l 1
 342 394 280 356 206 356 c 0
 140 356 42 411 42 508 c 0
 42 565 87 607 139 607 c 256
 191 607 238 565 238 508 c 0
 238 482 223 424 152 419 c 1
 169 411 186 407 204 407 c 0
188 508 m 256
 188 537 166 556 139 556 c 256
 110 556 91 536 91 508 c 256
 91 479 111 460 139 460 c 256
 166 460 188 479 188 508 c 256
EndSplineSet
EndChar
StartChar: uni0E30
Encoding: 3632 3632 259
Width: 521
VWidth: 1494
Flags: W
HStem: 2 44<208.403 300.033> 166 51<118.488 198.845> 379 44<208.403 300.033> 543 50<118.488 198.845>
VStem: 60 51<78.0691 158.075 455.069 536.096> 206 51<77.1757 158.919 454.176 535.841>
Fore
213 46 m 2
 302 46 397 115 436 214 c 1
 484 191 l 1
 421 38 302 2 219 2 c 0
 144 2 60 34 60 118 c 0
 60 174 106 217 158 217 c 256
 213 217 257 173 257 123 c 0
 257 75 230 50 208 46 c 1
 213 46 l 2
206 118 m 256
 206 147 186 166 158 166 c 256
 132 166 111 147 111 118 c 256
 111 89 132 70 158 70 c 256
 187 70 206 90 206 118 c 256
213 423 m 2
 302 423 397 492 436 590 c 1
 484 568 l 1
 421 415 302 379 219 379 c 0
 144 379 60 411 60 495 c 0
 60 551 106 593 158 593 c 256
 213 593 257 550 257 500 c 0
 257 452 230 427 208 423 c 1
 213 423 l 2
206 495 m 256
 206 524 186 543 158 543 c 256
 132 543 111 524 111 495 c 256
 111 466 132 447 158 447 c 256
 187 447 206 467 206 495 c 256
EndSplineSet
EndChar
StartChar: uni0E31
Encoding: 3633 3633 260
Width: 0
VWidth: 1494
Flags: MW
HStem: 711 46<-236.632 -83.74> 864 46<-299.918 -222.545>
VStem: -354 48<780.574 857.977> -217 48<786.335 858.236>
Fore
-170 757 m 0
 -88 757 35 832 87 952 c 1
 130 930 l 1
 70 770 -94 711 -201 711 c 0
 -333 711 -354 786 -354 818 c 0
 -354 872 -312 910 -262 910 c 256
 -208 910 -169 869 -169 818 c 0
 -169 794 -177 774 -193 759 c 1
 -186 758 -178 757 -170 757 c 0
-262 864 m 256
 -287 864 -306 847 -306 819 c 256
 -306 794 -288 774 -262 774 c 256
 -235 774 -217 794 -217 819 c 256
 -217 846 -235 864 -262 864 c 256
EndSplineSet
Substitution2: "Single Substitution lookup 22 subtable" uni0E31.alt1
Substitution2: "Single Substitution lookup 22 subtable" uni0E31.alt1
EndChar
StartChar: uni0E32
Encoding: 3634 3634 261
Width: 521
VWidth: 1494
Flags: W
HStem: 0 21G<378 436> 504 20G<423.5 434> 556 54<162.862 327.449>
VStem: 39 55<395.485 490.125> 378 58<0 463.893>
Fore
461 489 m 0
 461 474 436 471 436 436 c 2
 436 0 l 1
 378 0 l 1
 378 447 l 2
 378 460 381 470 386 478 c 1
 372 504 327 556 238 556 c 0
 141 556 103 477 94 392 c 1
 39 392 l 1
 47 518 119 610 238 610 c 0
 337 610 399 560 419 522 c 1
 420 523 422 524 425 524 c 0
 443 524 461 498 461 489 c 0
EndSplineSet
EndChar
StartChar: uni0E33
Encoding: 3635 3635 262
Width: 521
VWidth: 1494
Flags: W
HStem: 0 21<378 436> 504 20<423.5 434> 556 54<162.862 327.449> 732 53<-194.032 -99.9709> 900 52<-194.34 -99.5205>
VStem: -260 52<799.033 886.146> -87 53<798.4 886.779> 39 55<395.485 490.125> 378 58<0 463.893>
Back
-263 803 m 0
 -263 833 -252.333 858.667 -231 880 c 128
 -209.667 901.333 -183.333 912 -152 912 c 0
 -122.667 912 -97.1667 901.333 -75.5 880 c 128
 -53.8333 858.667 -43 833 -43 803 c 0
 -43 771.667 -53.8333 745.333 -75.5 724 c 128
 -97.1667 702.667 -122.667 692 -152 692 c 0
 -183.333 692 -209.667 702.667 -231 724 c 128
 -252.333 745.333 -263 771.667 -263 803 c 0
-152 744 m 0
 -136.667 744 -123.5 749.5 -112.5 760.5 c 128
 -101.5 771.5 -96 785.667 -96 803 c 0
 -96 819 -101.5 832.5 -112.5 843.5 c 128
 -123.5 854.5 -136.667 860 -152 860 c 0
 -169.333 860 -183.5 854.5 -194.5 843.5 c 128
 -205.5 832.5 -211 819 -211 803 c 0
 -211 785.667 -205.5 771.5 -194.5 760.5 c 128
 -183.5 749.5 -169.333 744 -152 744 c 0
436 0 m 1
 378 0 l 1
 378 447 l 2
 378 459.667 380.667 470 386 478 c 1
 382 485.333 376 493.5 368 502.5 c 128
 360 511.5 350 520 338 528 c 128
 326 536 311.5 542.667 294.5 548 c 128
 277.5 553.333 258.667 556 238 556 c 0
 192 556 157.833 540.5 135.5 509.5 c 128
 113.167 478.5 99.3333 439.333 94 392 c 1
 39 392 l 1
 41 422.667 46.6667 451.167 56 477.5 c 128
 65.3333 503.833 78.3333 526.667 95 546 c 128
 111.667 565.333 131.833 580.833 155.5 592.5 c 128
 179.167 604.167 206.667 610 238 610 c 0
 262.667 610 285 607.167 305 601.5 c 128
 325 595.833 342.5 588.833 357.5 580.5 c 128
 372.5 572.167 385.167 562.833 395.5 552.5 c 128
 405.833 542.167 413.667 532 419 522 c 1
 421 524 424.667 524.5 430 523.5 c 128
 435.333 522.5 442 518 450 510 c 0
 458.667 498.667 462 490.5 460 485.5 c 128
 458 480.5 453.667 474.667 447 468 c 256
 439.667 460.667 436 450 436 436 c 2
 436 0 l 1
EndSplineSet
Refer: 284 3661 N 1 0 0 1 0 0 2
Refer: 261 3634 N 1 0 0 1 0 0 2
Substitution2: "Single Substitution lookup 22 subtable" uni0E33.alt1
Substitution2: "Single Substitution lookup 22 subtable" uni0E33.alt1
EndChar
StartChar: uni0E34
Encoding: 3636 3636 263
Width: 0
VWidth: 1494
Flags: W
HStem: 694 38<-498.677 -193.661> 821 49<-408.746 -232.321>
Fore
-549 680 m 0
 -562 680 -574 700 -574 708 c 0
 -574 715 -568 707 -512 772 c 0
 -462 828 -393 870 -315 870 c 0
 -170 870 -69 722 -69 669 c 0
 -69 656 -90 642 -93 642 c 0
 -100 642 -210 694 -381 694 c 0
 -458 694 -548 680 -549 680 c 0
-121 688 m 1
 -155 748 -224 821 -312 821 c 0
 -425 821 -456 761 -496 723 c 1
 -457 729 -414 732 -367 732 c 0
 -279 732 -210 721 -121 688 c 1
EndSplineSet
Substitution2: "Single Substitution lookup 22 subtable" uni0E34.alt1
Substitution2: "Single Substitution lookup 22 subtable" uni0E34.alt1
EndChar
StartChar: uni0E35
Encoding: 3637 3637 264
Width: 0
VWidth: 1494
Flags: W
HStem: 694 38<-498.677 -193.661> 821 49<-408.177 -226.573>
VStem: -172 55<821 951>
Fore
-549 680 m 0
 -562 680 -574 700 -574 708 c 0
 -574 715 -568 707 -512 772 c 0
 -466 823 -399 870 -324 870 c 0
 -233 870 -186 833 -172 821 c 1
 -172 951 l 1
 -117 951 l 1
 -117 764 l 1
 -92 730 l 2
 -69 699 -69 680 -69 672 c 0
 -69 656 -88 642 -93 642 c 0
 -100 642 -210 694 -381 694 c 0
 -458 694 -548 680 -549 680 c 0
-496 723 m 1
 -457 729 -414 732 -367 732 c 0
 -279 732 -210 721 -121 688 c 1
 -142 723 -168 754 -200 781 c 0
 -232 808 -270 821 -314 821 c 0
 -423 821 -468 751 -496 723 c 1
EndSplineSet
Substitution2: "Single Substitution lookup 22 subtable" uni0E35.alt1
Substitution2: "Single Substitution lookup 22 subtable" uni0E35.alt1
EndChar
StartChar: uni0E36
Encoding: 3638 3638 265
Width: 0
VWidth: 1494
Flags: W
HStem: 694 38<-499.508 -241.703> 821 49<-407.581 -255.884> 906 36<-186.638 -109.011>
VStem: -229 35<849.587 899.184> -103 39<823.153 898.807>
Fore
-136 782 m 1
 -80 720 -69 693 -69 670 c 0
 -69 655 -89 642 -93 642 c 0
 -100 642 -210 694 -381 694 c 0
 -458 694 -548 680 -549 680 c 0
 -562 680 -574 700 -574 708 c 0
 -574 715 -568 707 -512 772 c 0
 -466 823 -399 870 -324 870 c 0
 -314 870 -259 868 -226 849 c 1
 -228 856 -229 863 -229 869 c 0
 -229 905 -193 942 -151 942 c 0
 -97 942 -64 904 -64 861 c 0
 -64 815 -95 789 -136 782 c 1
-498 723 m 1
 -459 729 -415 732 -368 732 c 0
 -294 732 -225 727 -121 688 c 1
 -142 723 -168 754 -201 780 c 0
 -234 808 -271 821 -312 821 c 0
 -418 821 -450 768 -498 723 c 1
-150 906 m 0
 -175 906 -194 884 -194 860 c 0
 -194 835 -170 816 -148 816 c 0
 -123 816 -103 836 -103 864 c 0
 -103 891 -130 906 -150 906 c 0
EndSplineSet
Substitution2: "Single Substitution lookup 22 subtable" uni0E36.alt1
Substitution2: "Single Substitution lookup 22 subtable" uni0E36.alt1
EndChar
StartChar: uni0E37
Encoding: 3639 3639 266
Width: 0
VWidth: 1494
Flags: W
HStem: 694 38<-500.018 -194.565> 821 49<-406.374 -233.904>
VStem: -233 49<857 951> -130 49<779 951>
Fore
-324 870 m 1
 -324 870 -265 870 -233 857 c 1
 -233 951 l 1
 -184 951 l 1
 -184 830 l 1
 -163 814 -145 797 -130 779 c 1
 -130 951 l 1
 -81 951 l 1
 -81 704 l 1
 -71 689 -69 675 -69 668 c 0
 -69 657 -89 642 -93 642 c 0
 -100 642 -210 694 -381 694 c 0
 -458 694 -548 680 -549 680 c 0
 -562 680 -574 700 -574 708 c 0
 -574 715 -568 707 -512 772 c 0
 -466 823 -399 870 -324 870 c 1
-118 686 m 1
 -153 747 -220 821 -312 821 c 0
 -423 821 -469 750 -496 723 c 1
 -459 729 -419 732 -374 732 c 0
 -285 732 -214 722 -118 686 c 1
EndSplineSet
Substitution2: "Single Substitution lookup 22 subtable" uni0E37.alt1
Substitution2: "Single Substitution lookup 22 subtable" uni0E37.alt1
EndChar
StartChar: uni0E38
Encoding: 3640 3640 267
Width: 0
VWidth: 1494
Flags: W
HStem: -247 48<-216.496 -153.326> -109 49<-217.45 -141.2>
VStem: -274 50<-191.392 -115.633> -144 59<-365 -241> -135 50<-193.514 -116.531>
Fore
-179 -60 m 256xf0
 -129 -60 -85 -100 -85 -154 c 2xe8
 -85 -365 l 1
 -144 -365 l 1
 -144 -241 l 1
 -155 -245 -166 -247 -179 -247 c 0
 -223 -247 -274 -212 -274 -154 c 0
 -274 -103 -234 -60 -179 -60 c 256xf0
-224 -154 m 0
 -224 -179 -202 -199 -179 -199 c 0
 -154 -200 -135 -179 -135 -154 c 256
 -135 -130 -152 -109 -179 -109 c 0
 -203 -109 -224 -127 -224 -154 c 0
EndSplineSet
Substitution2: "Single Substitution lookup 21 subtable" a
Substitution2: "Single Substitution lookup 22 subtable" uni0E38.alt1
Substitution2: "Single Substitution lookup 21 subtable" a
Substitution2: "Single Substitution lookup 22 subtable" uni0E38.alt1
EndChar
StartChar: uni0E39
Encoding: 3641 3641 268
Width: 0
VWidth: 1494
Flags: W
HStem: -354 58<-232 -144> -248 49<-356.75 -288.678> -108 50<-357.708 -280.859>
VStem: -414 49<-191.167 -115.562> -283 59<-283.623 -241> -275 51<-192.671 -113.688> -144 59<-296 -61>
Fore
-320 -58 m 0xfa
 -274 -58 -224 -96 -224 -152 c 2xf6
 -224 -253 l 2
 -224 -272 -227 -286 -232 -296 c 1
 -144 -296 l 1
 -144 -61 l 1
 -85 -61 l 1
 -85 -299 l 2
 -85 -332 -110 -354 -141 -354 c 2
 -265 -354 l 1
 -271 -358 -278 -366 -288 -366 c 0
 -299 -366 -320 -346 -320 -333 c 0
 -320 -315 -283 -311 -283 -274 c 2
 -283 -241 l 1
 -296 -246 -308 -248 -320 -248 c 0
 -371 -248 -414 -207 -414 -152 c 256
 -414 -102 -374 -58 -320 -58 c 0xfa
-365 -152 m 256
 -365 -175 -347 -199 -320 -199 c 256
 -294 -199 -275 -180 -275 -152 c 256
 -275 -127 -292 -108 -320 -108 c 0
 -345 -108 -365 -130 -365 -152 c 256
EndSplineSet
Substitution2: "Single Substitution lookup 21 subtable" b
Substitution2: "Single Substitution lookup 22 subtable" uni0E39.alt1
Substitution2: "Single Substitution lookup 21 subtable" b
Substitution2: "Single Substitution lookup 22 subtable" uni0E39.alt1
EndChar
StartChar: uni0E3A
Encoding: 3642 3642 269
Width: 0
VWidth: 1494
Flags: W
HStem: -203 110<-174.644 -83.3562>
VStem: -185 112<-166.45 -129.55>
Fore
-73 -148 m 0
 -73 -166 -84 -203 -129 -203 c 0
 -174 -203 -185 -167 -185 -148 c 0
 -185 -129 -174 -93 -129 -93 c 0
 -84 -93 -73 -130 -73 -148 c 0
EndSplineSet
Substitution2: "Single Substitution lookup 21 subtable" c
Substitution2: "Single Substitution lookup 22 subtable" uni0E3A.alt1
Substitution2: "Single Substitution lookup 21 subtable" c
Substitution2: "Single Substitution lookup 22 subtable" uni0E3A.alt1
EndChar
StartChar: uni0E3F
Encoding: 3647 3647 270
Width: 550
VWidth: 1494
Flags: W
HStem: 1 57<118 224 274 379.541> 341 55<118 224> 650 60<118 224 274 355.122>
VStem: 61 57<58 341 396 650> 224 50<-75 1 58 341 399 650 710 786> 395 58<456.954 611.237> 436 57<113.686 278.493>
Fore
274 399 m 1xfc
 302 403 395 425 395 531 c 0
 395 615 356 646 274 650 c 1
 274 399 l 1xfc
118 396 m 1
 224 396 l 1
 224 650 l 1
 118 650 l 1
 118 396 l 1
224 58 m 1
 224 341 l 1
 118 341 l 1
 118 58 l 1
 224 58 l 1
436 203 m 0xfa
 436 258 411 333 274 341 c 1
 274 58 l 1
 365 58 436 81 436 203 c 0xfa
493 206 m 0
 493 42 392 1 306 1 c 2
 274 1 l 1
 274 -75 l 1
 224 -75 l 1
 224 1 l 1
 61 1 l 1
 61 650 l 2
 61 673 38 673 38 692 c 0
 38 701 51 722 75 722 c 0
 83 722 90 718 97 710 c 1
 224 710 l 1
 224 786 l 1
 274 786 l 1
 274 710 l 1
 422 705 453 593 453 537 c 0xfc
 453 430 380 382 332 375 c 1
 410 367 493 307 493 206 c 0
EndSplineSet
EndChar
StartChar: uni0E40
Encoding: 3648 3648 271
Width: 312
VWidth: 1494
Flags: W
HStem: -7 50<163.103 244.942> 141 49<170.769 243.538> 578 20G<103 163>
VStem: 103 60<181 598> 103 52<52.2345 132.97> 253 50<51.4723 132.783>
Fore
205 -7 m 0xf4
 152 -7 110 31 103 81 c 2xec
 103 598 l 1
 163 598 l 1
 163 181 l 1
 175 187 189 190 205 190 c 0
 258 190 303 148 303 91 c 0
 303 35 257 -7 205 -7 c 0xf4
155 91 m 256
 155 62 177 43 205 43 c 0
 229 43 253 61 253 91 c 256
 253 120 230 141 205 141 c 0
 175 141 155 118 155 91 c 256
EndSplineSet
EndChar
StartChar: uni0E41
Encoding: 3649 3649 272
Width: 575
VWidth: 1494
Flags: W
HStem: -7 50<163.103 244.942 426.58 508.03> 141 49<170.769 243.538 433.918 507.283> 578 20G<103 163 366 426>
VStem: 103 60<181 598> 103 52<52.2345 132.97> 253 50<51.4723 132.783> 366 60<52.2345 133.219 181 598> 516 51<51.4723 132.093>
Fore
205 -7 m 0xf7
 152 -7 110 31 103 81 c 2xef
 103 598 l 1
 163 598 l 1
 163 181 l 1
 175 187 189 190 205 190 c 0
 258 190 303 148 303 91 c 0
 303 35 257 -7 205 -7 c 0xf7
155 91 m 256
 155 62 177 43 205 43 c 0
 229 43 253 61 253 91 c 256
 253 120 230 141 205 141 c 0
 175 141 155 118 155 91 c 256
468 -7 m 0
 415 -7 373 31 366 81 c 2
 366 598 l 1
 426 598 l 1
 426 181 l 1
 438 187 452 190 468 190 c 0
 519 190 567 150 567 91 c 0
 567 35 520 -7 468 -7 c 0
419 91 m 256
 419 62 441 43 468 43 c 0
 492 43 516 61 516 91 c 256
 516 120 493 141 468 141 c 0
 439 141 419 119 419 91 c 256
EndSplineSet
EndChar
StartChar: uni0E42
Encoding: 3650 3650 273
Width: 378
VWidth: 1494
Flags: W
HStem: -9 49<228.973 307.425> 136 49<237.393 307.425> 897 40<33 107.517> 1058 53<136.301 308.314>
VStem: 172 58<176 789> 172 49<47.9146 128.808> 315 50<46.9906 128.006>
Fore
221 88 m 0xf6
 221 59 242 40 268 40 c 0
 294 40 315 59 315 88 c 0
 315 116 294 136 268 136 c 0
 242 136 221 116 221 88 c 0xf6
-21 882 m 0
 -34 882 -50 898 -50 908 c 0
 -50 918 -41 921 -22 954 c 0
 -9 974 70 1111 208 1111 c 0
 355 1111 419 1027 453 960 c 1
 407 933 l 1
 386 975 337 1058 211 1058 c 0
 128 1058 48 973 33 937 c 1
 131 937 198 880 218 856 c 0
 234 834 243 834 243 818 c 0
 243 806 237 796 230 789 c 1
 230 176 l 1xfa
 242 182 255 185 268 185 c 0
 320 185 365 145 365 88 c 256
 365 32 320 -9 268 -9 c 0
 216 -9 176 30 172 82 c 2
 172 828 l 1
 122 878 72 897 6 897 c 0
 -2 897 -7 882 -21 882 c 0
EndSplineSet
EndChar
StartChar: uni0E43
Encoding: 3651 3651 274
Width: 378
VWidth: 1494
Flags: MW
HStem: -7 49<227.912 308.855> 138 49<237.34 308.298> 786 56<81.7142 171.749> 928 58<109.089 176.06> 1058 53<104.829 268.176>
VStem: -17 53<869.489 994.923> 172 49<50.7969 130.467> 172 58<178 673> 180 53<862.335 915.602> 317 49<50.3395 129.262> 347 58<868 967.984>
Fore
191 1111 m 0
 331 1111 405 1016 405 867 c 0
 405 805 385 848 264 727 c 0
 251 714 239 702 230 691 c 1
 230 178 l 1
 242 184 255 187 269 187 c 0
 325 187 366 142 366 90 c 256
 366 33 321 -7 269 -7 c 256
 217 -7 172 33 172 90 c 2
 172 673 l 1
 165 675 161 684 161 694 c 0
 161 706 163 713 220 764 c 0
 242 784 335 862 347 868 c 1
 347 975 289 1058 194 1058 c 0
 97 1058 36 1000 36 926 c 0
 36 854 104 842 124 842 c 0
 168 842 180 873 180 887 c 0
 180 901 174 928 147 928 c 0
 129 928 131 919 121 919 c 0
 111 919 87 945 87 952 c 0
 87 958 114 986 152 986 c 0
 195 986 233 947 233 891 c 0
 233 849 201 786 119 786 c 0
 71 786 -17 815 -17 929 c 0
 -17 1049 86 1111 191 1111 c 0
317 90 m 0
 317 117 293 138 269 138 c 0
 239 138 221 114 221 90 c 0
 221 61 241 42 269 42 c 0
 293 42 317 60 317 90 c 0
EndSplineSet
EndChar
StartChar: uni0E44
Encoding: 3652 3652 275
Width: 378
VWidth: 1494
Flags: MW
HStem: -7 50<227.937 309.994> 139 49<236.024 308.851> 997 58<297 320.5>
VStem: 156 74<666.739 710> 170 60<181 656> 170 51<50.7969 131.312> 317 49<50.4945 130.757> 366 70<889 912>
Fore
317 91 m 0xc6
 317 117 298 139 269 139 c 256
 240 139 221 117 221 91 c 0
 221 62 241 43 269 43 c 256
 298 43 317 63 317 91 c 0xc6
91 871 m 1
 71 922 28 990 -105 1027 c 1
 -67 1067 l 1
 7 1037 79 998 117 927 c 1
 158 982 208 1019 256 1038 c 2
 256 1038 299 1055 303 1055 c 0
 338 1055 436 916 436 889 c 0
 436 862 399 861 390 860 c 1
 323 831 255 758 230 710 c 1xd2
 230 181 l 1xca
 243 186 256 188 269 188 c 0
 321 188 366 148 366 91 c 0
 366 32 320 -7 269 -7 c 256
 218 -7 170 32 170 91 c 2xc6
 170 656 l 1xca
 161 662 156 670 156 679 c 0xd2
 156 724 254 860 366 912 c 1
 360 932 318 985 297 997 c 1
 257 978 l 2
 151 930 143 847 119 847 c 0
 98 847 87 854 91 871 c 1
EndSplineSet
EndChar
StartChar: uni0E45
Encoding: 3653 3653 276
Width: 521
VWidth: 1494
Flags: W
HStem: 504 20G<423.5 434> 556 54<162.862 327.449>
VStem: 39 55<395.485 490.125> 378 58<-363 463.893>
Fore
461 489 m 0
 461 474 436 471 436 436 c 2
 436 -363 l 1
 378 -363 l 1
 378 447 l 2
 378 460 381 470 386 478 c 1
 372 504 327 556 238 556 c 0
 141 556 103 477 94 392 c 1
 39 392 l 1
 47 518 119 610 238 610 c 0
 337 610 399 560 419 522 c 1
 420 523 422 524 425 524 c 0
 443 524 461 498 461 489 c 0
EndSplineSet
EndChar
StartChar: uni0E46
Encoding: 3654 3654 277
Width: 591
VWidth: 1494
Flags: W
HStem: 302 49<129.243 208.811> 448 51<136.091 210.471> 548 52<150.779 257.164>
VStem: 55 65<359.343 479.934> 217 51<358.591 440.76> 402 58<-311.814 411.123>
Fore
217 401 m 256
 217 429 198 448 169 448 c 256
 142 448 120 430 120 401 c 256
 120 373 140 351 169 351 c 256
 198 351 217 373 217 401 c 256
421 602 m 0
 443 602 492 550 507 528 c 1
 510 528 l 0
 529 528 545 501 545 494 c 0
 545 468 460 441 460 317 c 2
 460 -274 l 2
 460 -346 393 -367 386 -367 c 0
 375 -367 359 -345 359 -337 c 0
 359 -315 402 -315 402 -274 c 2
 402 329 l 2
 402 377 435 450 468 483 c 1
 468 483 469 484 469 485 c 0
 469 492 453 523 420 544 c 1
 408 535 384 515 365 492 c 1
 368 485 369 479 369 475 c 0
 369 459 339 449 330 449 c 0
 311 449 289 548 212 548 c 0
 171 548 127 517 117 481 c 1
 130 495 159 499 169 499 c 0
 225 499 268 453 268 401 c 0
 268 342 220 302 169 302 c 0
 94 302 55 371 55 437 c 0
 55 514 112 600 215 600 c 0
 241 600 298 595 336 534 c 1
 361 556 396 602 421 602 c 0
EndSplineSet
EndChar
StartChar: uni0E47
Encoding: 3655 3655 278
Width: 0
VWidth: 1494
Flags: W
HStem: 684 53<-240.645 -165.058> 795 43<-207.276 -165.328> 888 46<-403.407 -302.177 -302.177 -170.158>
VStem: -468 45<758.88 868.317> -259 44<741.518 794.232> -157 44<738.24 793.133> -79 45<983.471 1068.17>
Fore
-113 761 m 0
 -113 728 -143 684 -210 684 c 0
 -263 684 -313 697 -341 767 c 1
 -354 754 -370 730 -377 704 c 1
 -377 690 -398 687 -403 687 c 0
 -419 687 -468 734 -468 810 c 0
 -468 895 -420 934 -327 934 c 0
 -298 934 -293 933 -278 933 c 0
 -193 933 -105 964 -79 1069 c 1
 -72.3068 1069 -37.8268 1058.28 -34 1057 c 1
 -75 898 -207 888 -293 888 c 0
 -386 888 -423 878 -423 809 c 0
 -423 803 -421 758 -407 741 c 1
 -399 761 -380 798 -350 813 c 1
 -342 821 -353 832 -327 832 c 0
 -317 832 -309 831 -306 813 c 1
 -306 812 l 1
 -285 750 -263 736 -247 728 c 1
 -255 739 -259 751 -259 765 c 0
 -259 807 -224 838 -187 838 c 0
 -142 838 -113 799 -113 761 c 0
-187 795 m 0
 -198 795 -215 788 -215 766 c 0
 -215 744 -198 737 -187 737 c 0
 -178 737 -157 742 -157 765 c 0
 -157 789 -177 795 -187 795 c 0
EndSplineSet
Substitution2: "Single Substitution lookup 22 subtable" uni0E47.alt1
Substitution2: "Single Substitution lookup 22 subtable" uni0E47.alt1
EndChar
StartChar: uni0E48
Encoding: 3656 3656 279
Width: 0
VWidth: 1494
Flags: W
HStem: 1016 220<-172 -117 -172 -117 -172 -172>
VStem: -172 55<1016 1236>
Fore
-117 1236 m 1
 -117 1016 l 1
 -172 1016 l 1
 -172 1236 l 1
 -117 1236 l 1
EndSplineSet
Substitution2: "Single Substitution lookup 22 subtable" uni0E48.alt2
Substitution2: "Single Substitution lookup 22 subtable" uni0E48.alt2
EndChar
StartChar: uni0E49
Encoding: 3657 3657 280
Width: 0
VWidth: 1494
Flags: W
HStem: 991 40<-240.514 -212.661 -212.661 -202> 1085 40<-216.105 -163.551> 1202 42<-214.448 -148.378>
VStem: -262 43<1127.19 1188.37> -144 52<1098.67 1187.51> 49 45<1119.04 1237.3>
Fore
-144 1034 m 1
 -75 1046 14 1099 49 1239 c 1
 94 1226 l 1
 77 1167 54 1122 24 1089 c 0
 -61 997 -142 991 -206 991 c 0
 -236 991 -241 1000 -241 1006 c 0
 -241 1014 -230 1031 -223 1031 c 0
 -217 1031 -215 1030 -202 1030 c 1
 -175 1043 -165 1055 -149 1091 c 1
 -160 1087 -171 1085 -182 1085 c 0
 -224 1085 -262 1116 -262 1162 c 0
 -262 1200 -235 1244 -180 1244 c 0
 -117 1244 -92 1188 -92 1144 c 0
 -92 1100 -110 1062 -144 1034 c 1
-184 1125 m 0
 -174 1125 -144 1132 -144 1161 c 0
 -144 1176 -152 1202 -185 1202 c 0
 -216 1198 -219 1169 -219 1161 c 0
 -219 1142 -207 1125 -184 1125 c 0
EndSplineSet
Substitution2: "Single Substitution lookup 22 subtable" uni0E49.alt2
Substitution2: "Single Substitution lookup 22 subtable" uni0E49.alt2
EndChar
StartChar: uni0E4A
Encoding: 3658 3658 281
Width: 0
VWidth: 1494
Flags: W
HStem: 1006 248 1007 32<-288.355 -249.574> 1095 37<-295.018 -249.244> 1183 42<-295.193 -195.06 -146.329 -83.8357>
VStem: -351 39<1105 1165.12> -241 39<1040.37 1093.24> -75 40<1077.93 1173.93> 39 42<1180.66 1242>
Fore
-58 1052 m 1x7f
 -0 1076 39 1119 39 1225 c 2x7f
 39 1242 l 1
 63 1247 76 1254 81 1254 c 1
 81 1243 l 2
 81 1196 82 1086 -14 1034 c 0
 -45 1018 -88 1006 -96 1006 c 0x8f
 -106 1006 -113 1025 -113 1030 c 0
 -113 1033 -110 1035 -103 1039 c 1
 -92 1049 -75 1079 -75 1117 c 0
 -75 1170 -101 1180 -118 1180 c 0
 -135 1180 -146 1168 -148 1152 c 1
 -143 1135 -141 1125 -136 1108 c 1
 -173 1108 l 1
 -183 1147 -197 1183 -248 1183 c 0
 -284 1183 -312 1153 -312 1113 c 2
 -312 1105 l 1
 -305 1119 -285 1132 -263 1132 c 0
 -226 1132 -202 1105 -202 1069 c 0
 -202 1032 -234 1007 -270 1007 c 0
 -329 1007 -351 1070 -351 1113 c 0
 -351 1172 -307 1225 -248 1225 c 0
 -215 1225 -187 1211 -172 1187 c 1
 -165 1198 -148 1225 -112 1225 c 0
 -86 1225 -35 1201 -35 1133 c 0
 -35 1102 -45 1073 -58 1052 c 1x7f
-270 1095 m 0
 -284 1095 -296 1082 -296 1067 c 0
 -296 1049 -281 1039 -269 1039 c 0
 -258 1039 -241 1048 -241 1069 c 0
 -241 1090 -264 1095 -270 1095 c 0
EndSplineSet
Substitution2: "Single Substitution lookup 22 subtable" uni0E4A.alt2
Substitution2: "Single Substitution lookup 22 subtable" uni0E4A.alt2
EndChar
StartChar: uni0E4B
Encoding: 3659 3659 282
Width: 0
VWidth: 1494
Flags: W
HStem: 1105 52<-274 -170 -118 -13>
VStem: -170 52<1015 1105 1157 1245>
Fore
-118 1105 m 1
 -118 1015 l 1
 -170 1015 l 1
 -170 1105 l 1
 -274 1105 l 1
 -274 1157 l 1
 -170 1157 l 1
 -170 1245 l 1
 -118 1245 l 1
 -118 1157 l 1
 -13 1157 l 1
 -13 1105 l 1
 -118 1105 l 1
EndSplineSet
Substitution2: "Single Substitution lookup 22 subtable" uni0E4B.alt2
Substitution2: "Single Substitution lookup 22 subtable" uni0E4B.alt2
EndChar
StartChar: uni0E4C
Encoding: 3660 3660 283
Width: 0
VWidth: 1494
Flags: W
HStem: 898 44<-253.873 -177.325>
VStem: -306 45<949.282 1023.35> -170 46<948.75 1024.85> -43 46<1136.97 1180.65>
Fore
-214 898 m 0
 -259 898 -306 929 -306 996 c 0
 -306 1059 -245 1090 -196 1100 c 0
 -69 1127 -50 1153 -43 1191 c 1
 3 1172 l 1
 -15 1093 -94 1075 -175 1058 c 1
 -145 1048 -124 1014 -124 985 c 0
 -124 936 -162 898 -214 898 c 0
-217 942 m 0
 -188 942 -170 963 -170 987 c 0
 -170 1010 -190 1031 -213 1031 c 0
 -234 1031 -261 1015 -261 989 c 0
 -261 955 -235 942 -217 942 c 0
EndSplineSet
Substitution2: "Single Substitution lookup 22 subtable" uni0E4C.alt2
Substitution2: "Single Substitution lookup 22 subtable" uni0E4C.alt2
EndChar
StartChar: uni0E4D
Encoding: 3661 3661 284
Width: 0
VWidth: 1494
Flags: W
HStem: 732 53<-194.032 -99.9709> 900 52<-194.34 -99.5205>
VStem: -260 52<799.033 886.146> -87 53<798.4 886.779>
Fore
-146 732 m 0
 -210 732 -260 782 -260 843 c 0
 -260 903 -210 952 -146 952 c 0
 -89 952 -34 906 -34 843 c 0
 -34 779 -89 732 -146 732 c 0
-208 843 m 0
 -208 808 -180 785 -146 785 c 0
 -116 785 -87 808 -87 843 c 0
 -87 877 -116 900 -146 900 c 0
 -179 900 -208 877 -208 843 c 0
EndSplineSet
Substitution2: "Single Substitution lookup 22 subtable" uni0E4D.alt1
Substitution2: "Single Substitution lookup 22 subtable" uni0E4D.alt1
EndChar
StartChar: uni0E4E
Encoding: 3662 3662 285
Width: 0
VWidth: 1494
Flags: W
HStem: 659 35<-251.766 -177.288 -182.494 -172.082 -172.082 -161> 981 13<-127.511 -91 -91 -79>
VStem: -321 61<705.176 784.401> -234 55<863.018 939.525>
Fore
-234 897 m 0
 -234 936 -213 994 -91 994 c 0
 -79 994 l 1
 -51 981 l 1
 -101 979 -179 951 -179 892 c 0
 -179 880 -176 852 -132 842 c 1
 -142 818 l 1
 -218 811 -260 782 -260 738 c 0
 -260 709 -229 694 -185 694 c 0
 -170 694 -158 694 -149 695 c 1
 -161 664 l 1
 -184 661 -204 659 -221 659 c 0
 -285 659 -318 683 -321 732 c 0
 -318 793 -278 828 -200 837 c 1
 -222 853 -234 874 -234 897 c 0
EndSplineSet
Substitution2: "Single Substitution lookup 22 subtable" uni0E4E.alt1
Substitution2: "Single Substitution lookup 22 subtable" uni0E4E.alt1
EndChar
StartChar: uni0E4F
Encoding: 3663 3663 286
Width: 674
VWidth: 1494
Flags: W
HStem: -4 50<247.748 424.791> 99 53<275.373 396.18> 344 52<276.645 396.18> 448 53<245.483 427.317>
VStem: 84 52<156.656 336.913> 188 53<186.459 308.891> 432 52<187.512 307.986> 537 52<156.831 339.027>
Fore
336 152 m 256
 393 152 432 196 432 248 c 0
 432 298 393 344 336 344 c 256
 279 344 241 297 241 248 c 0
 241 193 284 152 336 152 c 256
336 396 m 256
 422 396 484 328 484 248 c 256
 484 168 422 99 336 99 c 256
 254 99 188 166 188 248 c 256
 188 329 253 396 336 396 c 256
336 46 m 0
 451 46 537 139 537 248 c 0
 537 357 453 448 336 448 c 0
 229 448 136 364 136 248 c 256
 136 131 229 46 336 46 c 0
84 248 m 256
 84 392 199 501 336 501 c 0
 476 501 589 385 589 248 c 0
 589 111 480 -4 336 -4 c 256
 196 -4 84 108 84 248 c 256
EndSplineSet
EndChar
StartChar: uni0E50
Encoding: 3664 3664 287
Width: 696
VWidth: 1494
Flags: W
HStem: -10 47<251.367 447.327> 380 48<251.742 445.776>
VStem: 91 50<133.233 284.76> 555 50<135.04 282.238>
Fore
605 208 m 256
 605 66 462 -10 348 -10 c 0
 216 -10 91 81 91 208 c 0
 91 322 200 428 348 428 c 0
 462 428 605 350 605 208 c 256
348 380 m 256
 250 380 141 315 141 208 c 256
 141 98 256 37 348 37 c 0
 464 37 555 116 555 208 c 0
 555 305 457 380 348 380 c 256
EndSplineSet
EndChar
StartChar: uni0E51
Encoding: 3665 3665 288
Width: 730
VWidth: 1494
Flags: W
HStem: -2 47<216.637 298.744> 176 51<302.618 384.783> 365 57<266.831 463.47>
VStem: 100 60<102.621 266.197> 242 52<86.4854 168.04> 393 51<85.9361 167.321> 573 58<81.4078 258.421>
Fore
369 422 m 0
 508 422 631 322 631 172 c 0
 631 72 582 -14 441 -79 c 1
 416 -31 l 1
 477 -4 573 50 573 172 c 0
 573 279 487 365 369 365 c 0
 253 365 160 294 160 186 c 0
 160 79 240 45 277 45 c 0
 285 45 292 46 299 48 c 1
 261 54 242 100 242 127 c 0
 242 187 291 227 344 227 c 256
 414 227 444 166 444 124 c 0
 444 61 373 -2 282 -2 c 0
 175 -2 100 79 100 184 c 0
 100 327 217 422 369 422 c 0
393 127 m 256
 393 156 371 176 344 176 c 256
 316 176 294 156 294 127 c 256
 294 98 316 78 344 78 c 256
 373 78 393 100 393 127 c 256
EndSplineSet
EndChar
StartChar: uni0E52
Encoding: 3666 3666 289
Width: 742
VWidth: 1494
Flags: W
HStem: 0 57<157 602.891> 96 48<266.681 347.424> 238 49<266.761 347.137> 363 56<280.031 380.46 495.384 584.935>
VStem: 103 54<58 84.2001 84.2001 222.94> 193 55<251 330.014> 354 48<151.501 229.908> 438 51<233 267.615> 605 54<60.198 322.672>
Fore
680 340 m 0
 680 324 659 332 659 294 c 2
 659 88 l 2
 659 35 621 -0 564 0 c 2
 94 0 l 2
 81 0 81 6 81 30 c 0
 81 52 86 53 103 58 c 1
 103 112 l 2
 103 281 76 496 -6 614 c 1
 37 652 l 1
 155 485 158 193 158 112 c 0
 158 87 157 69 157 57 c 1
 564 57 l 2
 591 57 605 68 605 90 c 2
 605 302 l 2
 605 314 607 322 611 327 c 1
 591 361 561 363 541 363 c 0
 488 363 480 310 480 293 c 1
 482 287 489 257 489 233 c 1
 438 233 l 1
 434 301 404 363 331 363 c 0
 298 363 248 339 248 251 c 1
 258 272 284 287 306 287 c 0
 363 287 402 241 402 191 c 0
 402 139 363 96 306 96 c 256
 228 96 193 175 193 244 c 0
 193 330 241 419 338 419 c 0
 355 419 419 412 450 363 c 1
 461 398 505 421 548 421 c 0
 585 421 622 401 641 369 c 1
 643 371 646 372 650 372 c 0
 666 372 680 347 680 340 c 0
354 191 m 0
 354 217 335 238 306 238 c 0
 281 238 260 219 260 191 c 0
 260 163 281 144 306 144 c 0
 335 144 354 163 354 191 c 0
EndSplineSet
EndChar
StartChar: uni0E53
Encoding: 3667 3667 290
Width: 768
VWidth: 1494
Flags: W
HStem: -9 51<199.901 281.907> 141 52<199.495 281.274> 360 60<199.301 336.917 500.625 621.356>
VStem: 79 58<122.726 293.079> 290 52<49.8397 132.945> 396 60<17.3137 299.357> 628 54<0 323.489>
Fore
290 91 m 256
 290 119 270 141 241 141 c 256
 211 141 191 118 191 91 c 256
 191 62 213 42 241 42 c 256
 270 42 290 64 290 91 c 256
554 416 m 0
 596 416 635 401 664 369 c 1
 666 371 669 372 673 372 c 0
 688 372 702 347 702 340 c 0
 702 323 682 334 682 294 c 2
 682 0 l 1
 628 0 l 1
 628 302 l 2
 628 315 630 324 634 329 c 1
 617 345 594 361 560 361 c 0
 518 361 456 327 456 235 c 2
 456 24 l 2
 456 19 453 16 447 16 c 0
 405 16 l 0
 399 16 396 19 396 24 c 2
 396 235 l 2
 387 303 342 360 271 360 c 0
 164 360 137 266 137 196 c 0
 137 166 140 134 152 96 c 1
 152 151 185 193 241 193 c 0
 297 193 342 152 342 91 c 0
 342 36 300 -9 241 -9 c 0
 126 -9 79 108 79 207 c 0
 79 352 176 420 269 420 c 0
 305 420 376 408 425 324 c 1
 443 395 510 416 554 416 c 0
EndSplineSet
EndChar
StartChar: uni0E54
Encoding: 3668 3668 291
Width: 745
VWidth: 1494
Flags: MW
HStem: 0 54<223 410 460.202 638> 115 43<408 430.864> 257 52<349.493 431.334> 363 56<290 290> 585 20G<721 804>
VStem: 91 59<155.249 314.728> 290 51<165.799 248.492> 439 53<166.269 248.907>
Fore
492 208 m 0
 492 168 460 115 408 115 c 1
 432 96 l 2
 441 88 487 54 512 54 c 2
 638 54 l 1
 638 0 l 1
 182 0 l 2
 159 0 151 37 151 37 c 1
 151 45 161 50 163 51 c 1
 152 70 91 174 91 255 c 0
 91 321 130 412 291 419 c 1
 484 419 693 452 749 605 c 1
 804 587 l 1
 716 349 330 369 290 363 c 1
 168 349 150 297 150 252 c 0
 150 173 206 81 223 54 c 1
 410 54 l 1
 358 84 290 145 290 205 c 0
 290 257 327 309 390 309 c 0
 445 309 492 267 492 208 c 0
439 208 m 256
 439 237 417 257 390 257 c 256
 361 257 341 235 341 208 c 256
 341 180 361 158 390 158 c 256
 419 158 439 180 439 208 c 256
EndSplineSet
EndChar
StartChar: uni0E55
Encoding: 3669 3669 292
Width: 745
VWidth: 1494
Flags: MW
HStem: 0 54<223 410 460.202 638> 115 43<408 430.864> 257 52<349.493 431.334> 363 56<290 290> 513 57<380.219 455.288> 585 20G<730.5 804>
VStem: 91 59<155.249 315.325> 290 51<165.799 248.492> 317 58<440.156 507.231> 439 53<166.269 248.907> 462 55<442.555 506.774>
Fore
419 570 m 0xeec0
 472 570 517 527 517 473 c 0
 517 462 515 450 511 438 c 1
 623 464 712 508 749 605 c 1
 804 587 l 1
 716 349 330 369 290 363 c 0
 168 349 150 297 150 252 c 0
 150 173 206 81 223 54 c 1
 410 54 l 1
 358 84 290 145 290 205 c 0xef20
 290 257 327 309 390 309 c 0
 445 309 492 267 492 208 c 0
 492 168 460 115 408 115 c 1
 432 96 l 2
 441 88 487 54 512 54 c 2
 638 54 l 1
 638 0 l 1
 182 0 l 2
 159 0 151 37 151 37 c 1
 151 45 161 50 163 51 c 1
 152 70 91 174 91 255 c 0
 91 321 135 419 291 419 c 2
 338 419 l 1
 324 435 317 451 317 471 c 0
 317 523 360 570 419 570 c 0xeec0
418 513 m 0
 393 513 375 496 375 470 c 0xeea0
 375 444 395 426 419 426 c 0
 442 426 462 444 462 469 c 0
 462 495 442 513 418 513 c 0
439 208 m 256xef40
 439 237 417 257 390 257 c 256
 361 257 341 235 341 208 c 256
 341 180 361 158 390 158 c 256
 419 158 439 180 439 208 c 256xef40
EndSplineSet
EndChar
StartChar: uni0E56
Encoding: 3670 3670 293
Width: 665
VWidth: 1494
Flags: W
HStem: -9 52<287 295.5 244.77 398.578> 158 51<173.901 256.734> 382 54<237.339 438.443>
VStem: -93 60<570.44 616> 115 51<68.8732 149.679> 265 52<77.0684 150.099> 516 60<152.135 306.077>
Fore
90 319 m 0
 90 323 97 334 99 338 c 1
 7 427 -93 572 -93 616 c 1
 -33 620 l 1
 -27 580 30 501 98 425 c 2
 144 375 l 1
 203 423 282 436 340 436 c 0
 529 436 576 304 576 228 c 0
 576 117 473 -9 292 -9 c 0
 221 -9 115 15 115 109 c 0
 115 167 160 209 215 209 c 0
 275 209 317 164 317 109 c 0
 317 89 307 56 287 43 c 1
 293 43 298 42 304 42 c 0
 415 42 516 130 516 229 c 0
 516 281 483 382 346 382 c 0
 269 382 187 347 142 300 c 0
 137 295 132 292 126 292 c 0
 111 292 90 308 90 319 c 0
265 109 m 256
 265 138 243 158 215 158 c 256
 186 158 166 136 166 109 c 256
 166 80 188 60 215 60 c 256
 243 60 265 80 265 109 c 256
EndSplineSet
EndChar
StartChar: uni0E57
Encoding: 3671 3671 294
Width: 899
VWidth: 1494
Flags: W
HStem: -4 50<183.882 267.099> 145 52<183.474 267.16> 363 60<192.272 331.471 476.346 593.578>
VStem: 74 58<163.543 293.904> 275 51<53.7183 136.696> 381 60<38.0679 308.054> 638 51<180.452 308.116> 871 50<483.68 625.451>
Fore
683 173 m 1
 775 316 863 586 871 634 c 1
 921 617 l 1
 879 453 733 114 622 -3 c 0
 618 -7 613 -9 609 -9 c 0
 597 -9 573 7 573 19 c 0
 573 30 609 40 630 136 c 0
 635 160 638 185 638 212 c 0
 638 275 617 359 532 359 c 0
 459 359 441 280 441 251 c 2
 441 43 l 2
 441 39 436 37 411 37 c 258
 390 37 l 2
 384 37 381 39 381 43 c 2
 381 248 l 2
 371 329 311 363 265 363 c 0
 170 363 132 276 132 206 c 0
 132 187 135 169 141 151 c 1
 149 163 175 197 226 197 c 0
 281 197 326 154 326 96 c 256
 326 38 281 -4 226 -4 c 0
 117 -4 74 112 74 212 c 0
 74 347 166 423 266 423 c 0
 352 423 397 349 410 326 c 1
 425 362 462 420 541 420 c 0
 644 420 689 322 689 231 c 0
 689 211 687 191 683 173 c 1
275 96 m 256
 275 125 253 145 226 145 c 256
 199 145 175 125 175 96 c 256
 175 69 196 46 226 46 c 256
 255 46 275 68 275 96 c 256
EndSplineSet
EndChar
StartChar: uni0E58
Encoding: 3672 3672 295
Width: 793
VWidth: 1494
Flags: MW
HStem: 0 54<212 266 507.273 635.838> 158 53<558.029 640.656> 359 60<288 290>
VStem: 91 58<177.188 313.095> 498 52<67.9651 149.74> 649 51<67.9436 150.058>
Fore
181 0 m 2
 158 0 154 34 154 34 c 1
 154 39 157 42 163 45 c 1
 115 129 91 200 91 257 c 0
 91 322 131 412 288 419 c 0
 543 433 704 488 752 619 c 1
 807 598 l 1
 724 371 361 366 290 359 c 0
 160 348 149 289 149 243 c 0
 149 205 157 146 212 54 c 1
 266 54 l 1
 353 241 l 2
 354 244 357 246 360 246 c 0
 368 246 397 228 401 226 c 0
 404 225 405 223 405 220 c 0
 405 218 405 217 404 215 c 2
 384 175 l 1
 405 81 492 45 526 42 c 1
 507 60 498 80 498 106 c 0
 498 164 545 211 599 211 c 0
 659 211 700 163 700 109 c 0
 700 27 624 -5 548 -5 c 0
 431 -5 376 71 353 117 c 1
 300 15 l 2
 292 2 286 0 283 0 c 2
 181 0 l 2
649 109 m 256
 649 138 627 158 599 158 c 256
 570 158 550 136 550 109 c 256
 550 80 572 60 599 60 c 256
 627 60 649 80 649 109 c 256
EndSplineSet
EndChar
StartChar: uni0E59
Encoding: 3673 3673 296
Width: 727
VWidth: 1494
Flags: MW
HStem: -9 51<238.844 319.89> 142 51<237.53 320.821> 366 72<293 295> 380 53<492.371 594.407>
VStem: 64 60<122.049 265.601> 178 51<79.438 132.918> 329 51<52.014 133.297> 413 42<311 340.979>
Fore
329 93 m 256
 329 122 306 142 280 142 c 256
 253 142 229 122 229 93 c 256
 229 63 253 42 280 42 c 256
 306 42 329 64 329 93 c 256
626 286 m 1
 623 339 589 380 543 380 c 0
 502 380 455 338 455 270 c 0
 455 263 455 256 456 248 c 1
 458 246 500 171 577 27 c 1
 528 0 l 1
 452 167 346 331 293 366 c 1
 281 361 282 359 236 334 c 0
 199 314 124 280 124 199 c 0
 124 153 154 96 179 79 c 1
 178 84 178 88 178 93 c 0
 178 144 223 193 280 193 c 0
 334 193 380 151 380 93 c 0
 380 30 321 -9 269 -9 c 0
 105 -9 64 142 64 202 c 0
 64 326 184 374 204 385 c 2
 204 385 252 413 253 413 c 1
 266 426 281 438 295 438 c 0
 307 438 325 429 356 386 c 2
 413 311 l 1
 415 369 463 433 538 433 c 0
 635 433 652 374 659 351 c 1
 715 449 744 562 762 616 c 1
 813 590 l 1
 813 589 751 380 674 271 c 0
 672 268 668 266 662 266 c 0
 644 266 625 276 625 283 c 0
 625 284 625 285 626 286 c 1
EndSplineSet
EndChar
StartChar: uni0E5A
Encoding: 3674 3674 297
Width: 696
VWidth: 1494
Flags: W
HStem: -9 21G<385.5 403.5 548.5 566.5> 356 51<180.381 295.463> 556 51<113.589 195.51>
VStem: 54 52<468.431 548.162> 203 50<467.745 547.987> 407 58<74.7784 369 431 453> 570 58<74.7784 453>
Fore
203 508 m 256
 203 537 181 556 154 556 c 256
 125 556 106 536 106 508 c 256
 106 479 126 460 154 460 c 256
 181 460 203 479 203 508 c 256
219 407 m 0
 296 407 395 478 423 605 c 1
 475 592 l 1
 473 589 467 562 465 555 c 1
 465 431 l 1
 486 442 564 491 586 605 c 1
 638 592 l 1
 636 589 630 562 628 555 c 1
 628 82 l 2
 628 19 575 -9 558 -9 c 0
 539 -9 527 17 527 26 c 0
 527 41 545 36 561 63 c 0
 567 73 570 83 570 94 c 2
 570 453 l 1
 537 412 502 384 465 369 c 1
 465 82 l 2
 465 19 412 -9 395 -9 c 0
 376 -9 364 17 364 26 c 0
 364 41 382 36 398 63 c 0
 404 73 407 83 407 94 c 2
 407 453 l 1
 357 394 295 356 221 356 c 0
 153 356 54 412 54 508 c 0
 54 565 102 607 154 607 c 256
 206 607 253 565 253 508 c 0
 253 482 238 424 167 419 c 1
 184 411 201 407 219 407 c 0
EndSplineSet
EndChar
StartChar: uni0E5B
Encoding: 3675 3675 298
Width: 1325
VWidth: 1494
Flags: MW
HStem: 37 54<230.016 414.298> 235 51<296.028 378.295> 284 15<1103.63 1112.14> 381 51<296.145 369.911> 528 56<212.649 355.282>
VStem: 75 58<195.678 428.946> 239 49<293.644 372.817> 399 52<357.867 484.186>
Fore
288 333 m 256
 288 304 311 286 336 286 c 0
 364 286 386 305 386 333 c 256
 386 362 364 381 336 381 c 0
 312 381 288 363 288 333 c 256
336 432 m 0
 348 432 369 432 398 408 c 1
 399 413 399 418 399 423 c 0
 399 453 377 528 283 528 c 0
 177 528 133 422 133 302 c 0
 141 128 244 91 318 91 c 0
 497 91 533 263 542 334 c 0
 548 386 551 424 551 448 c 0
 551 456 551 463 550 468 c 1
 610 450 650 386 670 275 c 1
 683 301 720 398 720 441 c 0
 720 447 719 452 718 456 c 1
 765 441 797 390 815 305 c 1
 836 335 860 392 860 439 c 1
 913 420 944 367 955 278 c 1
 982 306 988 356 988 382 c 0
 988 387 988 391 987 395 c 1
 996 394 1018 378 1052 348 c 0
 1088 318 1150 302 1241 299 c 1
 1178 289 1135 284 1111 284 c 0
 1072 284 1042 298 1021 327 c 1
 1013 270 987 239 942 233 c 0
 917 233 923 327 891 366 c 1
 870 289 841 240 804 217 c 1
 779 217 793 294 747 365 c 1
 733 280 701 223 652 194 c 1
 613 194 625 330 596 365 c 1
 581 150 489 41 318 37 c 0
 214 39 75 91 75 309 c 0
 75 460 142 580 278 584 c 0
 385 580 451 514 451 398 c 0
 451 302 405 235 336 235 c 0
 284 235 239 277 239 333 c 256
 239 390 284 432 336 432 c 0
EndSplineSet
EndChar
StartChar: zerowidthnonjoiner
Encoding: 8204 8204 299
Width: 0
VWidth: 1494
Flags: W
VStem: -25 52<-460 359>
Fore
27 -460 m 1
 -25 -460 l 1
 -25 359 l 1
 27 359 l 1
 27 -460 l 1
EndSplineSet
EndChar
StartChar: zerowidthjoiner
Encoding: 8205 8205 300
Width: 0
VWidth: 1494
Flags: W
VStem: -25 52<-460 224>
Fore
27 -460 m 1
 -25 -460 l 1
 -25 224 l 1
 -55 193 l 1
 -82 218 l 1
 -25 275 l 1
 -82 333 l 1
 -55 359 l 1
 0 302 l 1
 57 359 l 1
 84 333 l 1
 27 275 l 1
 84 218 l 1
 57 193 l 1
 27 224 l 1
 27 -460 l 1
EndSplineSet
EndChar
StartChar: lefttorightmark
Encoding: 8206 8206 301
Width: 0
VWidth: 1494
Flags: W
HStem: 251 54<27 175>
VStem: -25 52<-460 251>
Fore
27 -460 m 1
 -25 -460 l 1
 -25 305 l 1
 175 305 l 1
 149 332 l 1
 173 357 l 1
 253 278 l 1
 173 199 l 1
 149 226 l 1
 175 251 l 1
 27 251 l 1
 27 -460 l 1
EndSplineSet
EndChar
StartChar: righttoleftmark
Encoding: 8207 8207 302
Width: 0
VWidth: 1494
Flags: W
HStem: 251 54<-173 -25>
VStem: -25 52<-460 251>
Fore
27 -460 m 1
 -25 -460 l 1
 -25 251 l 1
 -173 251 l 1
 -148 226 l 1
 -172 199 l 1
 -251 278 l 1
 -172 357 l 1
 -148 332 l 1
 -173 305 l 1
 27 305 l 1
 27 -460 l 1
EndSplineSet
EndChar
StartChar: endash
Encoding: 8211 8211 303
Width: 490
VWidth: 1494
Flags: MW
HStem: 223 43<-6 496>
Fore
496 223 m 1
 -6 223 l 1
 -6 266 l 1
 496 266 l 1
 496 223 l 1
EndSplineSet
EndChar
StartChar: emdash
Encoding: 8212 8212 304
Width: 977
VWidth: 1494
Flags: MW
HStem: 223 43<-6 985>
Fore
985 223 m 1
 -6 223 l 1
 -6 266 l 1
 985 266 l 1
 985 223 l 1
EndSplineSet
EndChar
StartChar: quoteleft
Encoding: 8216 8216 305
Width: 298
VWidth: 1494
Flags: W
HStem: 484 110<136.301 191.777>
VStem: 82 123<523.799 581.421>
Fore
148 484 m 0
 107 484 82 511 82 553 c 0
 82 644 168 695 190 704 c 1
 191 703 212 672 212 670 c 1
 180 657 140 624 135 590 c 1
 142 593 148 594 154 594 c 0
 175 594 205 575 205 540 c 0
 205 525 191 484 148 484 c 0
EndSplineSet
EndChar
StartChar: quoteright
Encoding: 8217 8217 306
Width: 298
VWidth: 1494
Flags: W
HStem: 595 111<103.472 158.312>
VStem: 160 52<559.693 599>
Fore
146 706 m 0
 199 706 212 666 212 637 c 0
 212 562 156 508 105 486 c 1
 100 494 82 518 82 520 c 1
 114 533 155 565 160 599 c 1
 154 597 148 595 142 595 c 0
 118 595 90 617 90 650 c 0
 90 666 105 706 146 706 c 0
EndSplineSet
EndChar
StartChar: quotesinglbase
Encoding: 8218 8218 307
Width: 298
VWidth: 1494
Flags: W
HStem: -3 111<103.474 158.875>
VStem: 90 122<8.85415 68.6306>
Fore
146 108 m 0
 199 108 212 68 212 39 c 0
 212 -36 156 -90 105 -112 c 1
 103 -109 82 -79 82 -78 c 1
 114 -65 155 -32 160 1 c 1
 154 -2 148 -3 142 -3 c 0
 121 -3 90 17 90 52 c 0
 90 68 105 108 146 108 c 0
EndSplineSet
EndChar
StartChar: quotedblleft
Encoding: 8220 8220 308
Width: 487
VWidth: 1494
Flags: W
HStem: 484 110<137.301 192.777 322.301 378.685>
VStem: 84 122<523.799 583.341> 269 52<590 628.253>
Fore
335 484 m 0
 282 484 269 524 269 553 c 0
 269 613 314 678 377 704 c 1
 378 703 399 672 399 670 c 1
 367 657 326 624 321 590 c 1
 328 593 334 594 341 594 c 0
 364 594 392 573 392 540 c 0
 392 525 378 484 335 484 c 0
149 484 m 0
 108 484 84 511 84 553 c 0
 84 638 161 691 191 704 c 1
 196 696 214 672 214 670 c 1
 182 657 141 624 136 590 c 1
 143 593 149 594 155 594 c 0
 176 594 206 575 206 540 c 0
 206 525 192 484 149 484 c 0
EndSplineSet
EndChar
StartChar: quotedblright
Encoding: 8221 8221 309
Width: 487
VWidth: 1494
Flags: W
HStem: 595 111<104.398 159.312 289.699 345.288>
VStem: 161 53<561.537 599> 347 52<561.801 599>
Fore
148 706 m 0
 189 706 214 679 214 637 c 0
 214 562 155 506 106 486 c 1
 105 487 84 518 84 520 c 1
 116 533 156 565 161 599 c 1
 155 597 149 595 143 595 c 0
 119 595 91 617 91 650 c 0
 91 665 105 706 148 706 c 0
333 706 m 0
 386 706 399 666 399 637 c 0
 399 562 341 507 291 486 c 1
 282 502 l 1
 273 514 l 2
 270 517 269 519 269 520 c 1
 301 533 342 565 347 599 c 1
 341 597 334 595 328 595 c 0
 305 595 277 617 277 650 c 0
 277 665 290 706 333 706 c 0
EndSplineSet
EndChar
StartChar: quotedblbase
Encoding: 8222 8222 310
Width: 481
VWidth: 1494
Flags: W
HStem: -3 111<94.4735 149.875 282.474 337.875>
VStem: 81 122<8.85415 68.2009> 262 130<8.85415 68.2009>
Fore
138 108 m 0
 179 108 203 81 203 39 c 0
 203 -36 147 -90 96 -112 c 1
 94 -109 73 -79 73 -78 c 1
 105 -65 146 -32 151 1 c 1
 145 -2 139 -3 133 -3 c 0
 112 -3 81 17 81 52 c 0
 81 67 95 108 138 108 c 0
326 108 m 0
 367 108 392 81 392 39 c 0
 392 -36 335 -90 284 -112 c 1
 283 -111 262 -80 262 -78 c 1
 293 -65 334 -31 339 1 c 1
 333 -2 327 -3 321 -3 c 0
 300 -3 269 17 269 52 c 0
 269 67 283 108 326 108 c 0
EndSplineSet
EndChar
StartChar: dagger
Encoding: 8224 8224 311
Width: 611
VWidth: 1494
Flags: MW
HStem: 442 54<61 278 332 550>
VStem: 278 54<-164 442 496 707>
Fore
550 442 m 1
 332 442 l 1
 332 -164 l 1
 278 -164 l 1
 278 442 l 1
 61 442 l 1
 61 496 l 1
 278 496 l 1
 278 707 l 1
 332 707 l 1
 332 496 l 1
 550 496 l 1
 550 442 l 1
EndSplineSet
EndChar
StartChar: daggerdbl
Encoding: 8225 8225 312
Width: 611
VWidth: 1494
Flags: MW
HStem: 28 56<61 274 338 552> 468 54<61 274 338 552>
VStem: 274 64<-155 28 84 468 522 707>
Fore
552 28 m 1
 338 28 l 1
 338 -155 l 1
 274 -155 l 1
 274 28 l 1
 61 28 l 1
 61 84 l 1
 274 84 l 1
 274 468 l 1
 61 468 l 1
 61 522 l 1
 274 522 l 1
 274 707 l 1
 338 707 l 1
 338 522 l 1
 552 522 l 1
 552 468 l 1
 338 468 l 1
 338 84 l 1
 552 84 l 1
 552 28 l 1
EndSplineSet
EndChar
StartChar: bullet
Encoding: 8226 8226 313
Width: 382
VWidth: 1494
Flags: W
HStem: 129 302<111.008 274.549>
VStem: 42 302<197.982 361.583>
Fore
344 280 m 0
 344 209 300 129 193 129 c 256
 86 129 42 209 42 280 c 0
 42 350 87 431 193 431 c 256
 298 431 344 351 344 280 c 0
EndSplineSet
EndChar
StartChar: ellipsis
Encoding: 8230 8230 314
Width: 681
VWidth: 1494
Flags: W
HStem: 0 109<70.129 156.985 297.129 384.871 523.129 609.985>
Fore
167 54 m 0
 167 35 156 0 114 0 c 256
 71 0 60 35 60 54 c 0
 60 74 71 109 114 109 c 256
 156 109 167 74 167 54 c 0
395 54 m 0
 395 35 384 0 341 0 c 256
 298 0 287 35 287 54 c 0
 287 74 298 109 341 109 c 256
 384 109 395 74 395 54 c 0
620 54 m 0
 620 37 609 0 567 0 c 256
 524 0 513 35 513 54 c 0
 513 74 524 109 567 109 c 256
 609 109 620 72 620 54 c 0
EndSplineSet
EndChar
StartChar: perthousand
Encoding: 8240 8240 315
Width: 1083
VWidth: 1494
Flags: W
HStem: -6 43<516.564 621.348 853.404 958.159> 321 45<516.757 622.046 853.211 958.424> 332 45<122.155 229.003> 659 45<123.27 229.061>
VStem: 34 50<420.97 614.821> 268 47<420.233 614.075> 429 48<82.7846 276.774> 662 48<83.6982 275.629> 765 50<81.1229 278.001> 999 47<83.0459 275.851>
Fore
577 722 m 1x9fc0
 205 -25 l 1
 154 -25 l 1
 525 722 l 1
 577 722 l 1x9fc0
429 179 m 256
 429 269 472 366 570 366 c 0xdfc0
 654 366 710 282 710 179 c 256
 710 78 654 -6 570 -6 c 0
 471 -6 429 93 429 179 c 256
477 179 m 256
 477 119 498 37 570 37 c 0
 626 37 662 95 662 179 c 256
 662 266 625 321 570 321 c 0
 498 321 477 241 477 179 c 256
765 179 m 256
 765 261 808 366 906 366 c 256
 990 366 1046 283 1046 179 c 256
 1046 78 990 -6 906 -6 c 256
 809 -6 765 99 765 179 c 256
815 179 m 256
 815 120 835 37 906 37 c 0
 965 37 999 98 999 179 c 256
 999 266 962 321 906 321 c 0
 835 321 815 240 815 179 c 256
175 704 m 256
 259 704 315 620 315 519 c 0
 315 413 259 332 175 332 c 256xbfc0
 79 332 34 432 34 519 c 0
 34 617 90 704 175 704 c 256
175 659 m 0
 105 659 84 579 84 519 c 0
 84 459 102 377 175 377 c 0
 248 377 268 457 268 519 c 0
 268 604 231 659 175 659 c 0
EndSplineSet
EndChar
StartChar: minute
Encoding: 8242 8242 316
Width: 213
VWidth: 1494
Flags: W
HStem: 508 239<97 115 115 115>
Fore
115 747 m 1
 209 747 l 1
 97 508 l 1
 48 508 l 1
 115 747 l 1
EndSplineSet
EndChar
StartChar: second
Encoding: 8243 8243 317
Width: 418
VWidth: 1494
Flags: W
HStem: 508 199<87 129 129 129>
Fore
129 707 m 1
 223 707 l 1
 87 508 l 1
 37 508 l 1
 129 707 l 1
280 707 m 1
 374 707 l 1
 238 508 l 1
 188 508 l 1
 280 707 l 1
EndSplineSet
EndChar
StartChar: guilsinglleft
Encoding: 8249 8249 318
Width: 300
VWidth: 1494
Flags: MW
Fore
185 462 m 1
 245 462 l 1
 111 253 l 1
 245 43 l 1
 185 43 l 1
 63 239 l 2
 60 244 59 248 59 253 c 0
 59 257 60 262 63 266 c 2
 185 462 l 1
EndSplineSet
EndChar
StartChar: guilsinglright
Encoding: 8250 8250 319
Width: 291
VWidth: 1494
Flags: MW
Fore
239 266 m 2
 242 262 243 257 243 253 c 0
 243 248 242 244 239 239 c 2
 117 43 l 1
 57 43 l 1
 191 253 l 1
 57 462 l 1
 117 462 l 1
 239 266 l 2
EndSplineSet
EndChar
StartChar: fraction
Encoding: 8260 8260 320
Width: 174
VWidth: 1494
Flags: MW
HStem: 0 21G<-73 -31.238>
Fore
-39 0 m 1
 -73 0 l 1
 188 706 l 1
 235 706 l 1
 -39 0 l 1
EndSplineSet
EndChar
StartChar: Euro
Encoding: 8364 8364 321
Width: 644
VWidth: 1494
Flags: W
HStem: -13 63<325.106 528.771> 247 47<19 123 194 457> 375 48<19 121 187 457> 656 63<325.96 512.49>
VStem: 119 63<294 314 314 317.214 317.214 361 361 375 423 494.002> 130 64<135.583 234.123>
Fore
427 50 m 0xf4
 486 50 542 67 580 111 c 1
 622 63 l 1
 577 16 508 -13 432 -13 c 0
 303 -13 168 62 130 247 c 1xf4
 19 247 l 1
 19 294 l 1
 123 294 l 1
 121 315 119 337 119 347 c 0
 119 356 120 366 121 375 c 1
 19 375 l 1
 19 423 l 1
 124 423 l 1
 150 626 284 719 420 719 c 0
 492 719 556 694 604 650 c 1
 575 589 l 1
 534 634 475 656 421 656 c 0
 298 656 208 567 187 423 c 1
 457 423 l 1
 457 375 l 1
 182 375 l 1
 182 334 l 2xf8
 182 321 183 307 185 294 c 1
 457 294 l 1
 457 247 l 1
 194 247 l 1
 219 147 289 50 427 50 c 0xf4
EndSplineSet
EndChar
StartChar: uni2113
Encoding: 8467 8467 322
Width: 318
VWidth: 1494
Flags: MW
HStem: -5 57<163.838 229.254> 652 49<167.169 219.387>
VStem: 108 52<55.3281 318 411 647.795> 227 50<474.1 647.532>
Fore
274 31 m 1
 233 7 200 -5 174 -5 c 0
 130 -5 108 31 108 102 c 2
 108 318 l 1
 61 286 l 1
 21 320 l 1
 108 380 l 1
 108 571 l 2
 108 658 135 701 188 701 c 0
 244 701 274 666 277 595 c 0
 277 480 238 397 160 347 c 1
 160 100 l 2
 160 69 170 52 191 52 c 0
 210 52 238 64 274 90 c 1
 274 31 l 1
227 577 m 0
 227 619 220 652 191 652 c 0
 170 652 160 625 160 571 c 2
 160 411 l 1
 205 452 227 508 227 577 c 0
EndSplineSet
EndChar
StartChar: trademark
Encoding: 8482 8482 323
Width: 852
VWidth: 1494
Flags: MW
HStem: 658 43<100 206 250 351>
VStem: 206 44<320 658>
Fore
752 330 m 1
 709 321 l 1
 685 635 l 1
 595 327 l 1
 547 327 l 1
 459 635 l 1
 432 321 l 1
 390 330 l 1
 422 677 l 2
 423.871 695.709 442.94 707 457 707 c 0
 469 707 484 700 490 679 c 2
 490 679 555 458 571 395 c 1
 652 679 l 2
 658 701 675 707 686 707 c 0
 704.128 707 720.367 691.693 722 677 c 2
 752 330 l 1
351 701 m 1
 351 658 l 1
 250 658 l 1
 250 320 l 1
 206 320 l 1
 206 658 l 1
 100 658 l 1
 100 701 l 1
 351 701 l 1
EndSplineSet
EndChar
StartChar: Ohm
Encoding: 8486 8486 324
Width: 733
VWidth: 1494
Flags: W
HStem: 0 69<77.0798 281 447 650.57> 658 22<266.226 467.005>
VStem: 39 97<315.694 515.017> 54 1<91.8463 154> 281 24<69 164> 423 24<69 164> 592 96<313.737 515.472> 673 1<91.0332 154>
Fore
574 69 m 2xee
 646 69 666 89 673 154 c 1
 674 154 l 1
 674 0 l 1xcd
 423 0 l 1
 423 176 l 1
 531 199 592 300 592 416 c 0
 592 548 513 658 366 658 c 0
 228 658 136 550 136 416 c 0xee
 136 326 179 202 305 176 c 1
 305 0 l 1
 54 0 l 1
 54 154 l 1
 55 154 l 1xdc
 62 91 81 69 154 69 c 2
 281 69 l 1
 281 164 l 1
 165 178 39 265 39 416 c 0
 39 597 216 680 366 680 c 0
 534 680 688 585 688 416 c 0
 688 261 569 183 447 164 c 1
 447 69 l 1
 574 69 l 2xee
EndSplineSet
EndChar
StartChar: estimated
Encoding: 8494 8494 325
Width: 488
VWidth: 1494
Flags: MW
HStem: -9 50<187.507 327.091> 232 56<108 389> 475 50<180.068 315.899>
VStem: 52 56<128.766 232 288 378.369> 389 47<288 388.412>
Fore
52 256 m 0
 52 371 110 525 251 525 c 0
 387 525 436 381 436 268 c 0
 436 240 430 232 401 232 c 2
 108 232 l 1
 108 99 194 41 251 41 c 0
 296 41 334 63 353 82 c 1
 383 37 l 1
 362 20 313 -9 244 -9 c 0
 142 -9 52 94 52 256 c 0
248 475 m 0
 147 475 106 359 106 288 c 1
 389 288 l 1
 389 394.141 332.6 475 248 475 c 0
EndSplineSet
EndChar
StartChar: partialdiff
Encoding: 8706 8706 326
Width: 515
VWidth: 1494
Flags: W
HStem: -15 24<171.374 284.472> 384 35<207.38 322.177> 665 36<275.61 355.529>
VStem: 53 75<70.5999 275.511> 395 69<371.221 559.703>
Fore
203 589 m 0
 165 589 153 617 153 629 c 0
 153 671 236 701 277 701 c 0
 352 701 464 649 464 397 c 0
 464 251 415 -15 218 -15 c 0
 86 -15 53 96 53 168 c 0
 53 292 132 419 248 419 c 256
 298 419 342 405 378 315 c 1
 391 391 395 450 395 508 c 0
 395 584 380 665 321 665 c 0
 267 665 252 589 203 589 c 0
224 9 m 0
 332 9 359 164 359 250 c 0
 359 308 340 384 265 384 c 0
 174 384 128 252 128 157 c 0
 128 100 147 9 224 9 c 0
EndSplineSet
EndChar
StartChar: Delta
Encoding: 8710 8710 327
Width: 560
VWidth: 1494
Flags: W
HStem: 0 33<54 453>
Fore
284 662 m 1
 552 0 l 1
 7 0 l 1
 277 662 l 1
 284 662 l 1
259 534 m 1
 54 33 l 1
 453 33 l 1
 259 534 l 1
EndSplineSet
EndChar
StartChar: product
Encoding: 8719 8719 328
Width: 908
VWidth: 1494
Flags: W
HStem: -120 27<79 169 239 323 584 670 740 828> 771 26<79 169 239 670 740 828>
VStem: 169 70<-93 771> 670 70<-93 771>
Fore
828 771 m 1
 740 771 l 1
 740 -93 l 1
 828 -93 l 1
 828 -120 l 1
 584 -120 l 1
 584 -93 l 1
 670 -93 l 1
 670 771 l 1
 239 771 l 1
 239 -93 l 1
 323 -93 l 1
 323 -120 l 1
 79 -120 l 1
 79 -93 l 1
 169 -93 l 1
 169 771 l 1
 79 771 l 1
 79 797 l 1
 828 797 l 1
 828 771 l 1
EndSplineSet
EndChar
StartChar: summation
Encoding: 8721 8721 329
Width: 675
VWidth: 1494
Flags: W
HStem: -233 66<132 487.195> -39 20G<575.5 620> 674 35<152 342.046 342.046 454.207>
Fore
620 -19 m 1
 593 -136 l 2
 589 -160 573 -233 492 -233 c 2
 31 -233 l 1
 398 202 l 1
 43 709 l 1
 483 709 l 2
 564 709 571 688 581 617 c 2
 595 499 l 1
 571 499 l 1
 556 545 528 662 376 672 c 0
 354 673 332 674 308 674 c 2
 152 674 l 1
 477 241 l 1
 132 -167 l 1
 333 -167 l 2
 500 -167 553 -128 598 -19 c 1
 620 -19 l 1
EndSplineSet
EndChar
StartChar: minus
Encoding: 8722 8722 330
Width: 503
VWidth: 1494
Flags: MW
HStem: 269 54<49 453>
Fore
453 269 m 1
 49 269 l 1
 49 323 l 1
 453 323 l 1
 453 269 l 1
EndSplineSet
EndChar
StartChar: radical
Encoding: 8730 8730 331
Width: 618
VWidth: 1494
Flags: W
HStem: 765 33<565 619>
Fore
544 798 m 1
 619 798 l 1
 619 765 l 1
 565 765 l 1
 280 -22 l 1
 257 -22 l 1
 100 414 l 1
 39 392 l 1
 33 417 l 1
 151 459 l 1
 283 85 l 1
 544 798 l 1
EndSplineSet
EndChar
StartChar: infinity
Encoding: 8734 8734 332
Width: 941
VWidth: 1494
Flags: W
HStem: 141 51<187.047 323.574> 141 59<587.907 760.372> 450 61<179.2 322.017 611.985 755.181>
VStem: 81 33<249.723 395.357> 825 33<256.815 399.372>
Fore
469 387 m 1xb8
 524 475 583 511 658 511 c 0
 773 511 858 436 858 324 c 0
 858 224 780 141 671 141 c 0x78
 575 141 516 201 480 265 c 1
 465 238 400 141 281 141 c 0
 164 141 81 227 81 324 c 0
 81 436 157 511 268 511 c 0
 389 511 453 414 469 387 c 1xb8
114 323 m 0
 114 237 182 192 246 192 c 0xb8
 367 192 417 316 435 354 c 1
 392 442 288 450 260 450 c 0
 194 450 114 418 114 323 c 0
502 302 m 1
 534 241 608 200 679 200 c 0x78
 729 200 825 226 825 329 c 0
 825 403 769 453 686 453 c 0
 589 453 530 351 502 302 c 1
EndSplineSet
EndChar
StartChar: integral
Encoding: 8747 8747 333
Width: 369
VWidth: 1494
Flags: MW
HStem: -157 48<-41.4638 44.0177> 632 47<257.418 335.278 330.578 339.977 339.977 356>
Fore
135 -16 m 2
 121 -110 76 -157 2 -157 c 0
 -17 -157 -37 -154 -60 -148 c 1
 -52 -105 l 1
 -40 -107 -28 -109 -18 -109 c 0
 36 -109 70 -77 82 -15 c 2
 169 541 l 2
 181 633 228 679 310 679 c 0
 327 679 345 677 365 673 c 1
 356 629 l 1
 345 631 334 632 324 632 c 0
 266 632 232 601 223 540 c 2
 135 -16 l 2
EndSplineSet
EndChar
StartChar: approxequal
Encoding: 8776 8776 334
Width: 674
VWidth: 1494
Flags: MW
HStem: 133 57<364.445 512.84> 190 60<173.511 324.226> 308 57<364.445 512.84> 365 60<173.715 324.226>
Fore
448 365 m 0
 500 365 566 392 590 420 c 1
 590 354 l 1
 522 315 480 308 453 308 c 0
 378 308 311 365 233 365 c 0
 176 365 122 334 91 308 c 1
 91 372 l 1
 166 424 221 425 239 425 c 0
 307 425 383 365 448 365 c 0
448 190 m 0
 500 190 566 217 590 245 c 1
 590 179 l 1
 522 140 480 133 453 133 c 0
 378 133 311 190 233 190 c 0
 176 190 121 159 91 133 c 1
 91 197 l 1
 166 249 221 250 239 250 c 0
 307 250 383 190 448 190 c 0
EndSplineSet
EndChar
StartChar: notequal
Encoding: 8800 8800 335
Width: 523
VWidth: 1494
Flags: MW
HStem: -10 21G<158 213.906> 149 53<69 197 262 451> 359 54<69 248 314 451>
Fore
451 149 m 1
 248 149 l 1
 209 -10 l 1
 158 -10 l 1
 197 149 l 1
 69 149 l 1
 69 202 l 1
 209 202 l 1
 248 359 l 1
 69 359 l 1
 69 413 l 1
 263 413 l 1
 299 556 l 1
 350 556 l 1
 314 413 l 1
 451 413 l 1
 451 359 l 1
 300 359 l 1
 262 202 l 1
 451 202 l 1
 451 149 l 1
EndSplineSet
EndChar
StartChar: lessequal
Encoding: 8804 8804 336
Width: 578
VWidth: 1494
Flags: MW
HStem: 502 20G<459.714 510>
Fore
510 102 m 1
 70 283 l 1
 70 347 l 1
 510 522 l 1
 510 463 l 1
 124 311 l 1
 510 158 l 1
 510 102 l 1
69 24 m 1
 511 24 l 1
 511 70 l 1
 69 70 l 1
 69 24 l 1
EndSplineSet
EndChar
StartChar: greaterequal
Encoding: 8805 8805 337
Width: 578
VWidth: 1494
Flags: MW
HStem: 24 46<69 511> 502 20G<70 120.286>
Fore
70 158 m 1
 456 311 l 1
 70 463 l 1
 70 522 l 1
 510 347 l 1
 510 283 l 1
 70 102 l 1
 70 158 l 1
511 24 m 1
 69 24 l 1
 69 70 l 1
 511 70 l 1
 511 24 l 1
EndSplineSet
EndChar
StartChar: lozenge
Encoding: 9674 9674 338
Width: 588
VWidth: 1494
Flags: MW
Fore
294 825 m 1
 528 345 l 1
 294 -138 l 1
 63 345 l 1
 294 825 l 1
114 345 m 1
 294 -30 l 1
 477 345 l 1
 294 718 l 1
 114 345 l 1
EndSplineSet
EndChar
StartChar: dottedcircle
Encoding: 9676 9676 339
Width: 632
VWidth: 1494
Flags: W
HStem: 28 56<299.602 339.962> 49 54<188.422 241.466 387.42 437.623> 105 55<105.534 159.463 466.467 519.623> 190 55<48.4219 101.578 523.422 577.576> 286 55<42.6021 82.9624 544.914 598.134> 380 55<49.7286 102.41 522.663 576.337> 468 54<105.659 159.337 466.732 521.345> 522 53<185.422 238.578 387.422 438.623> 540 55<284.972 340.024>
VStem: 27 57<286.964 339.866> 48 54<190.422 244.576 380.593 434.712> 105 55<105.422 159.576 468.375 521.531> 188 54<49.7925 102.197 522.288 574.676> 284 57<29.1646 82.8662 541.091 593.83> 387 51<49.2365 102.762 522.288 574.676> 466 54<103.534 157.463 466.586 519.268> 523 55<190.422 244.576 380.469 434.623> 544 55<300.454 340.086>
Fore
522 490 m 0x3e1f
 522 474 513 466 496 466 c 0
 476 466 466 474 466 490 c 0
 466 510 476 520 496 520 c 0
 513 520 522 510 522 490 c 0x3e1f
439 547 m 0
 439 530 431 522 414 522 c 0
 396 522 387 530 387 547 c 0
 387 566 396 575 414 575 c 0x3e1f
 431 575 439 566 439 547 c 0
577 410 m 0
 577 390 568 380 549 380 c 0
 531 380 522 390 522 410 c 0
 522 427 531 435 550 435 c 0
 568 435 577 427 577 410 c 0
239 547 m 0
 239 530 230 522 212 522 c 256
 194 522 185 530 185 547 c 0
 185 566 194 575 212 575 c 256x3e1f
 230 575 239 566 239 547 c 0
578 217 m 0x3e1f80
 578 199 569 190 550 190 c 0
 532 190 523 199 523 217 c 0
 523 236 532 245 550 245 c 0
 569 245 578 236 578 217 c 0x3e1f80
160 492 m 0
 160 476 151 468 132 468 c 0
 114 468 105 476 105 492 c 0
 105 512 114 522 132 522 c 0
 151 522 160 512 160 492 c 0
520 130 m 0
 520 112 512 103 495 103 c 0x7e1f
 476 103 466 112 466 130 c 0
 466 149 476 158 495 158 c 0
 512 158 520 149 520 130 c 0
438 75 m 0
 438 58 430 49 413 49 c 256
 396 49 387 58 387 75 c 0
 387 94 396 103 413 103 c 256
 430 103 438 94 438 75 c 0
103 410 m 0
 103 390 95 380 78 380 c 0
 59 380 49 390 49 410 c 0
 49 427 58 435 76 435 c 256
 94 435 103 427 103 410 c 0
102 217 m 0x3e3f
 102 199 93 190 75 190 c 256
 57 190 48 199 48 217 c 0
 48 236 57 245 75 245 c 256
 93 245 102 236 102 217 c 0x3e3f
242 78 m 0
 242 59 233 49 215 49 c 256
 197 49 188 58 188 75 c 0
 188 94 197 103 215 103 c 256x7e1f
 233 103 242 95 242 78 c 0
160 132 m 0
 160 114 151 105 132 105 c 0
 114 105 105 114 105 132 c 0
 105 151 114 160 132 160 c 0
 151 160 160 151 160 132 c 0
312 595 m 256x3e9f
 327 595 341 581 341 567 c 0
 341 553 327 540 312 540 c 256
 298 540 284 553 284 567 c 0
 284 582 299 595 312 595 c 256x3e9f
312 84 m 256xbe1f
 326 84 341 72 341 55 c 0
 341 44 328 28 312 28 c 256
 299 28 284 42 284 55 c 0
 284 73 300 84 312 84 c 256xbe1f
573 341 m 0
 587 341 599 328 599 312 c 0
 599 302 589 286 573 286 c 0
 556 286 544 301 544 312 c 0x3e1f40
 544 329 557 341 573 341 c 0
55 341 m 256
 69 341 84 329 84 312 c 0
 84 300 71 286 55 286 c 256
 41 286 27 300 27 312 c 0x3e5f
 27 330 43 341 55 341 c 256
EndSplineSet
EndChar
StartChar: uni0E10.alt1
Encoding: 63232 63232 340
Width: 571
VWidth: 1494
Flags: MW
HStem: -2 21G<397 406> 197 51<183.444 264.928> 344 49<182.86 263.939> 432 44<148.886 391.635> 513 45<501.591 526.535> 559 50<235.213 392.329>
VStem: 126 49<256.013 335.653>
Fore
226 476 m 0
 317 476 413 463 469 428 c 1
 470 429 472 430 475 430 c 0
 494 430 510 402 510 393 c 0
 510 388 506 382 495 371 c 1
 485 365 480 356 477 344 c 2
 425 27 l 2
 423 20 414 -2 398 -2 c 0
 396 -2 364 1 364 16 c 0
 364 20 365 26 368 33 c 1
 367 42 361 68 343 118 c 2
 299 232 l 1
 281 209 254 197 224 197 c 0
 171 197 126 239 126 296 c 0
 126 348 168 393 224 393 c 0
 288 393 317 347 352 246 c 2
 374 182 l 2
 380 160 386 142 390 127 c 1
 428 365 l 2
 429 376 432 384 439 389 c 1
 425 400 357 432 226 432 c 0
 190 432 151 429 108 423 c 1
 97 400 89 399 84 399 c 0
 82 399 56 400 56 422 c 0
 56 452 112 534 168 571 c 0
 213 601 264 609 305 609 c 0
 339 609 362 607 443 584 c 2
 497 568 l 2
 514 563 527 560 537 558 c 1
 520 513 l 1
 513 514 502 516 486 522 c 2
 434 538 l 2
 422 541 360 559 311 559 c 0
 229 559 169 524 135 472 c 1
 168 475 198 476 226 476 c 0
175 296 m 0
 175 267 197 248 224 248 c 256
 253 248 272 268 272 296 c 0
 272 320 254 344 224 344 c 256
 195 344 175 321 175 296 c 0
EndSplineSet
EndChar
StartChar: uni0E34.alt1
Encoding: 63233 63233 341
Width: 0
VWidth: 1494
Flags: W
HStem: 694 38<-605.677 -300.661> 821 49<-515.746 -339.321>
Back
-677 697 m 0
 -681 703.667 -682.333 708 -681 710 c 128
 -679.667 712 -672.333 718 -659 728 c 0
 -647 740 -633.5 754.5 -618.5 771.5 c 128
 -603.5 788.5 -586.167 804.5 -566.5 819.5 c 128
 -546.833 834.5 -524.5 846.833 -499.5 856.5 c 128
 -474.5 866.167 -447 870.667 -417 870 c 0
 -389 868.667 -362.5 862.833 -337.5 852.5 c 128
 -312.5 842.167 -289.833 828.833 -269.5 812.5 c 128
 -249.167 796.167 -231.333 777.167 -216 755.5 c 128
 -200.667 733.833 -188.333 711.333 -179 688 c 0
 -177 682 -176 675.667 -176 669 c 128
 -176 662.333 -180.667 655.667 -190 649 c 0
 -194.667 643.667 -198.5 641.333 -201.5 642 c 128
 -204.5 642.667 -208.667 644 -214 646 c 0
 -260.667 662.667 -304.667 674.5 -346 681.5 c 128
 -387.333 688.5 -426 692.5 -462 693.5 c 128
 -498 694.5 -531.833 693.5 -563.5 690.5 c 128
 -595.167 687.5 -625 684 -653 680 c 0
 -657 679.333 -660.833 680 -664.5 682 c 128
 -668.167 684 -672.333 689 -677 697 c 0
-604 723 m 1
 -553.333 731 -496 733.833 -432 731.5 c 128
 -368 729.167 -300.333 714.667 -229 688 c 1
 -251 726.667 -278.833 758.5 -312.5 783.5 c 128
 -346.167 808.5 -382 821 -420 821 c 0
 -448 821 -471.5 817.667 -490.5 811 c 128
 -509.5 804.333 -525.667 796 -539 786 c 128
 -552.333 776 -564 765.333 -574 754 c 128
 -584 742.667 -594 732.333 -604 723 c 1
EndSplineSet
Refer: 263 3636 N 1 0 0 1 -107 0 2
EndChar
StartChar: uni0E35.alt1
Encoding: 63234 63234 342
Width: 0
VWidth: 1494
Flags: W
HStem: 694 38<-604.677 -299.661> 821 49<-514.177 -332.573>
VStem: -278 55<821 951>
Back
-676 697 m 0
 -680 703.667 -681.167 708 -679.5 710 c 128
 -677.833 712 -670.667 718 -658 728 c 0
 -646 740 -632.5 754.5 -617.5 771.5 c 128
 -602.5 788.5 -585 804.667 -565 820 c 128
 -545 835.333 -522.5 848 -497.5 858 c 128
 -472.5 868 -445.333 872 -416 870 c 0
 -388 868 -363 863.5 -341 856.5 c 128
 -319 849.5 -298 837.667 -278 821 c 1
 -278 951 l 1
 -223 951 l 1
 -223 764 l 1
 -209 744 -209 744 -198 729.5 c 128
 -190.667 719.833 -184 708 -178 694 c 0
 -176 688 -175 680.667 -175 672 c 128
 -175 663.333 -179.333 655.667 -188 649 c 0
 -193.333 643.667 -197.5 641.333 -200.5 642 c 128
 -203.5 642.667 -207.333 644 -212 646 c 0
 -259.333 662.667 -303.667 674.5 -345 681.5 c 128
 -386.333 688.5 -424.833 692.5 -460.5 693.5 c 128
 -496.167 694.5 -530 693.5 -562 690.5 c 128
 -594 687.5 -624 684 -652 680 c 0
 -656 679.333 -659.667 680 -663 682 c 128
 -666.333 684 -670.667 689 -676 697 c 0
-602 723 m 1
 -551.333 731 -494.167 733.833 -430.5 731.5 c 128
 -366.833 729.167 -299 714.667 -227 688 c 1
 -248.333 723.333 -274.833 754.333 -306.5 781 c 128
 -338.167 807.667 -376 821 -420 821 c 0
 -446 821 -468.167 817.667 -486.5 811 c 128
 -504.833 804.333 -521 796.333 -535 787 c 128
 -549 777.667 -561.167 767.167 -571.5 755.5 c 128
 -581.833 743.833 -592 733 -602 723 c 1
EndSplineSet
Refer: 264 3637 N 1 0 0 1 -106 0 2
EndChar
StartChar: uni0E36.alt1
Encoding: 63235 63235 343
Width: 0
VWidth: 1494
Flags: W
HStem: 694 38<-606.508 -348.703> 821 49<-514.581 -362.884> 906 36<-293.638 -216.011>
VStem: -336 35<849.587 899.184> -210 39<823.153 898.807>
Back
-179 691 m 0
 -177 685 -176 678.167 -176 670.5 c 128
 -176 662.833 -180.667 655.667 -190 649 c 0
 -194.667 643.667 -198.5 641.333 -201.5 642 c 128
 -204.5 642.667 -208.667 644 -214 646 c 0
 -260.667 662.667 -304.667 674.5 -346 681.5 c 128
 -387.333 688.5 -426 692.5 -462 693.5 c 128
 -498 694.5 -531.833 693.5 -563.5 690.5 c 128
 -595.167 687.5 -625 684 -653 680 c 0
 -657 679.333 -660.833 680 -664.5 682 c 128
 -668.167 684 -672.333 689 -677 697 c 0
 -681 703.667 -682.333 708 -681 710 c 128
 -679.667 712 -672.333 718 -659 728 c 0
 -647 740 -633.5 754.5 -618.5 771.5 c 128
 -603.5 788.5 -586.167 804.667 -566.5 820 c 128
 -546.833 835.333 -524.5 848 -499.5 858 c 128
 -474.5 868 -447 872 -417 870 c 0
 -403 868.667 -388.333 866.333 -373 863 c 128
 -357.667 859.667 -344.333 855 -333 849 c 1
 -337 861 -337.5 872.5 -334.5 883.5 c 128
 -331.5 894.5 -326.333 904.5 -319 913.5 c 128
 -311.667 922.5 -302.5 929.5 -291.5 934.5 c 128
 -280.5 939.5 -269.667 942 -259 942 c 0
 -233.667 942 -213 934.667 -197 920 c 128
 -181 905.333 -172.667 886.667 -172 864 c 256
 -170.667 841.333 -176.5 823 -189.5 809 c 128
 -202.5 795 -220.667 786 -244 782 c 1
 -230.667 768 -218.5 754 -207.5 740 c 128
 -196.5 726 -187 709.667 -179 691 c 0
-605 723 m 1
 -554.333 731 -496.833 733.833 -432.5 731.5 c 128
 -368.167 729.167 -300.333 714.667 -229 688 c 1
 -249.667 722.667 -276.167 753.5 -308.5 780.5 c 128
 -340.833 807.5 -378 821 -420 821 c 0
 -448 821 -471.5 817.667 -490.5 811 c 128
 -509.5 804.333 -525.667 796 -539 786 c 128
 -552.333 776 -564.167 765.333 -574.5 754 c 128
 -584.833 742.667 -595 732.333 -605 723 c 1
-288 892 m 0
 -297.333 883.333 -302 872.5 -302 859.5 c 128
 -302 846.5 -296.667 836 -286 828 c 1
 -278.667 821.333 -270.5 817.5 -261.5 816.5 c 128
 -252.5 815.5 -244.333 816.667 -237 820 c 128
 -229.667 823.333 -223.5 828.833 -218.5 836.5 c 128
 -213.5 844.167 -211 853.333 -211 864 c 0
 -211 874 -214 882.167 -220 888.5 c 128
 -226 894.833 -233 899.5 -241 902.5 c 128
 -249 905.5 -257.167 906.333 -265.5 905 c 128
 -273.833 903.667 -281.333 899.333 -288 892 c 0
EndSplineSet
Refer: 265 3638 N 1 0 0 1 -107 0 2
EndChar
